<svg width="1217" height="650" viewBox="0 0 1217 650" fill="none" xmlns="http://www.w3.org/2000/svg">
<path d="M449.152 573.015C441.806 573.015 434.546 572.757 427.719 572.241L427.891 569.746C437.398 570.434 447.337 570.606 457.881 570.348L457.967 572.843C454.943 572.929 452.004 573.015 449.152 573.015ZM470.586 572.327L470.413 569.832C480.006 569.23 490.031 568.284 500.402 566.994L500.748 569.488C490.29 570.864 480.179 571.811 470.586 572.327ZM415.101 571.037C404.643 569.746 394.618 567.768 385.37 565.274L386.062 562.865C395.136 565.36 405.075 567.338 415.446 568.542L415.101 571.037ZM513.193 567.51L512.675 565.016C522.527 563.037 532.034 560.113 541.109 556.242L542.059 558.565C532.898 562.521 523.132 565.532 513.193 567.51ZM373.357 561.403C363.505 557.876 354.344 553.404 346.047 548.243L347.43 546.093C355.554 551.167 364.542 555.554 374.221 558.995L373.357 561.403ZM553.467 553.146L552.257 550.909C560.814 546.351 569.11 540.76 576.975 534.309L578.531 536.287C570.58 542.824 562.11 548.501 553.467 553.146ZM335.762 541.018C327.811 534.825 320.638 527.6 314.502 519.514L316.489 517.966C322.539 525.879 329.54 532.932 337.318 539.039L335.762 541.018ZM588.124 528.03L586.395 526.223C593.309 519.772 600.137 512.375 606.619 504.204L608.607 505.752C602.038 513.923 595.124 521.493 588.124 528.03ZM307.242 509.107C302.143 500.935 297.735 491.732 294.019 481.926L296.352 481.066C299.982 490.786 304.303 499.817 309.316 507.816L307.242 509.107ZM616.212 495.774L614.138 494.312C619.669 486.743 625.2 478.314 630.559 469.282L632.719 470.572C627.361 479.604 621.83 488.119 616.212 495.774ZM290.13 469.884C287.45 460.767 285.29 450.875 283.648 440.381L286.154 440.037C287.796 450.445 289.957 460.251 292.55 469.196L290.13 469.884ZM639.028 459.649L636.868 458.444C641.448 450.187 645.942 441.414 650.696 431.78L652.943 432.898C648.189 442.532 643.695 451.305 639.028 459.649ZM282.006 427.909C280.969 418.448 280.277 408.642 279.931 397.805L282.438 397.719C282.784 408.47 283.475 418.19 284.512 427.565L282.006 427.909ZM658.215 421.544L655.968 420.512C659.857 412.083 663.832 403.137 668.067 393.074L670.401 394.02C666.166 404.084 662.19 413.029 658.215 421.544ZM279.586 385.333C279.586 383.698 279.586 382.15 279.586 380.516C279.586 372.689 279.759 364.431 280.018 355.228L282.524 355.314C282.179 364.517 282.092 372.775 282.092 380.516C282.092 382.064 282.092 383.698 282.092 385.247L279.586 385.333ZM675.24 382.408L672.907 381.462C676.191 373.463 679.735 364.861 684.229 353.593L686.562 354.54C682.068 365.807 678.611 374.409 675.24 382.408ZM691.229 342.842L688.896 341.896L690.451 337.853C693.649 329.854 696.76 321.854 699.958 313.941L702.292 314.887C699.094 322.8 695.896 330.8 692.785 338.799L691.229 342.842ZM283.043 342.842L280.536 342.756C280.882 335.703 281.228 328.735 281.574 321.94L282.006 312.823L284.512 312.909L284.08 322.112C283.734 328.821 283.389 335.789 283.043 342.842ZM707.045 303.361L704.712 302.415C708.946 292.093 712.749 282.976 716.379 274.633L718.712 275.665C715.083 283.922 711.28 292.954 707.045 303.361ZM285.117 300.351L282.611 300.265C282.956 290.975 283.216 283.664 283.216 277.213V275.751C283.216 273.945 283.216 272.138 283.129 270.332H285.636C285.636 272.224 285.636 274.031 285.722 275.837V277.299C285.636 283.664 285.463 291.061 285.117 300.351ZM723.725 264.139L721.392 263.107C725.886 253.215 730.12 244.356 734.355 235.926L736.602 237.045C732.454 245.474 728.219 254.333 723.725 264.139ZM282.784 257.774C282.265 246.42 280.969 236.787 278.981 228.185L281.401 227.583C283.388 236.271 284.685 246.076 285.203 257.602L282.784 257.774ZM742.479 226.035L740.232 224.831C742.998 219.756 745.677 214.853 748.443 210.294C750.603 206.596 752.677 202.811 754.752 198.51L756.999 199.629C754.925 203.929 752.85 207.886 750.603 211.585C747.924 216.143 745.159 220.96 742.479 226.035ZM23.8535 225.691L22.3843 223.626C31.5454 217.089 39.5829 211.757 47.534 206.854L48.8304 209.004C40.9657 213.907 33.0146 219.154 23.8535 225.691ZM275.524 216.401C271.894 206.338 266.708 197.994 260.227 191.457L262.041 189.651C268.783 196.446 274.141 205.133 277.944 215.455L275.524 216.401ZM59.6336 202.553L58.4236 200.403C67.4118 195.242 76.4865 190.597 85.3883 186.641L86.4254 188.963C77.61 192.92 68.6218 197.478 59.6336 202.553ZM762.098 188.189L759.764 187.243C761.666 182.684 763.567 178.039 765.382 173.48C767.197 168.836 769.098 164.105 771.086 159.374L773.42 160.32C771.432 164.965 769.53 169.696 767.715 174.341C765.901 178.985 764.086 183.544 762.098 188.189ZM97.92 184.146L96.9693 181.824C106.562 178.039 116.242 174.943 125.835 172.534L126.44 174.943C117.02 177.265 107.427 180.361 97.92 184.146ZM250.633 183.802C245.621 180.62 239.83 178.039 233.608 176.233C230.064 175.201 226.521 174.255 222.977 173.48L223.582 171.072C227.126 171.932 230.756 172.792 234.299 173.824C240.781 175.717 246.744 178.297 252.016 181.652L250.633 183.802ZM138.626 172.19L138.108 169.696C148.133 167.717 158.245 166.513 168.184 166.083L168.27 168.578C158.504 169.008 148.479 170.212 138.626 172.19ZM210.705 171.072C200.852 169.438 190.827 168.492 180.888 168.32V165.825C190.913 165.997 201.112 166.943 211.051 168.578L210.705 171.072ZM778.605 148.966L776.358 147.848C780.161 140.021 784.136 133.226 788.544 127.291C789.754 125.571 791.137 123.936 792.692 122.302L794.507 124.022C793.038 125.571 791.742 127.205 790.618 128.753C786.297 134.602 782.408 141.225 778.605 148.966ZM803.668 115.851L802.199 113.873C809.545 108.454 818.534 103.637 829.077 99.5944L829.942 101.917C819.657 105.873 810.842 110.518 803.668 115.851ZM841.696 97.8742L841.004 95.4658C850.424 92.6273 860.363 90.563 870.648 89.1008L870.994 91.5952C860.882 93.0574 851.029 95.1217 841.696 97.8742ZM913.428 90.563C904.354 89.6168 894.069 89.5308 883.525 90.305L883.352 87.8106C894.069 87.0364 904.527 87.1224 913.688 88.0686L913.428 90.563Z" fill="#3DB5C9"/>
<path d="M1.38281 241.689L0 239.625C3.45701 237.389 7.69186 234.292 12.2724 230.938L13.7416 233.002C9.16107 236.357 4.83982 239.453 1.38281 241.689Z" fill="#3DB5C9"/>
<path d="M939.961 97.7881C936.331 95.7238 931.664 94.0035 926.219 92.7132L926.824 90.3049C932.528 91.6811 937.455 93.4874 941.257 95.6377L939.961 97.7881Z" fill="#3DB5C9"/>
<path d="M805.915 460.595L564.789 330.198C589.161 463.605 625.892 568.972 659.079 618C692.266 667.028 826.485 632.192 835.991 602.69C845.412 573.273 805.915 460.595 805.915 460.595Z" fill="#F16995"/>
<path d="M663.313 620.322L652.51 599.937C651.214 597.443 649.658 594.604 649.312 591.422C649.053 588.325 650.177 584.455 653.288 582.734C656.831 580.842 661.239 582.046 666.165 586.261C676.018 594.69 684.055 605.356 689.414 617.054L687.167 618.086C681.981 606.646 674.116 596.324 664.61 588.153C662.276 586.175 657.955 583.078 654.584 584.885C652.424 586.089 651.646 588.841 651.905 591.164C652.164 593.83 653.461 596.324 654.757 598.733L665.56 619.118L663.313 620.322Z" fill="#FE7EB2"/>
<path d="M646.028 578.262C645.164 570.521 640.065 563.381 633.064 559.941L634.188 557.704C641.966 561.489 647.584 569.402 648.535 578.004L646.028 578.262Z" fill="#FE7EB2"/>
<path d="M667.634 151.461C612.149 154.729 577.666 139.075 555.886 144.408C519.588 153.267 520.279 186.124 530.045 211.413C545.775 251.925 647.152 548.071 689.673 547.899C712.23 547.813 779.728 540.76 845.411 530.782C903.662 521.923 967.184 516.762 977.209 480.12C982.568 460.595 923.194 396.084 865.721 271.794C836.077 207.714 821.99 168.234 794.766 153.267C769.357 139.333 732.367 147.59 667.634 151.461Z" fill="#25ACBA"/>
<path d="M798.482 508.504C832.361 501.709 866.758 497.925 901.155 494.312C926.391 491.646 952.578 489.237 976.691 480.636C976.864 480.464 977.037 480.206 977.123 480.034C987.321 462.487 933.824 373.979 876.351 249.689C846.707 185.608 832.62 146.128 805.396 131.162C780.074 117.227 743.084 125.485 678.351 129.355C530.391 138.129 525.033 148.88 540.762 189.307C556.491 229.819 657.868 525.965 700.39 525.793C709.118 525.793 724.675 524.675 744.207 522.783C761.924 516.762 780.16 512.117 798.482 508.504Z" fill="#53CAF1"/>
<path d="M877.042 251.151C874.018 253.043 870.993 255.108 868.227 257.43C858.375 265.429 850.51 275.321 843.855 286.159C835.645 299.577 828.817 313.855 822.94 328.478C811.273 357.894 803.84 388.601 793.815 418.62C789.062 432.984 783.53 447.177 776.357 460.509C769.702 472.981 760.887 492.936 752.59 504.29C745.59 513.837 743.083 516.762 728.91 524.159C760.628 521.493 808.853 515.902 856.041 508.677C914.292 499.817 972.283 488.291 977.037 480.034C987.235 462.573 934.256 374.667 877.042 251.151Z" fill="#25ACBA"/>
<path d="M689.068 147.418C560.986 155.073 556.319 164.277 569.974 199.371C583.629 234.464 671.264 490.7 708.081 490.614C727.614 490.528 786.037 484.421 842.905 475.733C893.291 467.992 943.504 458.1 947.652 450.961C956.468 435.737 910.23 359.184 860.449 251.581C834.781 196.102 822.595 161.955 799.087 149.052C777.049 136.924 745.071 144.15 689.068 147.418Z" fill="#D2F1FC"/>
<path d="M565.912 178.211C617.075 174.169 668.153 169.18 719.23 164.793C749.133 162.213 779.036 159.546 808.939 156.364C805.828 153.439 802.544 150.945 799.001 149.052C777.049 137.011 745.071 144.15 689.068 147.504C591.753 153.267 565.652 160.062 564.788 178.297C565.134 178.211 565.566 178.211 565.912 178.211Z" fill="white"/>
<path d="M784.91 164.039C769.353 165.157 585.271 187.329 584.753 191.371C584.234 195.414 656.399 350.927 660.375 353.335C664.35 355.744 861.223 324.713 864.766 319.466C868.31 314.305 797.096 163.093 784.91 164.039Z" fill="#AEE6F4"/>
<path d="M632.113 276.181C653.547 260.612 663.399 231.712 666.943 206.51C667.116 205.134 668.758 203.585 670.141 203.327C678.265 201.951 686.389 201.349 694.599 200.833C708.168 199.973 721.996 199.629 735.046 195.672C739.627 194.296 743.861 192.317 747.75 189.909C742.306 181.566 738.071 176.577 735.824 176.749C720.267 177.867 585.357 187.243 584.839 191.285C584.58 193.436 604.89 238.593 624.594 280.654C627.101 279.45 629.694 277.987 632.113 276.181Z" fill="#95D9E5"/>
<path d="M699.006 395.482C733.144 390.063 781.542 381.548 785.691 383.956C789.839 386.365 798.309 401.589 798.309 401.589L693.389 416.212L699.006 395.482Z" fill="#AEE6F4"/>
<path d="M730.379 425.673C741.528 424.813 802.285 417.932 802.285 417.932L810.063 432.726C810.063 432.726 746.454 440.812 743.17 442.102C739.886 443.392 730.379 425.673 730.379 425.673Z" fill="#AEE6F4"/>
<path d="M1028.29 1.71142C922.33 -0.00885348 917.058 -4.91165 916.367 20.5485C915.675 46.0086 916.972 147.333 926.046 148.537C935.121 149.741 1042.29 145.699 1046.78 151.118C1051.19 156.536 1067.35 199.113 1072.02 196.447C1076.69 193.78 1083.25 96.0686 1080.83 51.5135C1078.41 6.95827 1094.4 2.74359 1028.29 1.71142Z" fill="#FFD939"/>
<path d="M1047.3 64.7588C1012.56 71.2959 979.025 85.4882 952.06 108.54C940.652 118.345 930.713 129.441 922.416 141.655C923.453 145.87 924.663 148.364 926.046 148.536C935.121 149.741 1042.29 145.698 1046.78 151.117C1051.19 156.536 1067.35 199.112 1072.02 196.446C1076.34 193.952 1082.48 108.368 1081.18 60.8022C1069.77 61.4043 1058.54 62.6945 1047.3 64.7588Z" fill="#F4A914"/>
<path d="M977.296 56.9316C962.69 57.4476 958.023 60.8022 958.023 60.8022L992.507 105.873L1046.18 38.7826C1046.18 38.7826 1028.2 38.4386 1024.74 38.3526C1021.29 38.2665 993.026 77.7469 993.026 77.7469L977.296 56.9316Z" fill="white"/>
<path d="M648.449 540.674C631.855 448.123 643.955 423.265 668.586 381.29C695.551 335.187 724.763 385.247 706.354 419.996C687.945 454.746 772.729 523.815 750.777 588.583C728.825 653.352 648.449 540.674 648.449 540.674Z" fill="#FF729F"/>
<path d="M642.599 482.32L640.131 482.756L648.299 528.573L650.767 528.137L642.599 482.32Z" fill="#FFD939"/>
<path d="M668.845 417.416C665.82 417.416 662.881 416.986 660.029 416.04L660.807 413.631C670.487 416.814 682.068 413.803 688.982 406.32C695.896 398.751 697.711 387.053 693.562 377.677L695.896 376.645C700.476 386.795 698.402 399.697 690.883 407.954C685.266 414.061 677.055 417.416 668.845 417.416Z" fill="#FFD939"/>
<path d="M655.055 456.956L654.845 459.442L672.673 460.933L672.882 458.447L655.055 456.956Z" fill="#FFD939"/>
<path d="M902.971 429.716C906.86 447.435 917.231 464.293 933.047 473.411C948.862 482.528 970.123 482.786 984.729 471.862C1000.37 460.079 1005.56 438.661 1004.35 419.136C1003.05 398.149 994.754 376.473 977.642 364.173C960.703 352.045 934.084 353.249 917.404 365.807C900.291 378.795 898.909 410.879 902.971 429.716Z" fill="#F16995"/>
<path d="M1173.48 459.907C1046.7 296.996 981.186 339.057 981.186 339.057C981.186 339.057 936.677 321.252 915.589 343.96C915.589 343.96 842.041 346.884 804.446 327.445C766.851 308.006 762.703 352.217 794.68 372.689C843.078 403.74 937.887 412.169 953.27 437.027C968.654 461.885 952.838 453.714 926.133 444.94C891.217 433.5 841.955 408.04 828.3 432.296C814.644 456.552 831.929 473.669 888.019 493.71C944.109 513.751 1009.27 564.156 1039 564.758C1068.65 565.36 1057.84 610.603 1095.61 621.699C1135.89 633.569 1215.92 627.72 1216.35 599.335C1217.39 533.965 1187.31 477.712 1173.48 459.907Z" fill="#FF729F"/>
<path d="M860.363 464.379C860.277 464.379 860.19 464.379 860.104 464.379C849.473 464.293 839.016 458.96 832.707 450.531L834.695 449.069C840.572 456.896 850.338 461.799 860.104 461.885C860.19 461.885 860.277 461.885 860.363 461.885C870.129 461.885 879.809 457.154 885.772 449.413L887.76 450.961C881.364 459.305 870.907 464.379 860.363 464.379Z" fill="#FFD939"/>
<path d="M808.94 354.626C806.001 354.626 802.977 354.11 800.211 353.077C792.433 350.153 786.383 343.358 784.481 335.359L786.901 334.756C788.63 341.896 794.161 348.175 801.075 350.755C807.989 353.335 816.286 352.217 822.249 347.917L823.719 349.981C819.397 352.991 814.212 354.626 808.94 354.626Z" fill="#FFD939"/>
<path d="M998.125 381.548C974.272 365.549 946.616 354.884 918.182 350.755L918.527 348.261C947.393 352.475 975.395 363.227 999.508 379.484L998.125 381.548Z" fill="#FFD939"/>
<path d="M1032.26 373.377C1020.85 360.475 1005.3 351.013 988.445 346.798L989.05 344.39C1006.34 348.691 1022.32 358.41 1034.08 371.742L1032.26 373.377Z" fill="#FFD939"/>
<path d="M1015.58 389.659L1014.51 391.916L1024.21 396.456L1025.27 394.198L1015.58 389.659Z" fill="#FFD939"/>
<path d="M1046.91 382.629L1046.5 385.09L1054.09 386.335L1054.5 383.874L1046.91 382.629Z" fill="#FFD939"/>
<path d="M1078.67 515.472C1076.17 508.935 1073.66 502.139 1073.06 494.914C1072.36 486.743 1074.52 479.26 1079.11 474.357C1086.97 465.756 1100.45 465.928 1109.61 469.712C1119.64 473.841 1127.59 481.926 1134.5 489.065L1132.69 490.786C1125.86 483.818 1118.17 475.905 1108.58 471.949C1100.19 468.508 1087.92 468.25 1080.92 475.991C1076.86 480.378 1074.96 487.173 1075.56 494.656C1076.17 501.537 1078.59 508.074 1081.01 514.525L1078.67 515.472Z" fill="#FE7EB2"/>
<path d="M1102.79 459.047C1100.02 453.198 1102.44 445.456 1108.32 441.414C1113.24 437.973 1120.07 437.113 1127.07 439.005C1133.21 440.64 1138.65 444.166 1143.67 447.693L1142.2 449.757C1137.36 446.316 1132.17 442.962 1126.38 441.414C1120.24 439.779 1114.02 440.553 1109.79 443.478C1105.03 446.833 1102.87 453.284 1105.12 458.014L1102.79 459.047Z" fill="#FE7EB2"/>
<path d="M1054.39 446.832C1052.31 438.231 1057.33 428.511 1065.54 425.157C1073.75 421.802 1084.2 425.243 1088.78 432.812L1086.62 434.102C1082.65 427.565 1073.66 424.555 1066.49 427.479C1059.4 430.404 1054.99 438.833 1056.81 446.23L1054.39 446.832Z" fill="#FE7EB2"/>
<path d="M1155.33 552.716C1152.74 545.232 1152.83 537.663 1155.59 531.47C1158.79 524.331 1165.7 519.6 1172.88 519.6H1172.96C1180.91 519.686 1187.91 526.223 1188 533.621H1185.49C1185.49 527.6 1179.53 522.095 1172.96 522.095H1172.88C1166.83 522.095 1160.69 526.395 1157.93 532.502C1155.42 538.093 1155.33 544.974 1157.75 551.855L1155.33 552.716Z" fill="#FE7EB2"/>
<path d="M974.531 513.321C971.679 505.236 974.617 495.516 981.445 490.269C988.272 485.023 998.384 484.679 1005.56 489.495L1004.17 491.56C997.865 487.345 988.964 487.603 983 492.248C977.037 496.807 974.444 505.322 976.951 512.461L974.531 513.321Z" fill="#FE7EB2"/>
<path d="M94.8946 272.568C86.1657 299.577 87.3756 306.028 90.4005 304.91C93.4254 303.791 111.92 278.245 111.92 278.245L94.8946 272.568Z" fill="#FE7EB2"/>
<path d="M125.662 222.766C84.7831 253.215 87.4623 278.933 99.389 287.965C111.661 297.168 162.22 240.657 162.22 240.657L125.662 222.766Z" fill="#F16995"/>
<path d="M98.3516 25.4506C96.1909 63.1247 85.4742 141.827 121.6 166.943C157.726 192.059 253.053 44.2016 235.163 15.2149C217.359 -13.7717 99.5615 3.77509 98.3516 25.4506Z" fill="#FF729F"/>
<path d="M187.456 44.7176C173.456 38.6106 158.331 43.2554 145.972 50.9106C131.107 60.1141 119.267 72.5861 111.229 88.0686C105.007 99.9385 101.118 112.755 98.6978 126.001C102.328 143.462 109.155 158.428 121.6 167.029C144.33 182.856 190.395 130.301 217.1 81.8756C211.569 66.9092 202.494 51.2546 187.456 44.7176Z" fill="#F16995"/>
<path d="M164.726 70.5218C103.969 73.6183 111.748 76.4567 106.13 94.0036C100.512 111.55 98.4381 297.77 116.847 300.351C139.836 303.705 234.039 307.748 241.731 290.975C249.423 274.203 246.744 202.725 245.015 138.989C243.287 75.2526 246.571 66.3931 164.726 70.5218Z" fill="#0000EF"/>
<mask id="mask0_147_252" style="mask-type:alpha" maskUnits="userSpaceOnUse" x="112" y="94" width="125" height="191">
<path d="M165.936 95.4658C113.822 97.8742 120.476 100.197 115.637 114.389C110.797 128.581 109.241 279.363 125.057 281.514C144.762 284.266 225.656 287.621 232.311 274.117C238.965 260.613 236.545 202.639 234.99 151.031C233.348 99.4225 236.2 92.1973 165.936 95.4658Z" fill="#53CAF1"/>
</mask>
<g mask="url(#mask0_147_252)">
<path d="M165.936 95.4658C113.822 97.8742 120.476 100.197 115.637 114.389C110.797 128.581 109.241 279.363 125.057 281.514C144.762 284.266 225.656 287.621 232.311 274.117C238.965 260.613 236.545 202.639 234.99 151.031C233.348 99.4225 236.2 92.1973 165.936 95.4658Z" fill="#53CAF1"/>
<path d="M112.134 242.008L240.741 215.4" stroke="#BCF2FF" stroke-width="7" stroke-linejoin="round"/>
<path d="M223.002 283.187L200.645 210.665C198.363 203.263 199.641 195.221 204.105 188.891L239.473 138.743" stroke="#BCF2FF" stroke-width="7" stroke-linejoin="round"/>
<path d="M173.586 285.721L161.543 239.737C160.307 235.019 157.718 230.765 154.095 227.5L108.333 186.257" stroke="#BCF2FF" stroke-width="7" stroke-linejoin="round"/>
<path d="M108.966 153.314L236.939 131.14" stroke="#E3F9FF" stroke-width="7" stroke-linejoin="round"/>
<path opacity="0.5" d="M145.021 105.357C140.441 116.711 135.601 129.183 136.119 141.655C136.465 150.687 141.478 157.31 149.602 161.267C155.046 163.933 161.442 164.105 167.665 162.385C183.74 157.912 197.568 143.376 208.457 130.646C215.458 122.388 221.94 113.701 227.989 104.669C220.47 95.0358 203.877 93.7456 166.022 95.4659C159.368 95.8099 153.75 96.068 148.824 96.412C147.527 99.4225 146.145 102.347 145.021 105.357Z" fill="#2EC0D8"/>
<circle cx="205.263" cy="223.002" r="13.9376" fill="#53CAF1" stroke="#BCF2FF" stroke-width="7" stroke-linejoin="round"/>
</g>
<path d="M225.667 224.971C229.744 161.522 240.968 113.588 281.885 138.123C300.903 149.514 299.216 174.262 277.098 192.894C254.02 212.48 225.667 224.971 225.667 224.971Z" fill="#FE7EB2"/>
<path d="M281.502 173.765C281.438 173.866 281.374 173.968 281.309 174.069C277.14 179.871 270.11 183.438 263.43 183.184C256.666 182.949 250.457 179.021 247.2 173.131C247.041 172.818 246.902 172.588 246.743 172.275C244.078 166.688 244.52 160.018 247.21 154.414C250.105 148.373 255.552 143.592 262.305 142.829C263.32 142.69 264.32 142.685 265.372 142.712C279.745 143.647 291.417 159.328 281.502 173.765Z" fill="#53CAF1"/>
<path d="M263.886 162.41C261.781 161.007 259.643 159.655 257.588 158.284C253.99 162.959 250.392 167.633 246.743 172.275C244.078 166.688 244.52 160.018 247.21 154.414C250.105 148.373 255.552 143.592 262.305 142.829C264.057 149.185 264.615 155.85 263.886 162.41Z" fill="#D2F1FC"/>
<path d="M254.331 152.394C253.669 151.975 253.2 151.253 253.062 150.457C252.943 149.743 253.124 149.007 253.579 148.514L254.926 149.65C254.798 149.853 254.804 150.069 254.791 150.203C254.815 150.502 254.955 150.732 255.26 150.925C255.82 151.279 256.649 151.094 257.224 150.749C257.946 150.284 258.51 149.505 258.958 148.796L260.434 149.73C259.889 150.591 259.198 151.572 258.163 152.194C256.917 153.037 255.451 153.102 254.331 152.394Z" fill="#53CAF1"/>
<path d="M86.5116 173.48C106.994 146.558 127.736 166.513 116.76 188.963C116.76 188.963 151.59 196.274 117.625 231.626C90.1415 260.268 72.6836 234.12 83.0546 214.509C82.9682 214.423 59.1148 209.52 86.5116 173.48Z" fill="#FF729F"/>
<path d="M178.641 25.2785C156.084 40.933 194.629 90.219 192.382 102.949C190.049 115.679 162.047 135.29 160.146 161.008C158.244 186.727 174.751 181.566 191.259 163.589C207.679 145.612 257.115 107.68 255.04 78.7792C252.966 49.8785 235.163 15.2149 235.163 15.2149L178.641 25.2785Z" fill="#FF729F"/>
<path d="M195.58 159.374C174.492 152.063 180.283 139.763 171.727 164.621C163.171 189.479 161.788 191.543 171.208 189.221C180.629 186.899 195.58 159.374 195.58 159.374Z" fill="#FFB0D8"/>
<path d="M87.2031 177.265C98.352 159.374 117.625 153.353 120.045 154.471C122.465 155.59 101.29 182.684 100.426 187.673C99.5619 192.661 87.2031 177.265 87.2031 177.265Z" fill="#FE7EB2"/>
<path d="M99.6484 205.392C115.032 192.92 125.922 187.243 131.366 187.243C136.811 187.243 119.094 203.413 115.896 216.745C114.427 223.11 95.2407 209.004 99.6484 205.392Z" fill="#FFB0D8"/>
<path d="M84.1777 217.778L82.0171 216.573C89.1904 203.671 100.512 193.178 113.908 186.899L114.945 189.135C102.068 195.156 91.1782 205.306 84.1777 217.778Z" fill="#FE7EB2"/>
<path d="M182.876 76.8008C174.406 60.2001 170.43 45.3197 170.69 31.4715L173.196 31.5575C172.937 45.0617 176.826 59.512 185.123 75.6826L182.876 76.8008Z" fill="#FE7EB2"/>
<path d="M232.01 82.8985L231.645 85.3665L249.602 87.9946L249.967 85.5266L232.01 82.8985Z" fill="#FE7EB2"/>
<path d="M450.103 506.096C421.15 547.383 405.68 567.424 399.544 579.208C378.456 619.721 246.485 684.661 149.083 627.462C149.083 627.462 286.586 555.124 308.365 514.956C330.144 474.787 450.103 506.096 450.103 506.096Z" fill="#0000D8"/>
<path d="M497.636 341.81C594.346 274.719 598.408 308.006 592.012 331.316C585.617 354.626 470.153 408.986 470.153 408.986L497.636 341.81Z" fill="#0000D8"/>
<path d="M524.082 243.668C421.841 231.196 414.322 227.067 385.889 261.645C357.455 296.222 242.509 488.635 252.189 505.494C261.868 522.353 431.953 541.964 445.522 533.879C459.177 525.793 517.428 395.826 538.343 360.647C559.258 325.467 588.815 280.138 580.777 264.913C572.74 249.689 560.986 248.14 524.082 243.668Z" fill="#03036D"/>
<path d="M504.723 257C421.236 246.85 415.1 243.496 391.852 271.708C368.603 299.921 274.746 457.068 282.697 470.916C290.648 484.765 429.533 500.677 440.596 494.14C451.744 487.517 499.278 381.376 516.391 352.647C533.503 323.919 557.615 286.847 551.047 274.461C544.479 261.989 534.886 260.698 504.723 257Z" fill="#D2F1FC"/>
<path d="M341.207 371.57C352.01 367.872 362.295 362.625 371.369 355.83C381.74 348.175 390.037 338.455 398.853 329.251C405.334 322.37 412.508 317.898 421.842 315.919C433.25 313.511 445.09 312.995 456.585 310.845C474.215 307.576 491.846 302.157 505.847 290.459C515.786 282.202 523.478 271.794 529.873 260.612C523.564 259.322 515.527 258.29 504.81 257C421.323 246.85 415.187 243.496 391.939 271.708C380.358 285.728 351.319 331.746 325.996 376.129C331.009 374.839 336.194 373.377 341.207 371.57Z" fill="#53CAF1"/>
<path d="M369.9 449.241C351.924 431.952 329.539 419.652 305.34 413.459C289.957 442.704 279.759 466.014 282.611 471.002C288.055 480.55 355.64 491.044 400.84 494.57C393.926 477.454 383.21 462.057 369.9 449.241Z" fill="#53CAF1"/>
<path d="M533.59 370.968C556.665 385.677 545.689 417.072 530.219 431.092C530.219 431.092 533.417 471.346 509.563 485.023C485.71 498.699 463.153 494.914 461.77 478.142C460.474 461.369 486.92 443.564 486.92 443.564C486.92 443.564 471.018 440.726 479.055 416.642C487.266 392.558 533.59 370.968 533.59 370.968Z" fill="#0000EF"/>
<path d="M471.363 386.537C471.19 386.537 471.018 386.451 470.931 386.451C469.203 386.193 429.706 383.87 403.606 382.408L401.013 382.236L417.261 363.657L417.953 363.743C430.311 365.033 484.414 365.205 484.932 365.205H487.266L486.056 367.098C474.734 384.559 472.487 386.537 471.363 386.537ZM471.363 384.043C471.536 384.043 471.709 384.129 471.709 384.129C471.623 384.043 471.363 384.043 471.363 384.043ZM406.285 380.086C426.163 381.204 465.486 383.44 471.018 383.957C472.487 382.666 477.672 375.097 482.512 367.7C472.055 367.7 430.311 367.442 418.212 366.324L406.285 380.086Z" fill="#3DB5C9"/>
<path d="M460.474 414.663L459.61 414.577L359.702 407.696L377.506 393.16H378.024C385.198 393.762 398.421 394.536 412.422 395.396C460.042 398.235 465.4 398.837 466.265 400.041L466.61 400.557L466.437 401.159C466.005 402.793 461.338 412.771 460.82 413.889L460.474 414.663ZM366.184 405.632L458.918 412.083C460.56 408.642 462.721 403.826 463.672 401.589C458.054 400.643 431.781 399.009 412.249 397.891C398.594 397.116 385.63 396.342 378.284 395.74L366.184 405.632Z" fill="#3DB5C9"/>
<path d="M388.222 377.161C374.653 396.17 354.084 408.9 334.897 421.544C330.49 424.469 326.082 427.393 321.847 430.49C317.785 433.5 311.476 437.457 310.525 442.876C310.093 445.714 311.735 448.209 313.896 450.101C319.773 446.746 396.173 402.191 395.568 367.958C395.568 366.668 395.481 365.463 395.309 364.259C393.494 368.818 391.16 373.119 388.222 377.161Z" fill="#0000D8"/>
<path d="M370.628 426.201L370.54 428.694L453.718 431.586L453.805 429.093L370.628 426.201Z" fill="#3DB5C9"/>
<path d="M487.093 446.402C486.401 446.402 485.71 446.402 485.019 446.402L485.105 443.908C498.933 444.252 512.588 440.812 524.601 434.016L525.811 436.167C513.971 442.876 500.662 446.402 487.093 446.402Z" fill="white"/>
<path d="M496.081 436.425C490.55 427.393 493.316 414.233 502.131 408.212C510.86 402.191 524.256 404.256 530.824 412.599L528.836 414.147C523.046 406.836 511.292 405.03 503.6 410.277C495.908 415.609 493.402 427.221 498.328 435.135L496.081 436.425Z" fill="white"/>
<path d="M481.216 481.84C481.216 475.475 484.673 469.11 490.118 465.583C495.476 462.143 502.736 461.541 508.613 464.207L507.576 466.53C502.476 464.207 496.167 464.723 491.5 467.734C486.833 470.744 483.809 476.335 483.809 481.84H481.216Z" fill="white"/>
<path d="M356.763 513.235C359.183 513.407 361.776 513.579 364.109 512.891C366.443 512.117 368.603 510.225 368.863 507.816C369.122 505.58 367.739 503.43 365.838 502.14C364.023 500.849 361.776 500.333 359.529 499.817C352.355 498.269 345.009 497.495 337.75 497.323C333.688 497.237 328.934 497.753 326.514 501.021C324.872 503.258 324.786 506.44 326.255 508.763C330.403 514.956 350.108 512.719 356.763 513.235Z" fill="#D2F1FC"/>
<path d="M149.083 627.462C180.283 576.8 207.593 466.444 224.014 434.016C240.521 401.589 297.562 390.149 328.157 366.496C358.751 342.928 394.79 332.262 395.482 367.958C396.173 403.654 313.464 450.359 313.464 450.359C313.464 450.359 358.492 516.676 349.763 563.811C326.947 686.983 149.083 627.462 149.083 627.462Z" fill="#0000EF"/>
<path d="M350.455 386.193C344.059 386.193 338.096 382.322 332.392 378.538C331.182 377.763 330.059 376.989 328.849 376.215L330.231 374.065C331.441 374.839 332.651 375.613 333.775 376.387C340.862 381.118 347.603 385.505 355.035 382.838C363.937 379.57 371.283 372 374.135 363.055L376.555 363.829C373.444 373.549 365.493 381.72 355.9 385.247C353.998 385.935 352.183 386.193 350.455 386.193Z" fill="white"/>
<path d="M350.195 578.262L347.688 578.004C349.936 557.446 348.38 536.803 343.021 516.762L345.441 516.074C350.886 536.459 352.442 557.36 350.195 578.262Z" fill="white"/>
<path d="M234.291 427.834L233.434 430.178L254.468 437.795L255.325 435.451L234.291 427.834Z" fill="white"/>
<path d="M237.956 446.739L236.969 449.032L249.283 454.283L250.27 451.99L237.956 446.739Z" fill="white"/>
<path d="M402.222 316.608C358.491 236.529 335.329 169.782 403.778 168.148C435.582 167.373 452.522 198.683 439.99 238.249C427.026 279.708 402.222 316.608 402.222 316.608Z" fill="#FE7EB2"/>
<path d="M771.497 239.064C727.766 158.985 704.604 92.2379 773.053 90.6037C804.857 89.8295 821.796 121.139 809.265 160.705C796.301 202.164 771.497 239.064 771.497 239.064Z" fill="#FE7EB2"/>
<path d="M403.778 168.148C385.974 168.578 374.394 173.394 367.739 181.738C368.43 184.662 369.208 187.587 370.159 190.425C380.53 223.541 402.05 251.839 423.397 279.106C429.36 266.978 435.41 252.871 440.077 238.249C452.522 198.683 435.583 167.46 403.778 168.148Z" fill="#DD689D"/>
<path d="M430.656 211.671C430.656 211.843 430.656 212.015 430.656 212.187C430.051 222.422 424.261 232.142 415.964 236.959C407.581 241.861 397.037 241.861 388.567 237.217C388.135 236.959 387.789 236.787 387.357 236.529C379.838 231.798 375.258 223.368 374.221 214.509C373.097 204.962 376.036 194.984 383.641 188.877C384.765 187.931 385.975 187.157 387.271 186.383C405.42 176.491 431.607 186.555 430.656 211.671Z" fill="#53CAF1"/>
<path d="M799.931 134.127C799.931 134.299 799.931 134.471 799.931 134.643C799.326 144.878 793.535 154.598 785.239 159.415C776.855 164.318 766.311 164.318 757.842 159.673C757.41 159.415 757.064 159.243 756.632 158.985C749.113 154.254 744.532 145.825 743.495 136.965C742.372 127.418 745.31 117.44 752.915 111.333C754.039 110.387 755.249 109.613 756.545 108.839C774.695 98.947 800.882 109.011 799.931 134.127Z" fill="#53CAF1"/>
<path d="M461.683 316.866C444.139 274.719 385.802 196.446 389.864 139.591C393.926 82.7358 441.632 74.2204 466.35 74.2204C491.068 74.2204 528.663 89.7029 535.749 146.816C543.355 208.402 461.683 316.866 461.683 316.866Z" fill="#FE7EB2"/>
<path d="M418.73 113.873C438.435 142.945 473.696 157.74 507.057 164.879C516.304 166.857 525.724 168.32 535.231 169.266C536.441 161.352 536.7 153.783 535.836 146.816C528.749 89.7029 491.154 74.2204 466.437 74.2204C450.794 74.2204 426.076 77.661 408.964 94.4337C411.297 101.143 414.495 107.766 418.73 113.873Z" fill="#FFB0D8"/>
<path d="M517.946 148.106C517.946 148.451 517.946 148.795 517.859 149.139C516.736 169.008 505.414 187.759 489.425 197.22C473.177 206.768 452.781 206.768 436.36 197.736C420.285 188.963 410.692 171.76 408.531 153.697C406.025 132.538 413.89 110.174 433.94 99.2505C469.115 79.8974 519.847 99.3366 517.946 148.106Z" fill="#D2F1FC"/>
<path d="M414.581 174.341C426.421 160.836 437.916 147.074 449.843 133.57C457.88 124.452 466.09 115.335 473.869 105.873C476.807 102.347 479.573 98.7343 482.252 94.9497C466.868 89.7889 448.978 90.9071 433.94 99.1644C413.89 110.174 406.025 132.452 408.531 153.611C409.395 160.922 411.47 167.976 414.581 174.341Z" fill="#AEE6F4"/>
<path d="M517.859 149.138C516.736 169.008 505.414 187.759 489.425 197.22C473.177 206.768 452.781 206.768 436.36 197.736C420.285 188.963 410.692 171.76 408.531 153.697C416.31 154.385 418.729 153.353 419.507 147.16C420.544 138.301 421.581 120.754 437.138 122.388C452.695 124.022 444.657 141.999 450.361 144.408C456.152 146.816 478.276 147.934 478.968 145.01C479.659 142.085 479.4 123.248 495.734 123.592C504.809 123.764 506.797 134.172 506.97 145.612C507.056 147.848 512.76 148.708 517.859 149.138Z" fill="#3CA184"/>
<path d="M507.056 145.698C507.056 144.838 499.537 189.393 456.238 204.015C467.646 205.392 479.4 203.155 489.512 197.134C505.501 187.673 516.822 169.008 517.946 149.052C512.76 148.708 507.056 147.848 507.056 145.698Z" fill="#2C8469"/>
<path d="M429.532 146.816C430.397 147.676 431.866 148.02 433.076 147.676C434.718 147.246 435.928 145.526 435.841 143.806C435.755 142.085 434.286 140.537 432.557 140.279C428.841 139.849 427.026 144.322 429.532 146.816Z" fill="#03036D"/>
<path d="M490.808 147.762C491.672 148.622 493.141 148.966 494.351 148.622C495.993 148.192 497.203 146.472 497.117 144.752C497.03 143.032 495.561 141.483 493.833 141.225C490.116 140.795 488.301 145.268 490.808 147.762Z" fill="#03036D"/>
<path d="M464.189 185.522C460.387 185.522 456.67 184.404 453.645 182.168C447.509 177.609 445.176 168.75 448.287 162.041L450.534 163.073C447.855 168.836 449.929 176.319 455.115 180.19C460.214 183.974 467.906 184.06 473.264 180.276C478.449 176.663 481.388 169.696 480.264 163.245L482.771 162.815C483.981 170.298 480.783 178.125 474.647 182.34C471.622 184.404 467.906 185.522 464.189 185.522Z" fill="#FFD939"/>
<path d="M400.58 211.413C396.951 211.327 393.321 211.327 389.777 211.241C388.999 219.67 388.222 228.099 387.357 236.529C379.838 231.798 375.258 223.369 374.221 214.509C373.097 204.962 376.036 194.984 383.641 188.877C390.642 195.242 396.432 202.897 400.58 211.413Z" fill="#D2F1FC"/>
<path d="M769.855 133.869C766.225 133.783 762.595 133.783 759.052 133.697C758.274 142.126 757.496 150.555 756.632 158.985C749.113 154.254 744.532 145.825 743.495 136.965C742.372 127.418 745.31 117.44 752.915 111.333C759.916 117.698 765.706 125.353 769.855 133.869Z" fill="#D2F1FC"/>
<path d="M381.308 206.596C380.184 206.596 379.061 206.08 378.283 205.22C377.591 204.445 377.246 203.413 377.419 202.467L379.925 202.811C379.925 203.155 380.098 203.413 380.184 203.585C380.443 203.929 380.789 204.101 381.308 204.101C382.258 204.101 383.123 203.241 383.555 202.381C384.073 201.263 384.16 199.887 384.16 198.683H386.666C386.666 200.145 386.58 201.865 385.802 203.413C384.938 205.392 383.209 206.596 381.308 206.596Z" fill="#53CAF1"/>
<path d="M750.582 129.052C749.458 129.052 748.335 128.536 747.557 127.676C746.865 126.902 746.52 125.869 746.692 124.923L749.199 125.267C749.199 125.611 749.372 125.869 749.458 126.041C749.717 126.385 750.063 126.557 750.582 126.557C751.532 126.557 752.397 125.697 752.829 124.837C753.347 123.719 753.434 122.343 753.434 121.139H755.94C755.94 122.601 755.854 124.321 755.076 125.869C754.211 127.848 752.483 129.052 750.582 129.052Z" fill="#53CAF1"/>
<path d="M511.982 321.424C510.945 321.424 410.692 321.338 371.714 318.328L371.887 315.833C410.779 318.844 510.945 318.93 511.982 318.93V321.424Z" fill="#FE7EB2"/>
<path d="M459.695 264.913C458.658 267.494 457.535 270.16 457.535 272.998C457.535 275.837 458.831 278.761 461.337 280.052C465.313 282.03 469.893 279.105 473.091 276.095C486.487 263.537 495.475 246.506 498.414 228.443C499.192 223.627 499.019 215.541 492.537 214.509C486.833 213.563 483.462 220.702 480.869 224.659C472.659 237.475 465.486 250.893 459.695 264.913Z" fill="#DD689D"/>
</svg>
