<svg id="eeozC1sWnXG1" xmlns="http://www.w3.org/2000/svg" xmlns:xlink="http://www.w3.org/1999/xlink" viewBox="0 0 430 850" shape-rendering="geometricPrecision" text-rendering="geometricPrecision"><defs><linearGradient id="eeozC1sWnXG3-fill" x1="0.5" y1="0" x2="0.5" y2="1" spreadMethod="pad" gradientUnits="objectBoundingBox" gradientTransform="translate(0 0)"><stop id="eeozC1sWnXG3-fill-0" offset="0%" stop-color="#064663"/><stop id="eeozC1sWnXG3-fill-1" offset="100%" stop-color="#064663"/></linearGradient></defs><path d="M-9.199636,292.246792c-.592677-19.365171.899898-124.087262,0-155.407819-.035986-1.252466-.538028-2.466585.451472-2.663815c3.484437-.694527,10.637582.677117,16.177903-.69453c6.478943-1.604026,27.037468,2.857237,30.028365,2.857235c8.223253-.259594,18.384974-1.907909,25.908513.50111c5.051256,1.6174,5.692616-.872321,16.857298-1.426747c3.521608-.174879,13.259816,6.568342,25.527401,6.568342c1.760599,0,12.326283-3.36529,15.234083-2.476791c14.087514,4.304539,33.525494,9.232596,42.522107,9.232596c12.864344,0,23.320615.805429,30.908849-3.476833c6.20749-4.368905,10.485354-1.409493,20.78269-.554423c8.818903.7323,7.947966,3.190805,19.185446,1.480065c6.109781-.930128,12.266571,1.543719,22.499035,1.543719c9.86065,0,13.79473-13.553743,19.403806-13.553743c17.226475,0,14.251852,7.805412,19.636865,7.805411c5.117993-.000001,5.747864,1.762167,12.907621-1.784975c4.20049-4.351059,7.594928-4.797552,17.824136-10.038026c10.311374-5.282568,10.80081,12.225574,23.734664,3.323059c7.249512-4.98992,13.892752-1.185885,21.878146-3.323059c1.081473-.079854,18.13387-3.093596,19.200243-3.165913c4.485592-1.68079,16.916868-6.137557,19.24911-6.423979c18.813715.625545,14.726489,1.096525,14.726495,6.423979.000003,2.616097.058853,2.14309.05885,5.123336-.058852,3.297235-.058845,2.475071-.058852,8.080603-.000011,8.847707.381267,150.9398.381267,152.051198" transform="matrix(.988216 0 0 1.803173 9.192056 323.028459)" opacity="0.67" fill="url(#eeozC1sWnXG3-fill)" stroke="#060047" stroke-width="0.78"/></svg>
