<svg id="eFdDYt9WlyL1" xmlns="http://www.w3.org/2000/svg" xmlns:xlink="http://www.w3.org/1999/xlink" viewBox="0 0 430 850" shape-rendering="geometricPrecision" text-rendering="geometricPrecision"><path d="M-3.755817,233.851974c0-19.928235.515231-115.147945,0-146.987258-.070689-4.368341,9.792271,8.21129,27.532521,13.056395c8.785331,2.399394,15.240331,8.657901,18.339284,12.36999c9.20562,11.02698,16.047057-4.786823,28.053894-.000003c6.631932,2.64398,25.798238,14.396311,33.50882,16.965317c11.181333,3.725388,5.90923,20.644524,18.702595,20.644524c7.859571,0,28.27124,5.742674,37.70824,6.597744c8.082089.7323,23.922178-13.802214,34.220773-15.512954c5.599313-.930128,23.202177,4.695586,32.579725,4.695586c9.0368,0,23.650114-11.506157,28.790556-11.506157c15.787213,0,17.996222,4.91874,17.996217-.000001-.000011-4.921483,12.552531-4.918743,19.114095-8.465885c19.408024-7.728785,5.379122-7.753514,14.558173-13.418177c9.211841-5.684899-1.196835-3.467472,10.656403-12.369987c6.643821-4.98992-1.049745-10.919218,6.268475-13.056392.991117-.079854,6.858308-4.29659,7.835587-4.368907c4.110824-1.68079,9.145863-5.191987,11.283248-5.478409c17.241841.625545,5.985137,27.857407,12.536947,22.903702c10.386777-7.853255,12.819458,10.36381,17.865144,10.137932c5.918258.000014,18.412309-13.01866,18.41231-7.704014.000001,9.006896,0,138.193717,0,131.496952" transform="matrix(1.08596 0 0 1.803173 4.078696 428.324435)" fill="#051c32" stroke="#060047" stroke-width="0.78"/></svg>
