<svg id="eGum0zMEABO1" xmlns="http://www.w3.org/2000/svg" xmlns:xlink="http://www.w3.org/1999/xlink" viewBox="0 0 430 850" shape-rendering="geometricPrecision" text-rendering="geometricPrecision"><defs><linearGradient id="eGum0zMEABO4-fill" x1="0.5" y1="0" x2="0.5" y2="1" spreadMethod="pad" gradientUnits="objectBoundingBox" gradientTransform="translate(0 0)"><stop id="eGum0zMEABO4-fill-0" offset="0%" stop-color="#141e61"/><stop id="eGum0zMEABO4-fill-1" offset="20%" stop-color="#064663"/></linearGradient></defs><path d="M-6.597538,283.850247c-4.253012-19.501453-.306815-104.800791-1.208479-136.121348-.133672-4.643301,7.487025-7.313802,8.353511-5.74833c2.093767,3.782788,26.235617-1.784973,29.232386-1.784975c8.239394-.259594,20.155656-3.214448,27.693963-.805429c5.061172,1.6174,12.425751.554426,23.61235,0c3.52852-.174879,13.285839-4.031257,25.577505-4.031257c1.764055,0,12.350484-2.072249,15.263992-1.18375c14.115166,4.304539,17.432681,0,26.446954,0c12.889597,0,23.286301,4.30668,35.083387,8.930211c6.122715,3.674735,14.042335,3.768462,24.359883,4.623532c8.836213.7323,16.471923,3.198972,27.731462,1.488232c6.121774-.930128,5.941145,1.229322,16.193695,1.229322c9.880006,0,19.426377-7.341086,25.046463-7.341086c17.260289,0,14.279828-1.124799,19.675411-1.1248c5.128038-.000001,4.012974.774051,8.11339,1.124796c1.652723-.000004,2.534919,2.330703,12.784207-2.909771c10.331615-5.282568,21.461433-1.135511,34.420675-10.038026c7.263743-4.98992,13.920022,2.137174,21.921091,0c1.083597-.079854,18.169465-4.019234,19.237933-4.091551c4.494397-1.68079,30.776115.286422,33.112936,0c.960508.34196.256866,2.395291.058851,3.498928.000011.487676-.05884,1.642669,0,2.592323-.058856,2.017882-.000002-.438021-.000001,4.876625.000001,9.006896-.05885,153.513122-.05885,146.816357" transform="matrix(.988216 0 0 1.803173 8.4869 338.168877)" fill="url(#eGum0zMEABO4-fill)" stroke="#060047" stroke-width="0.78"/></svg>
