<svg id="eAyRBnP1TdI1" xmlns="http://www.w3.org/2000/svg" xmlns:xlink="http://www.w3.org/1999/xlink" viewBox="0 0 390 850" shape-rendering="geometricPrecision" text-rendering="geometricPrecision"><defs><linearGradient id="eAyRBnP1TdI3-fill" x1="0.5" y1="0" x2="0.5" y2="1" spreadMethod="pad" gradientUnits="objectBoundingBox" gradientTransform="translate(0 0)"><stop id="eAyRBnP1TdI3-fill-0" offset="0%" stop-color="#064663"/><stop id="eAyRBnP1TdI3-fill-1" offset="100%" stop-color="#064663"/></linearGradient></defs><path d="M-7.686719,292.246792c-3.877146-19.501453.821979-124.087262.000001-155.407819-.03287-1.252466-.155648-2.466585.748174-2.663815c3.18273-.694527,7.868795.677117,12.929397-.69453c5.91795-1.604026,24.696374,2.857237,27.428299,2.857235c7.511226-.259594,16.793074-1.907909,23.665172.50111c4.613883,1.6174,5.199709-.872321,15.397676-1.426747c3.216681-.174879,12.111687,6.568342,23.317059,6.568342c1.608154,0,11.258987-3.36529,13.915009-2.476791c12.867718,4.304539,30.622622,9.232596,38.840245,9.232596c11.75046,0,21.301353.805429,28.232544-3.476833c5.670002-4.368905,9.57746-1.409493,18.98318-.554423c8.0553.7323,7.259775,3.190805,17.524235,1.480065c5.580754-.930128,11.204445,1.543719,20.550911,1.543719c9.006846,0,12.600286-13.553743,17.723689-13.553743c15.734886,0,13.017827,7.805412,17.936568,7.805411c4.67484-.000001,5.250173,1.762167,11.789988-1.784975c3.836783-4.351059,6.937306-4.797552,16.280798-10.038026c9.418543-5.282568,9.8656,12.225574,21.67955,3.323059c6.621799-4.98992,12.68982-1.185885,19.983783-3.323059.987832-.079854,16.563712-3.093596,17.537752-3.165913c4.097198-1.68079,15.452086-6.137557,17.582387-6.423979c17.184691.625545,12.60414,1.096525,12.604146,6.423979.000003,2.616097.000001,2.10837-.000002,5.088616-.524008,3.285856-.000004,2.532158-.000003,7.846804.000001,9.006896.000002,159.016491.000002,152.319726" transform="matrix(.988216 0 0 1.803173 7.596137 323.028444)" opacity="0.67" fill="url(#eAyRBnP1TdI3-fill)" stroke="#060047" stroke-width="0.78"/></svg>
