<svg id="eKiZWCcm9TN1" xmlns="http://www.w3.org/2000/svg" xmlns:xlink="http://www.w3.org/1999/xlink" viewBox="0 0 390 850" shape-rendering="geometricPrecision" text-rendering="geometricPrecision"><defs><linearGradient id="eKiZWCcm9TN2-fill" x1="0.5" y1="0" x2="0.5" y2="1" spreadMethod="pad" gradientUnits="objectBoundingBox" gradientTransform="translate(0 0)"><stop id="eKiZWCcm9TN2-fill-0" offset="0%" stop-color="#061933"/><stop id="eKiZWCcm9TN2-fill-1" offset="41%" stop-color="#19376d"/><stop id="eKiZWCcm9TN2-fill-2" offset="100%" stop-color="#576cbc"/><stop id="eKiZWCcm9TN2-fill-3" offset="100%" stop-color="#576cbc"/></linearGradient></defs><rect width="390" height="525.153947" rx="0" ry="0" transform="matrix(1 0 0 1.618573 0.429833-.000018)" fill="url(#eKiZWCcm9TN2-fill)" stroke-width="0"/><g><ellipse rx="1.64022" ry="1.968264" transform="matrix(1 0 0 0.77838 32.363736 14.513166)" fill="#fff" stroke-width="0"/><ellipse rx="1.64022" ry="1.968264" transform="matrix(1 0 0 0.77838 368.046981 71.27606)" fill="#fff" stroke-width="0"/><ellipse rx="1.64022" ry="1.968264" transform="matrix(1 0 0 0.77838 316.722585 22.56072)" fill="#fff" stroke-width="0"/><ellipse rx="1.64022" ry="1.968264" transform="matrix(1 0 0 0.77838 120.338424 12.981109)" fill="#fff" stroke-width="0"/><ellipse rx="1.64022" ry="1.968264" transform="matrix(1 0 0 0.77838 180.3086 72.808117)" fill="#fff" stroke-width="0"/><ellipse rx="1.64022" ry="1.968264" transform="matrix(1 0 0 0.77838 161.571653 141.226981)" fill="#fff" stroke-width="0"/><ellipse rx="1.64022" ry="1.968264" transform="matrix(1 0 0 0.77838 112.234072 115.902273)" fill="#fff" stroke-width="0"/><ellipse rx="1.64022" ry="1.968264" transform="matrix(1 0 0 0.77838 20.209461 215.644748)" fill="#fff" stroke-width="0"/><ellipse rx="1.64022" ry="1.968264" transform="matrix(1 0 0 0.77838 9.977412 333.608894)" fill="#fff" stroke-width="0"/><ellipse rx="1.64022" ry="1.968264" transform="matrix(1 0 0 0.77838 199.430836 234.607903)" fill="#fff" stroke-width="0"/><ellipse rx="1.64022" ry="1.968264" transform="matrix(1 0 0 0.77838 124.981844 353.101592)" fill="#fff" stroke-width="0"/><ellipse rx="1.64022" ry="1.968264" transform="matrix(1 0 0 0.77838 147.782862 376.020199)" fill="#fff" stroke-width="0"/><ellipse rx="1.64022" ry="1.968264" transform="matrix(1 0 0 0.77838 153.931023 369.683169)" fill="#fff" stroke-width="0"/><ellipse rx="1.64022" ry="1.968264" transform="matrix(1 0 0 0.77838 229.337496 311.215672)" fill="#fff" stroke-width="0"/><ellipse rx="1.64022" ry="1.968264" transform="matrix(1 0 0 0.77838 267.538212 160.079944)" fill="#fff" stroke-width="0"/><ellipse rx="1.64022" ry="1.968264" transform="matrix(1 0 0 0.77838 306.591323 307.515002)" fill="#fff" stroke-width="0"/><ellipse rx="1.64022" ry="1.968264" transform="matrix(1 0 0 0.77838 320.003025 376.020199)" fill="#fff" stroke-width="0"/><ellipse rx="1.64022" ry="1.968264" transform="matrix(1 0 0 0.77838 276.883179 125.129018)" fill="#fff" stroke-width="0"/><ellipse rx="1.64022" ry="1.968264" transform="matrix(1 0 0 0.77838 336.793612 184.551068)" fill="#fff" stroke-width="0"/><ellipse rx="1.64022" ry="1.968264" transform="matrix(1 0 0 0.77838 312.047065 198.10552)" fill="#fff" stroke-width="0"/><ellipse rx="1.64022" ry="1.968264" transform="matrix(1 0 0 0.77838 252.155058 218.708862)" fill="#fff" stroke-width="0"/><ellipse rx="1.64022" ry="1.968264" transform="matrix(.663113 0 0 0.516155 50.572027 19.496606)" fill="#fff" stroke-width="0"/><ellipse rx="1.64022" ry="1.968264" transform="matrix(.663113 0 0 0.516155 220.889686 49.839636)" fill="#fff" stroke-width="0"/><ellipse rx="1.64022" ry="1.968264" transform="matrix(.663113 0 0 0.516155 288.906574 94.588141)" fill="#fff" stroke-width="0"/><ellipse rx="1.64022" ry="1.968264" transform="matrix(.663113 0 0 0.516155 286.731272 142.759038)" fill="#fff" stroke-width="0"/><ellipse rx="1.64022" ry="1.968264" transform="matrix(.663113 0 0 0.516155 366.406761 201.096719)" fill="#fff" stroke-width="0"/><ellipse rx="1.64022" ry="1.968264" transform="matrix(.663113 0 0 0.516155 366.95933 10.433123)" fill="#fff" stroke-width="0"/><ellipse rx="1.64022" ry="1.968264" transform="matrix(.663113 0 0 0.516155 214.057102 19.376178)" fill="#fff" stroke-width="0"/><ellipse rx="1.64022" ry="1.968264" transform="matrix(.663113 0 0 0.516155 220.33779 15.529095)" fill="#fff" stroke-width="0"/><ellipse rx="1.64022" ry="1.968264" transform="matrix(.663113 0 0 0.516155 309.319194 25.108706)" fill="#fff" stroke-width="0"/><ellipse rx="1.64022" ry="1.968264" transform="matrix(.663113 0 0 0.516155 139.203936 79.416912)" fill="#fff" stroke-width="0"/><ellipse rx="1.64022" ry="1.968264" transform="matrix(.663113 0 0 0.516155 118.698204 118.45026)" fill="#fff" stroke-width="0"/><ellipse rx="1.64022" ry="1.968264" transform="matrix(.663113 0 0 0.516155 99.48944 183.535139)" fill="#fff" stroke-width="0"/><ellipse rx="1.64022" ry="1.968264" transform="matrix(.663113 0 0 0.516155 106.346029 170.257935)" fill="#fff" stroke-width="0"/><ellipse rx="1.64022" ry="1.968264" transform="matrix(.663113 0 0 0.516155 137.028634 204.40169)" fill="#fff" stroke-width="0"/><ellipse rx="1.64022" ry="1.968264" transform="matrix(.663113 0 0 0.516155 109.506201 263.3183)" fill="#fff" stroke-width="0"/><ellipse rx="1.64022" ry="1.968264" transform="matrix(.663113 0 0 0.516155 35.091607 159.064015)" fill="#fff" stroke-width="0"/><ellipse rx="1.64022" ry="1.968264" transform="matrix(.663113 0 0 0.516155 51.659678 152.324857)" fill="#fff" stroke-width="0"/><ellipse rx="1.64022" ry="1.968264" transform="matrix(.663113 0 0 0.516155 8.337192 123.596962)" fill="#fff" stroke-width="0"/><ellipse rx="1.64022" ry="1.968264" transform="matrix(.663113 0 0 0.516155 172.336971 39.811621)" fill="#fff" stroke-width="0"/><ellipse rx="1.64022" ry="1.968264" transform="matrix(.663113 0 0 0.516155 31.811167 81.44877)" fill="#fff" stroke-width="0"/><ellipse rx="1.64022" ry="1.968264" transform="matrix(.663113 0 0 0.516155 91.267788 37.779762)" fill="#fff" stroke-width="0"/><ellipse rx="1.64022" ry="1.968264" transform="matrix(.663113 0 0 0.516155 22.937332 35.747904)" fill="#fff" stroke-width="0"/><ellipse rx="1.64022" ry="1.968264" transform="matrix(.415487 0 0 0.32341 53.17253 21.028663)" fill="#fff" stroke-width="0"/><ellipse rx="1.64022" ry="1.968264" transform="matrix(.415487 0 0 0.32341 55.198996 51.492121)" fill="#fff" stroke-width="0"/><ellipse rx="1.64022" ry="1.968264" transform="matrix(.415487 0 0 0.32341 93.036929 83.101255)" fill="#fff" stroke-width="0"/><ellipse rx="1.64022" ry="1.968264" transform="matrix(.415487 0 0 0.32341 48.802886 122.703223)" fill="#fff" stroke-width="0"/><ellipse rx="1.64022" ry="1.968264" transform="matrix(.415487 0 0 0.32341 42.925787 150.672371)" fill="#fff" stroke-width="0"/><ellipse rx="1.64022" ry="1.968264" transform="matrix(.415487 0 0 0.32341 28.795121 171.91042)" fill="#fff" stroke-width="0"/><ellipse rx="1.64022" ry="1.968264" transform="matrix(.415487 0 0 0.32341 69.18661 202.749204)" fill="#fff" stroke-width="0"/><ellipse rx="1.64022" ry="1.968264" transform="matrix(.415487 0 0 0.32341 201.752546 168.605449)" fill="#fff" stroke-width="0"/><ellipse rx="1.64022" ry="1.968264" transform="matrix(.415487 0 0 0.32341 207.355052 182.519209)" fill="#fff" stroke-width="0"/><ellipse rx="1.64022" ry="1.968264" transform="matrix(.415487 0 0 0.32341 208.718032 223.88853)" fill="#fff" stroke-width="0"/><ellipse rx="1.64022" ry="1.968264" transform="matrix(.415487 0 0 0.32341 260.858807 263.954855)" fill="#fff" stroke-width="0"/><ellipse rx="1.64022" ry="1.968264" transform="matrix(.415487 0 0 0.32341 352.444999 287.935196)" fill="#fff" stroke-width="0"/><ellipse rx="1.64022" ry="1.968264" transform="matrix(.415487 0 0 0.32341 348.403092 269.195442)" fill="#fff" stroke-width="0"/><ellipse rx="1.64022" ry="1.968264" transform="matrix(.415487 0 0 0.32341 369.687201 277.325188)" fill="#fff" stroke-width="0"/><ellipse rx="1.64022" ry="1.968264" transform="matrix(.415487 0 0 0.32341 215.826243 157.411529)" fill="#fff" stroke-width="0"/><ellipse rx="1.64022" ry="1.968264" transform="matrix(.415487 0 0 0.32341 43.607277 225.161642)" fill="#fff" stroke-width="0"/><ellipse rx="1.64022" ry="1.968264" transform="matrix(.415487 0 0 0.32341 53.17253 256.855717)" fill="#fff" stroke-width="0"/><ellipse rx="1.64022" ry="1.968264" transform="matrix(.415487 0 0 0.32341 36.179258 338.24524)" fill="#fff" stroke-width="0"/><ellipse rx="1.64022" ry="1.968264" transform="matrix(.415487 0 0 0.32341 53.85402 339.518352)" fill="#fff" stroke-width="0"/><ellipse rx="1.64022" ry="1.968264" transform="matrix(.415487 0 0 0.32341 52.341168 335.777507)" fill="#fff" stroke-width="0"/><ellipse rx="1.64022" ry="1.968264" transform="matrix(.415487 0 0 0.32341 17.887751 398.220066)" fill="#fff" stroke-width="0"/><ellipse rx="1.64022" ry="1.968264" transform="matrix(.415487 0 0 0.32341 21.168191 448.574583)" fill="#fff" stroke-width="0"/><ellipse rx="1.64022" ry="1.968264" transform="matrix(.415487 0 0 0.32341 19.805211 443.494583)" fill="#fff" stroke-width="0"/><ellipse rx="1.64022" ry="1.968264" transform="matrix(.415487 0 0 0.32341 25.685211 442.858027)" fill="#fff" stroke-width="0"/><ellipse rx="1.64022" ry="1.968264" transform="matrix(.415487 0 0 0.32341 62.216646 248.426773)" fill="#fff" stroke-width="0"/><ellipse rx="1.64022" ry="1.968264" transform="matrix(.415487 0 0 0.32341 154.612513 294.306487)" fill="#fff" stroke-width="0"/><ellipse rx="1.64022" ry="1.968264" transform="matrix(.415487 0 0 0.32341 93.718419 309.683615)" fill="#fff" stroke-width="0"/><ellipse rx="1.64022" ry="1.968264" transform="matrix(.415487 0 0 0.32341 122.660134 360.66942)" fill="#fff" stroke-width="0"/><ellipse rx="1.64022" ry="1.968264" transform="matrix(.415487 0 0 0.32341 156.689281 380.151079)" fill="#fff" stroke-width="0"/><ellipse rx="1.64022" ry="1.968264" transform="matrix(.415487 0 0 0.32341 214.463263 331.440281)" fill="#fff" stroke-width="0"/><ellipse rx="1.64022" ry="1.968264" transform="matrix(.415487 0 0 0.32341 370.368691 368.151112)" fill="#fff" stroke-width="0"/><ellipse rx="1.64022" ry="1.968264" transform="matrix(.415487 0 0 0.32341 379.26461 431.907852)" fill="#fff" stroke-width="0"/><ellipse rx="1.64022" ry="1.968264" transform="matrix(.415487 0 0 0.32341 313.421623 25.488079)" fill="#fff" stroke-width="0"/><ellipse rx="1.64022" ry="1.968264" transform="matrix(.415487 0 0 0.32341 314.103113 27.989031)" fill="#fff" stroke-width="0"/><ellipse rx="1.64022" ry="1.968264" transform="matrix(.415487 0 0 0.32341 313.421623 30.809031)" fill="#fff" stroke-width="0"/><ellipse rx="1.64022" ry="1.968264" transform="matrix(.415487 0 0 0.32341 249.833348 96.240626)" fill="#fff" stroke-width="0"/><ellipse rx="1.64022" ry="1.968264" transform="matrix(.415487 0 0 0.32341 269.859922 35.747904)" fill="#fff" stroke-width="0"/><ellipse rx="1.64022" ry="1.968264" transform="matrix(.415487 0 0 0.32341 286.325111 97.513738)" fill="#fff" stroke-width="0"/><ellipse rx="1.64022" ry="1.968264" transform="matrix(.415487 0 0 0.32341 279.204889 127.297631)" fill="#fff" stroke-width="0"/><ellipse rx="1.64022" ry="1.968264" transform="matrix(.415487 0 0 0.32341 337.752342 124.612891)" fill="#fff" stroke-width="0"/><ellipse rx="1.64022" ry="1.968264" transform="matrix(.415487 0 0 0.32341 339.115322 123.976335)" fill="#fff" stroke-width="0"/><ellipse rx="1.64022" ry="1.968264" transform="matrix(.415487 0 0 0.32341 339.115322 125.765574)" fill="#fff" stroke-width="0"/><ellipse rx="1.64022" ry="1.968264" transform="matrix(.415487 0 0 0.32341 81.347787 64.707709)" fill="#fff" stroke-width="0"/></g></svg>
