<svg width="40" height="40" viewBox="0 0 40 40" fill="none" xmlns="http://www.w3.org/2000/svg">
<path fill-rule="evenodd" clip-rule="evenodd" d="M16.9654 31.3089C18.5941 31.4628 22.144 31.6782 23.3136 31.3089C24.5887 30.9062 26.9465 29.6842 27.4775 28.7402C30.1774 28.8015 32.5208 29.076 31.2874 30.3043C31.1252 30.4153 30.9737 30.5361 30.8161 30.6617C29.6673 31.5777 28.1933 32.753 19.8659 32.277C18.5986 32.277 11.031 31.4682 10.0522 31.2994C9.33019 31.1748 10.9619 31.1241 13.0206 31.0601C13.429 31.0474 13.8542 31.0342 14.2812 31.0198L16.9654 31.3089Z" fill="#B5B5B5"/>
<path d="M28.5634 19.5796C28.5634 19.7674 28.5835 19.9364 28.4629 20.0679C28.4428 20.0867 28.3223 20.2182 28.1415 20.2182C28.0008 20.2182 27.6088 19.764 27.4785 20.3084C27.3482 20.8528 27.6758 28.3375 27.4785 28.6068C27.2294 29.2745 26.6914 29.7987 26.0284 30.1743C25.2047 30.6438 24.1547 30.9718 23.068 31.3143" stroke="#B5B5B5" stroke-width="0.8" stroke-miterlimit="10"/>
<path d="M19.0686 25.1384C19.2382 25.5875 19.436 26.4857 18.8708 26.7235C18.4186 26.9084 17.8252 26.6971 17.5709 26.4065C17.2883 26.0895 17.3165 25.7196 17.26 25.4554M19.0686 25.1384C19.0969 25.1384 19.0403 25.1913 19.0686 25.1384Z" stroke="#B5B5B5" stroke-width="0.8" stroke-miterlimit="10"/>
<path d="M11.5353 25.041C11.6149 25.3693 11.8047 26.1141 11.6719 26.4205C11.5392 26.727 11.1143 26.9896 10.7426 26.8583C10.5037 26.7707 10.3709 26.5956 10.2647 26.3986C10.0523 26.0265 9.91956 25.7201 9.86646 25.3261" stroke="#B5B5B5" stroke-width="0.8" stroke-miterlimit="10"/>
<path d="M14.741 9.85083C15.9464 9.92596 18.0359 9.92596 19.2212 10.095" stroke="#B5B5B5" stroke-width="0.8" stroke-miterlimit="10"/>
<path d="M23.0571 11.2151C23.0403 10.8959 23.0147 10.6034 23.1151 10.3184C23.233 10.0554 23.2415 10.0258 23.4603 9.85675C24.0495 9.40599 24.7743 9.24308 25.4309 9.59993C25.8349 9.80652 26.4948 10.8823 26.5622 11.4458" stroke="#B5B5B5" stroke-width="0.8" stroke-miterlimit="10"/>
<path d="M10.522 11.222C10.6425 8.66772 10.8836 9.08091 12.0288 8.40478C13.174 7.72865 14.5402 7.63474 15.8863 7.61596C18.0561 7.5784 20.246 7.6723 22.4158 7.89768C24.3446 8.10428 25.8095 8.18217 27.0038 9.56922C27.5784 10.089 27.969 12.3729 27.969 12.3729C27.969 12.3729 28.889 18.5279 28.8689 19.5797C28.8689 19.8051 28.5235 20.1431 28.3025 20.1995C28.0212 20.2746 27.5831 20.4531 27.5831 20.4531C27.2215 17.8989 27.097 14.9272 26.7354 12.3729C26.655 11.8658 26.5948 11.3399 26.3135 10.8892C25.9117 10.2318 25.0879 9.43775 24.3245 9.56922C23.561 9.70069 23.026 10.039 22.8652 10.5649" stroke="#B5B5B5" stroke-width="0.8" stroke-miterlimit="10"/>
<path d="M23.6415 26.8106C23.2196 21.5706 23.5612 16.3118 23.0388 10.79" stroke="#B5B5B5" stroke-width="0.8" stroke-miterlimit="10"/>
<path d="M9.51731 25.2893C9.51731 28.2943 9.21594 29.8156 9.3164 30.3227C9.35658 30.5293 9.51218 30.9277 10.4199 30.9932C11.4751 31.0694 10.9036 31.0176 12.2698 31.1303C12.2698 31.1303 17.6086 31.4902 20.5349 31.4902C21.5059 31.4902 23.5001 31.4997 23.5981 30.9049C23.6961 30.3102 23.639 27.5428 23.5981 26.6278" stroke="#B5B5B5" stroke-width="0.8" stroke-miterlimit="10"/>
<path d="M19.2191 25.3644C19.4195 25.2517 20.3304 24.4441 20.5308 24.1248C20.9499 23.4299 20.7859 22.4345 20.7495 22.1528C20.5308 20.2183 20.3487 16.9879 20.5308 14.6778C20.7313 12.2738 21.7333 11.0869 22.8264 11.0118C22.9357 11.0118 22.8181 10.6663 22.8909 10.7827L23.3001 10.0164L20.877 11.3723C20.877 11.3723 19.2738 11.654 19.2555 15.5417C19.2373 18.2087 19.456 20.8944 19.5835 22.303C19.6564 22.9979 19.547 23.6741 19.2738 24.3126L19.0005 24.9324L19.2191 25.3644Z" fill="#B5B5B5"/>
<path d="M16.3082 9.92603C15.826 10.2077 15.1027 10.6961 14.5804 11.5224C14.1786 12.1798 13.0094 12.9768 12.77 16.7385C12.4762 21.3549 13.2348 24.358 12.2699 24.8948C12.0891 25.0638 11.3457 25.2704 10.9238 25.4395C12.3503 24.6319 11.6471 23.2233 11.6471 22.0964C11.6471 21.0258 11.7275 20.1431 12.3704 16.1614C12.8325 13.4194 13.0133 12.4427 13.4553 11.7478C13.616 11.5037 13.7767 11.3346 13.8169 11.2971C14.6206 10.4143 15.6653 10.0575 16.3082 9.92603Z" fill="#B5B5B5"/>
<path d="M15.2434 9.90723L16.1274 9.94479C16.047 9.94479 15.4644 10.0575 14.4799 10.8087C13.5356 11.5224 12.5512 14.2269 12.3302 16.631C12.1092 18.9411 11.9284 21.0258 12.3302 22.6222C12.3905 22.8852 12.6316 23.7491 12.1695 24.444C11.9485 24.7821 11.627 24.9699 11.406 25.0826C11.406 25.0826 12.0489 23.9933 11.848 22.4532C11.6471 20.9131 11.3859 17.7954 12.069 14.6214C12.7521 11.5224 13.5557 10.8087 15.2434 9.90723Z" fill="#B5B5B5"/>
<path d="M14.9822 9.86979C13.6562 10.4896 12.732 11.9357 12.3101 13.3068C11.8882 14.6778 11.4775 16.0923 11.406 17.863C11.406 19.7224 11.4663 21.3264 11.7878 23.2046C11.9083 23.8807 11.9083 24.5756 11.406 25.0452C10.7028 25.7401 9.11566 25.5335 8.77411 24.632C8.47275 23.8056 8.48767 22.7618 8.48767 21.7852C8.48767 18.9867 8.55311 16.2555 9.43711 13.5885C9.6983 12.7997 10.2809 11.2033 11.3257 10.3581C11.848 9.90735 13.2142 9.71954 14.9822 9.86979Z" stroke="#B5B5B5" stroke-width="0.8" stroke-miterlimit="10"/>
<path d="M18.6787 25.2328C18.8997 25.1201 19.7435 24.444 19.9846 24.1059C20.4467 23.411 20.2659 22.4156 20.2257 22.1338C19.9645 20.2181 19.7636 16.9877 19.9846 14.6776C20.2056 12.2736 21.3106 11.1467 22.5161 11.0716C22.6366 11.0716 22.9983 11.0904 23.0786 11.1092L22.9983 10.3579C22.5563 10.3579 21.9334 10.433 21.3709 10.7899C20.6275 11.2406 20.1052 12.0482 19.7837 14.3208C19.5024 16.3116 19.2011 18.3212 19.7234 20.9131C19.9043 21.8709 20.2458 23.0917 19.5627 24.2749C19.2814 24.7257 18.9399 25.045 18.6787 25.2328Z" fill="#B5B5B5"/>
<path d="M21.7529 10.5082C20.2461 11.2406 19.7036 13.1376 19.563 14.7152C19.3822 16.8938 19.4223 19.0913 19.6835 21.2511C19.7639 21.9648 19.8844 22.6973 19.784 23.411C19.6835 24.1247 19.3219 24.8384 18.6589 25.2328C17.9959 25.6272 17.0315 25.5521 16.5694 24.9698C16.3685 24.7257 16.2881 24.4064 16.2078 24.0871C15.4242 20.8943 15.3439 17.5512 15.9868 14.3396C16.2681 12.9685 16.7101 11.5411 17.795 10.6021C18.8799 9.663 20.2894 10.2807 22.1579 10.5436" stroke="#B5B5B5" stroke-width="0.8" stroke-miterlimit="10"/>
<path d="M21.7729 10.4895C22.1547 10.6397 23.0387 10.4144 23.2999 9.94482" stroke="#B5B5B5" stroke-width="0.8" stroke-miterlimit="10"/>
</svg>
