<svg width="40" height="40" viewBox="0 0 40 40" fill="none" xmlns="http://www.w3.org/2000/svg">
<path fill-rule="evenodd" clip-rule="evenodd" d="M16.9653 31.3089C18.5941 31.4628 22.1439 31.6782 23.3135 31.3089C24.5886 30.9062 26.9464 29.6842 27.4775 28.7402C30.1774 28.8015 32.5207 29.076 31.2873 30.3043C31.1251 30.4153 30.9736 30.5361 30.816 30.6617C29.6672 31.5777 28.1932 32.753 19.8658 32.277C18.5985 32.277 11.0309 31.4682 10.0522 31.2994C9.3301 31.1748 10.9619 31.1241 13.0206 31.0601C13.4289 31.0474 13.8541 31.0342 14.2811 31.0198L16.9653 31.3089Z" fill="#0000EF"/>
<path d="M28.5634 19.5796C28.5634 19.7674 28.5835 19.9364 28.463 20.0679C28.4429 20.0867 28.3224 20.2182 28.1415 20.2182C28.0009 20.2182 27.6088 19.764 27.4785 20.3084C27.3482 20.8528 27.6759 28.3375 27.4785 28.6068C27.2295 29.2745 26.6915 29.7987 26.0285 30.1743C25.2048 30.6438 24.1547 30.9718 23.068 31.3143" stroke="#0000EF" stroke-width="0.8" stroke-miterlimit="10"/>
<path d="M19.0685 25.1384C19.238 25.5875 19.4358 26.4857 18.8706 26.7235C18.4185 26.9084 17.825 26.6971 17.5707 26.4065C17.2881 26.0895 17.3164 25.7196 17.2599 25.4554M19.0685 25.1384C19.0967 25.1384 19.0402 25.1913 19.0685 25.1384Z" stroke="#0000EF" stroke-width="0.8" stroke-miterlimit="10"/>
<path d="M11.5353 25.041C11.6149 25.3693 11.8047 26.1141 11.6719 26.4205C11.5392 26.727 11.1144 26.9896 10.7427 26.8583C10.5037 26.7707 10.371 26.5956 10.2647 26.3986C10.0523 26.0265 9.91959 25.7201 9.86649 25.3261" stroke="#0000EF" stroke-width="0.8" stroke-miterlimit="10"/>
<path d="M14.741 9.85083C15.9465 9.92596 18.0359 9.92596 19.2213 10.095" stroke="#0000EF" stroke-width="0.8" stroke-miterlimit="10"/>
<path d="M23.0572 11.2151C23.0403 10.8959 23.0148 10.6034 23.1152 10.3184C23.233 10.0554 23.2415 10.0258 23.4604 9.85675C24.0496 9.40599 24.7744 9.24308 25.4309 9.59993C25.835 9.80652 26.4949 10.8823 26.5622 11.4458" stroke="#0000EF" stroke-width="0.8" stroke-miterlimit="10"/>
<path d="M10.522 11.222C10.6426 8.66772 10.8837 9.08091 12.0288 8.40478C13.174 7.72865 14.5402 7.63474 15.8863 7.61596C18.0561 7.5784 20.2461 7.6723 22.4159 7.89768C24.3446 8.10428 25.8095 8.18217 27.0038 9.56922C27.5785 10.089 27.969 12.3729 27.969 12.3729C27.969 12.3729 28.8891 18.5279 28.869 19.5797C28.869 19.8051 28.5235 20.1431 28.3025 20.1995C28.0213 20.2746 27.5831 20.4531 27.5831 20.4531C27.2215 17.8989 27.0971 14.9272 26.7354 12.3729C26.6551 11.8658 26.5948 11.3399 26.3135 10.8892C25.9117 10.2318 25.088 9.43775 24.3245 9.56922C23.5611 9.70069 23.026 10.039 22.8653 10.5649" stroke="#0000EF" stroke-width="0.8" stroke-miterlimit="10"/>
<path d="M23.6415 26.8106C23.2196 21.5706 23.5611 16.3118 23.0388 10.79" stroke="#0000EF" stroke-width="0.8" stroke-miterlimit="10"/>
<path d="M9.51739 25.2893C9.51739 28.2943 9.21602 29.8156 9.31648 30.3227C9.35666 30.5293 9.51226 30.9277 10.42 30.9932C11.4752 31.0694 10.9037 31.0176 12.2698 31.1303C12.2698 31.1303 17.6087 31.4902 20.535 31.4902C21.506 31.4902 23.5002 31.4997 23.5982 30.9049C23.6962 30.3102 23.639 27.5428 23.5982 26.6278" stroke="#0000EF" stroke-width="0.8" stroke-miterlimit="10"/>
<path d="M19.219 25.3644C19.4194 25.2517 20.3304 24.4441 20.5308 24.1248C20.9498 23.4299 20.7858 22.4345 20.7494 22.1528C20.5308 20.2183 20.3486 16.9879 20.5308 14.6778C20.7312 12.2738 21.7332 11.0869 22.8263 11.0118C22.9356 11.0118 22.818 10.6663 22.8908 10.7827L23.3 10.0164L20.8769 11.3723C20.8769 11.3723 19.2737 11.654 19.2555 15.5417C19.2372 18.2087 19.4559 20.8944 19.5834 22.303C19.6563 22.9979 19.547 23.6741 19.2737 24.3126L19.0004 24.9324L19.219 25.3644Z" fill="#0000EF"/>
<path d="M16.308 9.92603C15.8259 10.2077 15.1026 10.6961 14.5802 11.5224C14.1784 12.1798 13.0093 12.9768 12.7699 16.7385C12.4761 21.3549 13.2346 24.358 12.2698 24.8948C12.089 25.0638 11.3456 25.2704 10.9237 25.4395C12.3501 24.6319 11.6469 23.2233 11.6469 22.0964C11.6469 21.0258 11.7273 20.1431 12.3702 16.1614C12.8323 13.4194 13.0131 12.4427 13.4551 11.7478C13.6159 11.5037 13.7766 11.3346 13.8168 11.2971C14.6204 10.4143 15.6651 10.0575 16.308 9.92603Z" fill="#0000EF"/>
<path d="M15.2432 9.90723L16.1272 9.94479C16.0469 9.94479 15.4642 10.0575 14.4798 10.8087C13.5355 11.5224 12.5511 14.2269 12.3301 16.631C12.1091 18.9411 11.9282 21.0258 12.3301 22.6222C12.3903 22.8852 12.6314 23.7491 12.1693 24.444C11.9483 24.7821 11.6269 24.9699 11.4059 25.0826C11.4059 25.0826 12.0488 23.9933 11.8479 22.4532C11.647 20.9131 11.3858 17.7954 12.0689 14.6214C12.752 11.5224 13.5556 10.8087 15.2432 9.90723Z" fill="#0000EF"/>
<path d="M14.9822 9.86979C13.6562 10.4896 12.732 11.9357 12.3101 13.3068C11.8882 14.6778 11.4775 16.0923 11.406 17.863C11.406 19.7224 11.4663 21.3264 11.7877 23.2046C11.9083 23.8807 11.9083 24.5756 11.406 25.0452C10.7028 25.7401 9.11561 25.5335 8.77407 24.632C8.4727 23.8056 8.48762 22.7618 8.48762 21.7852C8.48762 18.9867 8.55307 16.2555 9.43707 13.5885C9.69825 12.7997 10.2809 11.2033 11.3256 10.3581C11.848 9.90735 13.2142 9.71954 14.9822 9.86979Z" stroke="#0000EF" stroke-width="0.8" stroke-miterlimit="10"/>
<path d="M18.6788 25.2328C18.8998 25.1201 19.7436 24.444 19.9847 24.1059C20.4468 23.411 20.266 22.4156 20.2258 22.1338C19.9646 20.2181 19.7637 16.9877 19.9847 14.6776C20.2057 12.2736 21.3107 11.1467 22.5161 11.0716C22.6367 11.0716 22.9983 11.0904 23.0787 11.1092L22.9983 10.3579C22.5563 10.3579 21.9335 10.433 21.371 10.7899C20.6276 11.2406 20.1052 12.0482 19.7838 14.3208C19.5025 16.3116 19.2011 18.3212 19.7235 20.9131C19.9043 21.8709 20.2459 23.0917 19.5628 24.2749C19.2815 24.7257 18.94 25.045 18.6788 25.2328Z" fill="#0000EF"/>
<path d="M21.7527 10.5082C20.2459 11.2406 19.7035 13.1376 19.5628 14.7152C19.382 16.8938 19.4222 19.0913 19.6834 21.2511C19.7637 21.9648 19.8843 22.6973 19.7838 23.411C19.6834 24.1247 19.3217 24.8384 18.6587 25.2328C17.9957 25.6272 17.0314 25.5521 16.5693 24.9698C16.3684 24.7257 16.288 24.4064 16.2076 24.0871C15.4241 20.8943 15.3437 17.5512 15.9866 14.3396C16.2679 12.9685 16.7099 11.5411 17.7948 10.6021C18.8797 9.663 20.2893 10.2807 22.1577 10.5436" stroke="#0000EF" stroke-width="0.8" stroke-miterlimit="10"/>
<path d="M21.7729 10.4895C22.1547 10.6397 23.0387 10.4144 23.2999 9.94482" stroke="#0000EF" stroke-width="0.8" stroke-miterlimit="10"/>
</svg>
