<svg width="225" height="413" viewBox="0 0 225 413" fill="none" xmlns="http://www.w3.org/2000/svg">
<path d="M6.61487e-06 197.75C6.76366e-06 194.346 0.11956 190.982 0.358619 187.818L1.51406 187.898C1.19532 192.303 1.11565 196.909 1.23517 201.795L0.0797031 201.835C0.0398625 200.433 6.5571e-06 199.071 6.61487e-06 197.75ZM0.318762 207.681L1.47423 207.601C1.75313 212.046 2.19141 216.692 2.78907 221.497L1.63361 221.658C0.996115 216.812 0.557822 212.127 0.318762 207.681ZM0.916404 181.971C1.51406 177.126 2.43047 172.48 3.58595 168.195L4.70156 168.516C3.54609 172.721 2.62969 177.326 2.07189 182.132L0.916404 181.971ZM2.55001 227.424L3.70546 227.184C4.62186 231.749 5.97655 236.154 7.76952 240.359L6.69373 240.8C4.86092 236.555 3.46642 232.03 2.55001 227.424ZM5.3789 162.629C7.01249 158.064 9.08436 153.819 11.475 149.974L12.4711 150.615C10.1203 154.379 8.08827 158.544 6.49451 163.029L5.3789 162.629ZM9.20391 246.086L10.2398 245.525C12.3515 249.49 14.9414 253.334 17.9296 256.979L17.0132 257.699C13.9851 254.015 11.3555 250.091 9.20391 246.086ZM14.8218 145.209C17.6906 141.524 21.0375 138.201 24.7828 135.357L25.4999 136.278C21.8343 139.082 18.5671 142.325 15.7382 145.93L14.8218 145.209ZM20.8382 262.145L21.675 261.344C24.6632 264.547 28.0898 267.711 31.8749 270.715L31.1577 271.636C27.3726 268.592 23.8663 265.388 20.8382 262.145ZM29.6038 131.993C33.389 129.631 37.6523 127.588 42.1944 125.866L42.5929 126.948C38.0905 128.629 33.9069 130.632 30.2015 132.955L29.6038 131.993ZM35.7796 275.16L36.4569 274.199C39.9632 276.762 43.8679 279.325 48.0514 281.807L47.4538 282.809C43.2702 280.326 39.3257 277.763 35.7796 275.16ZM47.7725 124.064C51.996 122.823 56.578 121.822 61.4389 121.061L61.5983 122.222C56.7772 122.983 52.235 123.984 48.0913 125.185L47.7725 124.064ZM52.5139 285.732L53.0717 284.731C56.8967 286.853 60.9608 288.936 65.4233 291.138L64.9053 292.18C60.4428 289.977 56.3787 287.895 52.5139 285.732ZM67.2162 120.3C71.599 119.819 76.1412 119.499 81.1615 119.339L81.2013 120.5C76.2209 120.66 71.7186 120.981 67.3756 121.461L67.2162 120.3ZM70.1647 294.622L70.6428 293.581C74.5474 295.383 78.6912 297.225 83.3529 299.188L82.9146 300.269C78.2529 298.307 74.1092 296.465 70.1647 294.622ZM86.9388 119.179C87.6959 119.179 88.413 119.179 89.1701 119.179C92.7958 119.179 96.6208 119.259 100.884 119.379L100.844 120.54C96.581 120.38 92.756 120.34 89.1701 120.34C88.4529 120.34 87.6958 120.34 86.9787 120.34L86.9388 119.179ZM88.2935 302.512L88.7318 301.43C92.4372 302.952 96.4216 304.594 101.641 306.676L101.203 307.758C95.9833 305.675 91.999 304.073 88.2935 302.512ZM106.622 309.92L107.06 308.839L108.933 309.56C112.638 311.041 116.343 312.483 120.009 313.965L119.571 315.046C115.905 313.564 112.2 312.083 108.494 310.641L106.622 309.92ZM106.622 120.78L106.661 119.619C109.929 119.779 113.156 119.939 116.304 120.1L120.527 120.3L120.487 121.461L116.224 121.261C113.116 121.101 109.889 120.941 106.622 120.78ZM124.91 317.249L125.348 316.167C130.129 318.13 134.353 319.892 138.218 321.574L137.739 322.655C133.914 320.973 129.731 319.211 124.91 317.249ZM126.304 121.741L126.344 120.58C130.647 120.74 134.034 120.86 137.022 120.86L137.7 120.86C138.536 120.86 139.373 120.86 140.21 120.82L140.21 121.982C139.333 121.982 138.496 121.982 137.66 122.022L136.982 122.022C134.034 121.982 130.607 121.902 126.304 121.741ZM143.079 324.978L143.557 323.896C148.139 325.979 152.243 327.941 156.147 329.903L155.629 330.945C151.725 329.022 147.621 327.06 143.079 324.978ZM146.027 120.66C151.286 120.42 155.749 119.819 159.733 118.898L160.012 120.019C155.988 120.941 151.446 121.541 146.107 121.782L146.027 120.66ZM160.729 333.668L161.287 332.627C163.638 333.908 165.909 335.15 168.021 336.431C169.734 337.432 171.487 338.393 173.479 339.354L172.961 340.396C170.969 339.435 169.136 338.473 167.423 337.432C165.311 336.191 163.08 334.909 160.729 333.668ZM160.889 0.680793L161.845 -2.7606e-06C164.873 4.24493 167.343 7.96926 169.614 11.6535L168.618 12.2542C166.347 8.61001 163.917 4.92573 160.889 0.680793ZM165.192 117.296C169.853 115.614 173.718 113.212 176.746 110.208L177.583 111.049C174.435 114.173 170.411 116.656 165.63 118.418L165.192 117.296ZM171.607 17.2601L172.603 16.6994C174.993 20.8642 177.145 25.0691 178.978 29.1939L177.902 29.6745C176.069 25.5897 173.957 21.4249 171.607 17.2601ZM178.26 342.758L178.699 341.677C180.81 342.558 182.962 343.439 185.074 344.28C187.225 345.121 189.417 346.002 191.608 346.923L191.17 348.004C189.018 347.083 186.827 346.202 184.675 345.361C182.524 344.52 180.412 343.679 178.26 342.758ZM180.133 35.0007L181.209 34.5602C182.962 39.0053 184.396 43.4905 185.512 47.9357L184.396 48.216C183.321 43.851 181.886 39.4058 180.133 35.0007ZM180.292 105.763C181.767 103.44 182.962 100.757 183.799 97.8738C184.277 96.2318 184.715 94.5899 185.074 92.948L186.189 93.2283C185.791 94.8702 185.392 96.5522 184.914 98.1941C184.038 101.198 182.842 103.961 181.289 106.404L180.292 105.763ZM185.671 53.8626L186.827 53.6223C187.743 58.2677 188.301 62.9532 188.5 67.5585L187.345 67.5986C187.146 63.0733 186.588 58.4279 185.671 53.8626ZM186.189 87.2614C186.946 82.6961 187.385 78.0507 187.464 73.4454L188.62 73.4454C188.54 78.0908 188.102 82.8162 187.345 87.4216L186.189 87.2614ZM196.429 350.407L196.947 349.366C200.573 351.128 203.72 352.97 206.47 355.013C207.267 355.573 208.024 356.214 208.781 356.935L207.984 357.776C207.267 357.095 206.51 356.494 205.792 355.974C203.083 353.971 200.015 352.169 196.429 350.407ZM211.769 362.021L212.685 361.34C215.195 364.744 217.427 368.909 219.299 373.794L218.224 374.195C216.391 369.429 214.239 365.345 211.769 362.021ZM220.096 379.641L221.212 379.321C222.527 383.686 223.483 388.291 224.16 393.057L223.005 393.217C222.327 388.532 221.371 383.966 220.096 379.641ZM223.483 412.88C223.921 408.675 223.961 403.909 223.602 399.024L224.758 398.944C225.117 403.909 225.077 408.755 224.638 413L223.483 412.88Z" fill="#3DB5C9"/>
</svg>
