<svg width="21" height="21" viewBox="0 0 21 21" fill="none" xmlns="http://www.w3.org/2000/svg">
<path d="M1.94264 18.6772C1.86985 19.6577 2.07814 19.924 2.29514 19.9832C2.56638 20.0571 18.8436 19.8739 19.2125 19.7038C19.5814 19.5338 19.8368 19.4204 19.922 18.9103" stroke="#0000EF" stroke-width="1.15461" stroke-miterlimit="10"/>
<path d="M2.09958 10.6523C2.02912 11.7407 2.23074 12.0363 2.44078 12.102C2.70333 12.184 18.459 11.9806 18.8161 11.7919C19.1732 11.6031 19.4204 11.4773 19.5028 10.911" stroke="#0000EF" stroke-width="1.15461" stroke-miterlimit="10"/>
<path d="M18.3104 4.8107L2.50557 4.97237C1.91554 4.9784 1.42028 4.84937 1.40086 4.68017C1.45408 4.18322 1.42619 3.8348 1.44985 3.04515C1.46718 2.46668 1.54258 2.17271 1.62075 1.59826C1.61832 1.57712 1.61405 1.47129 1.91088 1.38121C2.10136 1.32515 2.35692 1.28724 2.65587 1.28419C4.60935 1.21715 6.09292 1.16204 8.25472 1.12581C11.289 1.0736 14.7383 1.04389 17.3949 1.06377C18.623 1.06998 19.0996 1.10509 19.2856 1.21612C19.4464 1.31329 19.4607 1.43783 19.4482 1.46619C19.4771 2.47282 19.3166 3.48999 19.3455 4.49662C19.357 4.6659 18.9004 4.80467 18.3104 4.8107Z" fill="white" stroke="#0000EF" stroke-width="1.15461" stroke-miterlimit="10"/>
<path d="M2.90559 7.53645L18.3323 7.4836C18.9082 7.48163 19.3813 7.62218 19.3873 7.80175C19.2972 8.32835 19.4174 8.94083 19.4447 9.53187C19.4632 10.0905 19.481 10.6275 19.4957 11.0713C19.4965 11.0938 19.4925 11.206 19.1961 11.2994C19.006 11.3574 18.7539 11.3956 18.4621 11.3966C16.5517 11.4531 14.5411 11.4974 12.4299 11.5196C9.46664 11.5522 6.10026 11.5578 3.51085 11.5168C2.87301 11.504 2.41088 11.4632 2.23798 11.3441C2.08861 11.2398 2.08422 11.1076 2.09859 11.0776C2.14766 10.0099 1.82287 8.92946 1.87194 7.86175C1.87367 7.68216 2.32968 7.53842 2.90559 7.53645Z" fill="white" stroke="#0000EF" stroke-width="1.15461" stroke-miterlimit="10"/>
<path d="M2.77537 14.9114L18.7756 14.8542C19.3729 14.8521 19.8637 15.0073 19.87 15.2056C19.777 15.7871 19.902 16.4635 19.9307 17.1161C19.9503 17.733 19.9691 18.326 19.9847 18.8161C19.9855 18.8409 19.9815 18.9649 19.6741 19.0679C19.477 19.1319 19.2155 19.1742 18.9128 19.1753C16.9315 19.2374 14.8462 19.2862 12.6565 19.3106C9.58308 19.3463 6.09155 19.3523 3.40584 19.3068C2.74428 19.2927 2.26494 19.2476 2.08552 19.116C1.93053 19.0009 1.92589 18.8549 1.94077 18.8218C1.99094 17.6428 1.65334 16.4496 1.70351 15.2706C1.70518 15.0723 2.17805 14.9136 2.77537 14.9114Z" fill="white" stroke="#0000EF" stroke-width="1.15461" stroke-miterlimit="10"/>
</svg>
