<svg width="38" height="38" viewBox="0 0 38 38" fill="none" xmlns="http://www.w3.org/2000/svg">
<path d="M0 19C0 8.50659 8.50659 0 19 0C29.4934 0 38 8.50659 38 19C38 29.4934 29.4934 38 19 38C8.50659 38 0 29.4934 0 19Z" fill="white"/>
<mask id="mask0_13_1888" style="mask-type:luminance" maskUnits="userSpaceOnUse" x="0" y="0" width="38" height="38">
<path fill-rule="evenodd" clip-rule="evenodd" d="M0 19C0 8.50659 8.50659 0 19 0C29.4934 0 38 8.50659 38 19C38 29.4934 29.4934 38 19 38C8.50659 38 0 29.4934 0 19Z" fill="white"/>
</mask>
<g mask="url(#mask0_13_1888)">
<path fill-rule="evenodd" clip-rule="evenodd" d="M19.001 8.8667C16.2489 8.8667 15.9035 8.87873 14.8226 8.92792C13.7438 8.97732 13.0075 9.14811 12.3632 9.3987C11.6967 9.65753 11.1313 10.0038 10.5681 10.5672C10.0044 11.1305 9.65816 11.6958 9.39849 12.3621C9.14727 13.0066 8.97627 13.7432 8.92771 14.8216C8.87937 15.9025 8.8667 16.2481 8.8667 19.0001C8.8667 21.7522 8.87894 22.0965 8.92792 23.1774C8.97753 24.2562 9.14832 24.9926 9.3987 25.6369C9.65774 26.3034 10.004 26.8688 10.5674 27.432C11.1305 27.9957 11.6958 28.3427 12.3619 28.6016C13.0066 28.8522 13.7432 29.023 14.8218 29.0724C15.9027 29.1215 16.2479 29.1336 18.9997 29.1336C21.752 29.1336 22.0963 29.1215 23.1772 29.0724C24.256 29.023 24.9932 28.8522 25.638 28.6016C26.3042 28.3427 26.8688 27.9957 27.4318 27.432C27.9955 26.8688 28.3417 26.3034 28.6014 25.6371C28.8505 24.9926 29.0215 24.256 29.0721 23.1776C29.1207 22.0967 29.1334 21.7522 29.1334 19.0001C29.1334 16.2481 29.1207 15.9027 29.0721 14.8218C29.0215 13.743 28.8505 13.0066 28.6014 12.3623C28.3417 11.6958 27.9955 11.1305 27.4318 10.5672C26.8681 10.0035 26.3044 9.65732 25.6373 9.3987C24.9913 9.14811 24.2545 8.97732 23.1757 8.92792C22.0948 8.87873 21.7507 8.8667 18.9978 8.8667H19.001ZM18.092 10.6931C18.2685 10.6928 18.4584 10.6929 18.6633 10.693L19.001 10.6931C21.7066 10.6931 22.0273 10.7028 23.0958 10.7514C24.0838 10.7966 24.62 10.9617 24.9772 11.1004C25.4501 11.284 25.7873 11.5036 26.1417 11.8583C26.4964 12.2129 26.7159 12.5507 26.9 13.0236C27.0387 13.3804 27.204 13.9166 27.249 14.9046C27.2976 15.9729 27.3081 16.2938 27.3081 18.9981C27.3081 21.7025 27.2976 22.0234 27.249 23.0916C27.2038 24.0796 27.0387 24.6158 26.9 24.9726C26.7164 25.4455 26.4964 25.7822 26.1417 26.1367C25.787 26.4914 25.4503 26.7109 24.9772 26.8946C24.6204 27.0339 24.0838 27.1986 23.0958 27.2438C22.0275 27.2923 21.7066 27.3029 19.001 27.3029C16.2952 27.3029 15.9745 27.2923 14.9063 27.2438C13.9183 27.1982 13.382 27.0331 13.0246 26.8944C12.5517 26.7107 12.2139 26.4912 11.8593 26.1365C11.5046 25.7818 11.285 25.4449 11.1009 24.9718C10.9622 24.615 10.7969 24.0788 10.752 23.0908C10.7034 22.0225 10.6937 21.7016 10.6937 18.9956C10.6937 16.2895 10.7034 15.9703 10.752 14.9021C10.7972 13.9141 10.9622 13.3779 11.1009 13.0207C11.2846 12.5478 11.5046 12.21 11.8593 11.8553C12.2139 11.5006 12.5517 11.2811 13.0246 11.097C13.3818 10.9577 13.9183 10.793 14.9063 10.7476C15.8411 10.7054 16.2033 10.6927 18.092 10.6906V10.6931ZM23.1942 13.5912C23.1942 12.9197 23.7388 12.3756 24.4102 12.3756V12.3752C25.0815 12.3752 25.6262 12.9199 25.6262 13.5912C25.6262 14.2626 25.0815 14.8072 24.4102 14.8072C23.7388 14.8072 23.1942 14.2626 23.1942 13.5912ZM19.0008 13.7962C16.127 13.7963 13.7971 16.1263 13.7971 19.0001C13.7971 21.874 16.1271 24.203 19.001 24.203C21.8749 24.203 24.2041 21.874 24.2041 19.0001C24.2041 16.1262 21.8747 13.7962 19.0008 13.7962ZM22.3789 19.0001C22.3789 17.1345 20.8665 15.6223 19.0011 15.6223C17.1355 15.6223 15.6233 17.1345 15.6233 19.0001C15.6233 20.8655 17.1355 22.3779 19.0011 22.3779C20.8665 22.3779 22.3789 20.8655 22.3789 19.0001Z" fill="black"/>
</g>
</svg>
