<svg width="350" height="187" viewBox="0 0 350 187" fill="none" xmlns="http://www.w3.org/2000/svg">
<path d="M129.239 164.852C127.125 164.852 125.037 164.778 123.072 164.629L123.122 163.912C125.857 164.11 128.717 164.159 131.751 164.085L131.776 164.802C130.905 164.827 130.06 164.852 129.239 164.852ZM135.407 164.654L135.357 163.936C138.117 163.763 141.002 163.491 143.986 163.12L144.085 163.837C141.076 164.233 138.167 164.505 135.407 164.654ZM119.441 164.283C116.432 163.912 113.548 163.342 110.887 162.625L111.086 161.932C113.697 162.65 116.557 163.219 119.541 163.565L119.441 164.283ZM147.666 163.268L147.517 162.551C150.352 161.981 153.088 161.14 155.699 160.027L155.972 160.695C153.336 161.833 150.526 162.699 147.666 163.268ZM107.43 161.511C104.595 160.497 101.959 159.21 99.5717 157.725L99.9696 157.107C102.307 158.567 104.893 159.829 107.679 160.818L107.43 161.511ZM159.255 159.136L158.907 158.492C161.369 157.181 163.756 155.572 166.019 153.716L166.467 154.286C164.179 156.166 161.742 157.799 159.255 159.136ZM96.6124 155.647C94.3245 153.865 92.2605 151.786 90.4949 149.46L91.0668 149.015C92.8076 151.291 94.8219 153.32 97.06 155.077L96.6124 155.647ZM169.227 151.91L168.73 151.39C170.719 149.534 172.684 147.406 174.549 145.055L175.121 145.501C173.231 147.852 171.241 150.029 169.227 151.91ZM88.4059 146.466C86.9387 144.115 85.6704 141.467 84.6011 138.646L85.2726 138.399C86.317 141.195 87.5604 143.793 89.0028 146.095L88.4059 146.466ZM177.309 142.63L176.712 142.21C178.304 140.032 179.895 137.607 181.437 135.009L182.059 135.38C180.517 137.978 178.926 140.428 177.309 142.63ZM83.4821 135.182C82.7112 132.559 82.0895 129.713 81.617 126.694L82.3381 126.595C82.8106 129.589 83.4323 132.41 84.1784 134.984L83.4821 135.182ZM183.874 132.237L183.253 131.891C184.571 129.515 185.864 126.991 187.231 124.22L187.878 124.541C186.51 127.313 185.217 129.837 183.874 132.237ZM81.1445 123.106C80.8461 120.384 80.6471 117.563 80.5476 114.445L81.2688 114.42C81.3683 117.514 81.5672 120.31 81.8656 123.007L81.1445 123.106ZM189.395 121.275L188.748 120.978C189.868 118.553 191.011 115.979 192.23 113.084L192.901 113.356C191.683 116.252 190.539 118.825 189.395 121.275ZM80.4482 110.857C80.4482 110.387 80.4482 109.942 80.4482 109.471C80.4482 107.22 80.4979 104.844 80.5725 102.196L81.2937 102.221C81.1942 104.869 81.1693 107.244 81.1693 109.471C81.1693 109.917 81.1693 110.387 81.1693 110.832L80.4482 110.857ZM194.294 110.016L193.623 109.744C194.568 107.442 195.587 104.968 196.88 101.726L197.552 101.998C196.259 105.24 195.264 107.714 194.294 110.016ZM198.895 98.6328L198.223 98.3606L198.671 97.1976C199.591 94.8963 200.486 92.5949 201.406 90.3183L202.078 90.5905C201.158 92.8671 200.237 95.1685 199.342 97.4698L198.895 98.6328ZM81.4429 98.6328L80.7217 98.6081C80.8212 96.579 80.9207 94.5746 81.0201 92.6197L81.1445 89.9967L81.8656 90.0214L81.7413 92.6692C81.6418 94.5993 81.5424 96.6037 81.4429 98.6328ZM203.445 87.2746L202.774 87.0024C203.993 84.033 205.087 81.4099 206.131 79.0096L206.803 79.3066C205.758 81.6821 204.664 84.2804 203.445 87.2746ZM82.0397 86.4085L81.3186 86.3838C81.418 83.7113 81.4926 81.6079 81.4926 79.752V79.3313C81.4926 78.8117 81.4926 78.292 81.4678 77.7723H82.1889C82.1889 78.3167 82.1889 78.8364 82.2138 79.3561V79.7767C82.1889 81.6079 82.1392 83.736 82.0397 86.4085ZM208.245 75.9907L207.574 75.6937C208.867 72.848 210.085 70.2992 211.304 67.8741L211.95 68.1958C210.757 70.6209 209.538 73.1697 208.245 75.9907ZM81.3683 74.1595C81.2191 70.8931 80.8461 68.1216 80.2741 65.647L80.9704 65.4738C81.5424 67.9731 81.9154 70.7941 82.0646 74.11L81.3683 74.1595ZM213.641 65.0284L212.995 64.682C213.791 63.222 214.561 61.8115 215.357 60.5C215.979 59.4359 216.576 58.3471 217.173 57.1098L217.819 57.4315C217.222 58.6688 216.626 59.8071 215.979 60.8711C215.208 62.1827 214.412 63.5684 213.641 65.0284ZM6.86368 64.9294L6.44092 64.3355C9.07693 62.4549 11.3897 60.9206 13.6775 59.5101L14.0505 60.1288C11.7875 61.5393 9.49969 63.0488 6.86368 64.9294ZM79.2794 62.2569C78.2349 59.3617 76.7428 56.9614 74.8777 55.0807L75.4 54.561C77.3397 56.5159 78.8815 59.0152 79.9757 61.9847L79.2794 62.2569ZM17.159 58.2729L16.8109 57.6542C19.3972 56.1695 22.0083 54.8332 24.5697 53.6949L24.8681 54.3631C22.3316 55.5014 19.7453 56.8129 17.159 58.2729ZM219.286 54.1404L218.615 53.8682C219.162 52.5567 219.709 51.2204 220.231 49.9089C220.754 48.5726 221.301 47.2116 221.873 45.8506L222.544 46.1228C221.972 47.4591 221.425 48.8201 220.903 50.1563C220.381 51.4926 219.858 52.8041 219.286 54.1404ZM28.1756 52.9773L27.902 52.3092C30.6624 51.2204 33.4476 50.3296 36.208 49.6367L36.382 50.3296C33.6714 50.9977 30.9111 51.8885 28.1756 52.9773ZM72.1174 52.8783C70.675 51.9628 69.0089 51.2204 67.2184 50.7007C66.1988 50.4038 65.1792 50.1316 64.1596 49.9089L64.3337 49.216C65.3533 49.4635 66.3977 49.7109 67.4173 50.0079C69.2824 50.5523 70.9983 51.2946 72.5153 52.2597L72.1174 52.8783ZM39.8884 49.5377L39.7392 48.8201C42.6239 48.2509 45.5335 47.9045 48.3933 47.7808L48.4182 48.4984C45.6081 48.6221 42.7234 48.9686 39.8884 49.5377ZM60.6284 49.216C57.7934 48.7458 54.9087 48.4736 52.0489 48.4242V47.7065C54.9336 47.756 57.868 48.0282 60.7278 48.4984L60.6284 49.216ZM224.036 42.8564L223.39 42.5347C224.484 40.2829 225.628 38.328 226.896 36.6205C227.244 36.1256 227.642 35.6555 228.09 35.1853L228.612 35.6802C228.189 36.1256 227.816 36.5958 227.493 37.0412C226.249 38.7239 225.13 40.6293 224.036 42.8564ZM231.248 33.3294L230.825 32.7602C232.939 31.2013 235.525 29.8155 238.559 28.6525L238.808 29.3206C235.848 30.4589 233.312 31.7952 231.248 33.3294ZM242.19 28.1576L241.991 27.4647C244.701 26.6481 247.561 26.0542 250.521 25.6335L250.62 26.3511C247.711 26.7718 244.876 27.3657 242.19 28.1576ZM262.83 26.0542C260.219 25.782 257.26 25.7572 254.226 25.9799L254.176 25.2623C257.26 25.0396 260.269 25.0644 262.905 25.3366L262.83 26.0542Z" fill="#3DB5C9"/>
<path d="M0.39789 69.5325L0 68.9385C0.994721 68.295 2.21326 67.404 3.53126 66.4388L3.95402 67.0328C2.63601 67.998 1.39261 68.889 0.39789 69.5325Z" fill="#3DB5C9"/>
<path d="M270.465 28.1333C269.42 27.5393 268.077 27.0443 266.511 26.6731L266.685 25.9801C268.326 26.3761 269.744 26.8958 270.838 27.5146L270.465 28.1333Z" fill="#3DB5C9"/>
<path d="M231.894 132.51L162.513 94.9954C169.525 133.376 180.094 163.689 189.644 177.794C199.193 191.899 237.813 181.877 240.549 173.389C243.259 164.926 231.894 132.51 231.894 132.51Z" fill="#F16995"/>
<path d="M190.862 178.462L187.754 172.597C187.381 171.88 186.933 171.063 186.834 170.148C186.759 169.257 187.082 168.143 187.978 167.648C188.997 167.104 190.265 167.45 191.683 168.663C194.518 171.088 196.831 174.156 198.372 177.522L197.726 177.819C196.234 174.528 193.971 171.558 191.235 169.207C190.564 168.638 189.32 167.747 188.351 168.267C187.729 168.613 187.505 169.405 187.58 170.073C187.654 170.84 188.027 171.558 188.4 172.251L191.509 178.116L190.862 178.462Z" fill="#FE7EB2"/>
<path d="M185.888 166.362C185.64 164.135 184.173 162.081 182.158 161.091L182.481 160.447C184.72 161.536 186.336 163.813 186.61 166.288L185.888 166.362Z" fill="#FE7EB2"/>
<path d="M192.105 43.5741C176.14 44.5144 166.218 40.0107 159.951 41.5449C149.506 44.0937 149.705 53.5465 152.515 60.8217C157.041 72.4768 186.211 157.676 198.447 157.626C204.937 157.601 224.359 155.572 243.259 152.702C260.02 150.153 278.298 148.668 281.182 138.127C282.724 132.509 265.64 113.95 249.103 78.1931C240.573 59.7576 236.519 48.3994 228.686 44.0937C221.375 40.0849 210.731 42.4605 192.105 43.5741Z" fill="#25ACBA"/>
<path d="M229.755 146.293C239.504 144.338 249.401 143.249 259.299 142.21C266.56 141.443 274.095 140.75 281.033 138.275C281.083 138.226 281.133 138.152 281.158 138.102C284.092 133.054 268.699 107.591 252.162 71.8336C243.632 53.3982 239.578 42.04 231.745 37.7343C224.459 33.7255 213.815 36.1011 195.189 37.2146C152.615 39.7387 151.073 42.8319 155.599 54.4623C160.125 66.1174 189.295 151.316 201.53 151.267C204.042 151.267 208.518 150.945 214.138 150.401C219.236 148.668 224.483 147.332 229.755 146.293Z" fill="#53CAF1"/>
<path d="M252.36 72.2542C251.49 72.7986 250.619 73.3925 249.824 74.0606C246.989 76.362 244.726 79.2077 242.811 82.3256C240.448 86.1859 238.484 90.2937 236.793 94.5005C233.436 102.963 231.297 111.798 228.412 120.434C227.044 124.566 225.453 128.649 223.389 132.485C221.474 136.073 218.937 141.814 216.55 145.08C214.536 147.827 213.815 148.668 209.736 150.797C218.863 150.029 232.739 148.421 246.317 146.342C263.078 143.794 279.765 140.478 281.132 138.102C284.067 133.079 268.823 107.789 252.36 72.2542Z" fill="#25ACBA"/>
<path d="M198.272 42.411C161.418 44.6134 160.075 47.2612 164.004 57.3573C167.933 67.4535 193.149 141.17 203.743 141.146C209.363 141.121 226.174 139.364 242.537 136.865C257.035 134.638 271.484 131.792 272.677 129.738C275.214 125.358 261.91 103.335 247.586 72.3779C240.2 56.417 236.693 46.593 229.929 42.8812C223.588 39.3921 214.387 41.4707 198.272 42.411Z" fill="#D2F1FC"/>
<path d="M162.835 51.2701C177.557 50.107 192.254 48.6718 206.951 47.4098C215.556 46.6674 224.16 45.9003 232.764 44.9847C231.869 44.1433 230.924 43.4257 229.905 42.8813C223.588 39.4169 214.387 41.4708 198.272 42.4359C170.271 44.0939 162.761 46.0487 162.512 51.2948C162.612 51.2701 162.736 51.2701 162.835 51.2701Z" fill="white"/>
<path d="M225.85 47.1928C221.374 47.5145 168.406 53.8931 168.257 55.0562C168.107 56.2192 188.872 100.959 190.016 101.652C191.16 102.345 247.808 93.4174 248.828 91.908C249.847 90.4232 229.356 46.9206 225.85 47.1928Z" fill="#AEE6F4"/>
<path d="M181.884 79.4552C188.052 74.9763 190.887 66.6618 191.906 59.4113C191.956 59.0154 192.428 58.57 192.826 58.4958C195.164 58.0998 197.501 57.9266 199.864 57.7781C203.768 57.5307 207.747 57.4317 211.502 56.2934C212.82 55.8975 214.039 55.3283 215.158 54.6354C213.591 52.2351 212.373 50.7999 211.726 50.8494C207.25 51.1711 168.431 53.8683 168.281 55.0314C168.207 55.65 174.051 68.6414 179.721 80.742C180.442 80.3955 181.188 79.9749 181.884 79.4552Z" fill="#95D9E5"/>
<path d="M201.132 113.777C210.955 112.218 224.881 109.768 226.075 110.461C227.268 111.154 229.705 115.534 229.705 115.534L199.516 119.741L201.132 113.777Z" fill="#AEE6F4"/>
<path d="M210.159 122.463C213.367 122.216 230.849 120.236 230.849 120.236L233.087 124.492C233.087 124.492 214.785 126.818 213.84 127.189C212.895 127.561 210.159 122.463 210.159 122.463Z" fill="#AEE6F4"/>
<path d="M295.88 0.492369C265.392 -0.00254191 263.875 -1.41304 263.676 5.91164C263.477 13.2363 263.85 42.3866 266.461 42.733C269.072 43.0794 299.908 41.9164 301.202 43.4754C302.47 45.0343 307.12 57.2834 308.463 56.5162C309.806 55.7491 311.696 27.6382 311 14.82C310.303 2.00184 314.904 0.789315 295.88 0.492369Z" fill="#FFD939"/>
<path d="M301.351 18.6305C291.354 20.5112 281.705 24.5942 273.946 31.226C270.664 34.047 267.804 37.2391 265.417 40.753C265.715 41.9655 266.063 42.6832 266.461 42.7327C269.072 43.0791 299.908 41.9161 301.202 43.475C302.47 45.034 307.12 57.283 308.463 56.5159C309.706 55.7983 311.472 31.1765 311.099 17.4922C307.817 17.6654 304.584 18.0366 301.351 18.6305Z" fill="#F4A914"/>
<path d="M281.208 16.3787C277.005 16.5272 275.662 17.4922 275.662 17.4922L285.584 30.4589L301.028 11.1574C301.028 11.1574 295.855 11.0584 294.86 11.0336C293.865 11.0089 285.734 22.3671 285.734 22.3671L281.208 16.3787Z" fill="white"/>
<path d="M186.585 155.548C181.81 128.921 185.292 121.77 192.379 109.694C200.138 96.4306 208.543 110.832 203.246 120.83C197.949 130.827 222.345 150.698 216.028 169.331C209.712 187.964 186.585 155.548 186.585 155.548Z" fill="#FF729F"/>
<path d="M184.901 138.76L184.191 138.885L186.542 152.066L187.252 151.941L184.901 138.76Z" fill="#FFD939"/>
<path d="M192.454 120.087C191.583 120.087 190.738 119.964 189.917 119.691L190.141 118.999C192.926 119.914 196.258 119.048 198.248 116.895C200.237 114.718 200.759 111.352 199.566 108.655L200.237 108.358C201.555 111.278 200.958 114.99 198.795 117.365C197.178 119.122 194.816 120.087 192.454 120.087Z" fill="#FFD939"/>
<path d="M188.486 131.463L188.425 132.178L193.555 132.607L193.615 131.892L188.486 131.463Z" fill="#FFD939"/>
<path d="M259.821 123.626C260.94 128.724 263.924 133.574 268.475 136.197C273.026 138.82 279.143 138.894 283.346 135.751C287.847 132.361 289.339 126.2 288.991 120.582C288.618 114.545 286.231 108.309 281.307 104.77C276.433 101.281 268.773 101.627 263.974 105.24C259.05 108.977 258.652 118.207 259.821 123.626Z" fill="#F16995"/>
<path d="M337.658 132.312C301.177 85.4437 282.327 97.5442 282.327 97.5442C282.327 97.5442 269.52 92.4219 263.452 98.9547C263.452 98.9547 242.289 99.7961 231.471 94.2036C220.654 88.6111 219.46 101.33 228.661 107.22C242.587 116.153 269.868 118.578 274.294 125.729C278.721 132.881 274.17 130.53 266.486 128.006C256.439 124.715 242.264 117.39 238.335 124.368C234.406 131.347 239.379 136.271 255.519 142.037C271.658 147.802 290.409 162.303 298.963 162.477C307.493 162.65 304.384 175.666 315.252 178.858C326.84 182.273 349.868 180.59 349.992 172.424C350.291 153.618 341.637 137.434 337.658 132.312Z" fill="#FF729F"/>
<path d="M247.561 133.599C247.536 133.599 247.512 133.599 247.487 133.599C244.428 133.575 241.419 132.04 239.604 129.615L240.175 129.194C241.866 131.446 244.677 132.857 247.487 132.882C247.512 132.882 247.536 132.882 247.561 132.882C250.371 132.882 253.157 131.52 254.872 129.293L255.444 129.738C253.604 132.139 250.595 133.599 247.561 133.599Z" fill="#FFD939"/>
<path d="M232.764 102.024C231.919 102.024 231.048 101.876 230.253 101.579C228.014 100.737 226.274 98.782 225.727 96.4803L226.423 96.307C226.92 98.3613 228.512 100.168 230.501 100.91C232.491 101.653 234.878 101.331 236.594 100.094L237.017 100.688C235.773 101.554 234.281 102.024 232.764 102.024Z" fill="#FFD939"/>
<path d="M287.201 109.769C280.337 105.166 272.379 102.098 264.198 100.91L264.297 100.192C272.603 101.405 280.66 104.498 287.599 109.175L287.201 109.769Z" fill="#FFD939"/>
<path d="M297.024 107.418C293.741 103.706 289.265 100.984 284.416 99.7714L284.59 99.0785C289.563 100.316 294.164 103.112 297.546 106.948L297.024 107.418Z" fill="#FFD939"/>
<path d="M292.222 112.102L291.915 112.752L294.706 114.057L295.012 113.408L292.222 112.102Z" fill="#FFD939"/>
<path d="M301.237 110.079L301.12 110.788L303.304 111.146L303.421 110.438L301.237 110.079Z" fill="#FFD939"/>
<path d="M310.377 148.298C309.656 146.417 308.935 144.462 308.761 142.383C308.562 140.033 309.184 137.88 310.502 136.469C312.765 133.995 316.644 134.044 319.28 135.133C322.165 136.321 324.453 138.647 326.442 140.701L325.92 141.196C323.955 139.191 321.742 136.915 318.982 135.776C316.57 134.786 313.038 134.712 311.024 136.939C309.855 138.201 309.308 140.156 309.482 142.309C309.656 144.289 310.353 146.169 311.049 148.025L310.377 148.298Z" fill="#FE7EB2"/>
<path d="M317.316 132.064C316.52 130.382 317.216 128.155 318.907 126.992C320.325 126.002 322.289 125.754 324.304 126.299C326.069 126.769 327.636 127.783 329.078 128.798L328.656 129.392C327.263 128.402 325.771 127.437 324.105 126.992C322.339 126.521 320.549 126.744 319.33 127.585C317.962 128.551 317.341 130.406 317.987 131.767L317.316 132.064Z" fill="#FE7EB2"/>
<path d="M303.39 128.55C302.793 126.076 304.235 123.279 306.598 122.314C308.96 121.349 311.969 122.339 313.287 124.517L312.665 124.888C311.521 123.007 308.935 122.141 306.871 122.983C304.832 123.824 303.564 126.249 304.086 128.377L303.39 128.55Z" fill="#FE7EB2"/>
<path d="M332.436 159.012C331.689 156.859 331.714 154.682 332.51 152.9C333.43 150.846 335.42 149.485 337.484 149.485H337.509C339.796 149.51 341.811 151.391 341.836 153.519H341.114C341.114 151.787 339.399 150.203 337.509 150.203H337.484C335.743 150.203 333.977 151.44 333.182 153.197C332.46 154.805 332.436 156.785 333.132 158.765L332.436 159.012Z" fill="#FE7EB2"/>
<path d="M280.411 147.679C279.591 145.353 280.436 142.557 282.401 141.047C284.365 139.538 287.275 139.439 289.339 140.824L288.941 141.418C287.126 140.206 284.564 140.28 282.849 141.616C281.133 142.928 280.387 145.378 281.108 147.431L280.411 147.679Z" fill="#FE7EB2"/>
<path d="M27.3047 78.4158C24.793 86.1859 25.1412 88.0418 26.0116 87.7201C26.882 87.3985 32.2037 80.049 32.2037 80.049L27.3047 78.4158Z" fill="#FE7EB2"/>
<path d="M36.1581 64.0882C24.3955 72.8481 25.1664 80.247 28.5982 82.8453C32.1295 85.493 46.6773 69.2352 46.6773 69.2352L36.1581 64.0882Z" fill="#F16995"/>
<path d="M28.2995 7.32194C27.6778 18.1605 24.5942 40.8026 34.989 48.0283C45.3838 55.254 72.8133 12.7165 67.6656 4.37722C62.5428 -3.96202 28.6477 1.08606 28.2995 7.32194Z" fill="#FF729F"/>
<path d="M53.9389 12.865C49.9103 11.1081 45.5584 12.4443 42.0022 14.6467C37.7249 17.2945 34.318 20.8826 32.0053 25.3368C30.2148 28.7516 29.0957 32.4387 28.3994 36.2495C29.4439 41.2729 31.4084 45.5786 34.9894 48.0532C41.5297 52.6063 54.7844 37.4868 62.4686 23.5551C60.8771 19.2494 58.2659 14.7457 53.9389 12.865Z" fill="#F16995"/>
<path d="M47.3984 20.2887C29.9162 21.1795 32.1543 21.9961 30.5379 27.0442C28.9215 32.0923 28.3246 85.6663 33.6215 86.4087C40.2364 87.3738 67.3426 88.5368 69.5558 83.7114C71.7691 78.8861 70.9982 58.3225 70.5008 39.9861C70.0035 21.6497 70.9484 19.1009 47.3984 20.2887Z" fill="#0000EF"/>
<mask id="mask0_13_1521" style="mask-type:alpha" maskUnits="userSpaceOnUse" x="32" y="27" width="37" height="55">
<path d="M47.7463 27.4648C32.7509 28.1577 34.6657 28.8258 33.2731 32.9088C31.8805 36.9918 31.4329 80.3708 35.9837 80.9894C41.6536 81.7812 64.9301 82.7463 66.8449 78.8613C68.7598 74.9762 68.0635 58.2977 67.6158 43.4504C67.1433 28.6031 67.964 26.5245 47.7463 27.4648Z" fill="#53CAF1"/>
</mask>
<g mask="url(#mask0_13_1521)">
<path d="M47.7463 27.4648C32.7509 28.1577 34.6657 28.8258 33.2731 32.9088C31.8805 36.9918 31.4329 80.3708 35.9837 80.9894C41.6536 81.7812 64.9301 82.7463 66.8449 78.8613C68.7598 74.9762 68.0635 58.2977 67.6158 43.4504C67.1433 28.6031 67.964 26.5245 47.7463 27.4648Z" fill="#53CAF1"/>
<path d="M32.2656 69.624L69.2708 61.969" stroke="#BCF2FF" stroke-width="2.55208" stroke-linejoin="round"/>
<path d="M64.1663 81.4708L58.0119 61.5097C57.1797 58.8107 57.6458 55.8785 59.2738 53.5705L68.9059 39.9153" stroke="#BCF2FF" stroke-width="2.55208" stroke-linejoin="round"/>
<path d="M49.9479 82.1999L46.6282 69.5268C46.1776 67.8066 45.2336 66.2557 43.9125 65.0653L31.1719 53.5849" stroke="#BCF2FF" stroke-width="2.55208" stroke-linejoin="round"/>
<path d="M31.354 44.1073L68.1769 37.7281" stroke="#E3F9FF" stroke-width="2.55208" stroke-linejoin="round"/>
<path opacity="0.5" d="M41.7282 30.3106C40.4102 33.577 39.0176 37.1651 39.1668 40.7532C39.2663 43.3515 40.7086 45.2569 43.0462 46.3952C44.6129 47.1623 46.4531 47.2118 48.2436 46.7169C52.8691 45.4301 56.8479 41.2481 59.9813 37.5858C61.9956 35.2102 63.8607 32.7109 65.6015 30.1126C63.438 27.3411 58.6633 26.9699 47.7711 27.4648C45.8563 27.5638 44.2399 27.6381 42.8224 27.737C42.4494 28.6031 42.0515 29.4445 41.7282 30.3106Z" fill="#2EC0D8"/>
<ellipse cx="59.0622" cy="64.1561" rx="4.01042" ry="4.00975" fill="#53CAF1" stroke="#BCF2FF" stroke-width="2.55208" stroke-linejoin="round"/>
</g>
<path d="M64.9333 64.7222C66.1063 46.4687 69.3358 32.6782 81.1095 39.7368C86.5817 43.014 86.0962 50.1337 79.7318 55.4941C73.0914 61.1288 64.9333 64.7222 64.9333 64.7222Z" fill="#FE7EB2"/>
<path d="M80.9989 49.9908C80.9804 50.02 80.962 50.0491 80.9436 50.0782C79.744 51.7475 77.721 52.7737 75.7988 52.7006C73.8528 52.6328 72.0661 51.5029 71.1288 49.8083C71.0832 49.7183 71.0431 49.6521 70.9975 49.562C70.2305 47.9548 70.3579 46.0358 71.1317 44.4237C71.9647 42.6857 73.532 41.3102 75.4753 41.0906C75.7671 41.0507 76.0551 41.0492 76.3578 41.057C80.4934 41.3262 83.852 45.8375 80.9989 49.9908Z" fill="#53CAF1"/>
<path d="M75.9302 46.724C75.3244 46.3204 74.7093 45.9314 74.1181 45.5371C73.0828 46.8819 72.0475 48.2266 70.9975 49.5621C70.2305 47.9548 70.3578 46.0358 71.1317 44.4237C71.9647 42.6858 73.532 41.3103 75.4753 41.0907C75.9793 42.9192 76.14 44.8367 75.9302 46.724Z" fill="#D2F1FC"/>
<path d="M73.181 43.8427C72.9906 43.7223 72.8556 43.5145 72.816 43.2854C72.7818 43.0801 72.8338 42.8682 72.9646 42.7264L73.3524 43.0533C73.3155 43.1116 73.3171 43.1738 73.3133 43.2122C73.3204 43.2983 73.3605 43.3645 73.4484 43.4201C73.6095 43.522 73.8482 43.4689 74.0136 43.3694C74.2213 43.2355 74.3835 43.0116 74.5126 42.8076L74.9373 43.0762C74.7806 43.3239 74.5815 43.6062 74.2837 43.7851C73.9252 44.0277 73.5032 44.0465 73.181 43.8427Z" fill="#53CAF1"/>
<path d="M24.8928 49.909C30.7865 42.1636 36.7548 47.9046 33.5966 54.3632C33.5966 54.3632 43.6184 56.4665 33.8453 66.6369C25.9372 74.8772 20.9139 67.3546 23.8981 61.7126C23.8732 61.6878 17.0096 60.2773 24.8928 49.909Z" fill="#FF729F"/>
<path d="M51.402 7.27242C44.9115 11.7761 56.0026 25.9553 55.356 29.6176C54.6846 33.28 46.6273 38.922 46.0802 46.3209C45.5332 53.7198 50.2829 52.2351 55.0327 47.0632C59.7577 41.8914 73.9822 30.9786 73.3853 22.6641C72.7885 14.3496 67.6657 4.3772 67.6657 4.3772L51.402 7.27242Z" fill="#FF729F"/>
<path d="M56.2764 45.8508C50.2086 43.7474 51.8747 40.2088 49.4128 47.3603C46.9508 54.5118 46.553 55.1056 49.2636 54.4375C51.9742 53.7694 56.2764 45.8508 56.2764 45.8508Z" fill="#FFB0D8"/>
<path d="M25.0918 50.9977C28.2998 45.8506 33.8453 44.1185 34.5416 44.4401C35.238 44.7618 29.1453 52.5567 28.8966 53.9919C28.6479 55.4272 25.0918 50.9977 25.0918 50.9977Z" fill="#FE7EB2"/>
<path d="M28.6727 59.0895C33.0992 55.5014 36.2326 53.8682 37.7993 53.8682C39.366 53.8682 34.268 58.5204 33.3479 62.3559C32.9251 64.1871 27.4044 60.1288 28.6727 59.0895Z" fill="#FFB0D8"/>
<path d="M24.2213 62.653L23.5996 62.3066C25.6637 58.5947 28.9214 55.5758 32.7759 53.7693L33.0743 54.4127C29.369 56.1449 26.2356 59.0649 24.2213 62.653Z" fill="#FE7EB2"/>
<path d="M52.6207 22.095C50.1836 17.3191 49.0397 13.0382 49.1143 9.05414L49.8354 9.07889C49.7608 12.9639 50.8799 17.1212 53.2672 21.7733L52.6207 22.095Z" fill="#FE7EB2"/>
<path d="M66.7583 23.8493L66.6533 24.5594L71.8203 25.3155L71.9252 24.6054L66.7583 23.8493Z" fill="#FE7EB2"/>
<path d="M129.513 145.6C121.182 157.478 116.731 163.243 114.965 166.634C108.897 178.289 70.9237 196.972 42.8975 180.516C42.8975 180.516 82.4625 159.705 88.7292 148.149C94.996 136.592 129.513 145.6 129.513 145.6Z" fill="#0000D8"/>
<path d="M143.19 98.3358C171.018 79.0343 172.186 88.6108 170.346 95.3168C168.506 102.023 135.282 117.662 135.282 117.662L143.19 98.3358Z" fill="#0000D8"/>
<path d="M150.8 70.1012C121.381 66.5131 119.217 65.3253 111.036 75.273C102.854 85.2207 69.7797 140.576 72.5649 145.427C75.3501 150.277 124.29 155.919 128.195 153.593C132.124 151.267 148.885 113.876 154.903 103.755C160.921 93.6342 169.426 80.5933 167.113 76.2134C164.8 71.8334 161.418 71.388 150.8 70.1012Z" fill="#03036D"/>
<path d="M145.229 73.9367C121.207 71.0167 119.441 70.0516 112.751 78.1682C106.062 86.2847 79.0553 131.495 81.3432 135.479C83.631 139.463 123.594 144.041 126.777 142.16C129.985 140.255 143.662 109.719 148.586 101.454C153.51 93.1887 160.448 82.5234 158.558 78.96C156.668 75.3719 153.908 75.0007 145.229 73.9367Z" fill="#D2F1FC"/>
<path d="M98.179 106.898C101.288 105.834 104.247 104.324 106.858 102.369C109.842 100.167 112.229 97.3707 114.766 94.7229C116.631 92.7433 118.695 91.4565 121.381 90.8874C124.663 90.1945 128.07 90.046 131.378 89.4274C136.451 88.487 141.524 86.9281 145.553 83.5627C148.412 81.1871 150.626 78.1929 152.466 74.976C150.651 74.6048 148.338 74.3079 145.254 73.9367C121.232 71.0167 119.466 70.0516 112.777 78.1682C109.444 82.2017 101.089 95.4405 93.8022 108.209C95.2446 107.838 96.7367 107.417 98.179 106.898Z" fill="#53CAF1"/>
<path d="M106.435 129.243C101.262 124.269 94.8216 120.731 87.8586 118.949C83.4321 127.362 80.4976 134.068 81.3183 135.504C82.885 138.25 102.332 141.269 115.338 142.284C113.348 137.359 110.265 132.93 106.435 129.243Z" fill="#53CAF1"/>
<path d="M153.535 106.725C160.175 110.956 157.017 119.988 152.565 124.022C152.565 124.022 153.485 135.603 146.622 139.537C139.758 143.472 133.268 142.383 132.87 137.557C132.497 132.732 140.106 127.61 140.106 127.61C140.106 127.61 135.531 126.793 137.843 119.864C140.206 112.936 153.535 106.725 153.535 106.725Z" fill="#0000EF"/>
<path d="M135.63 111.203C135.581 111.203 135.531 111.179 135.506 111.179C135.009 111.104 123.644 110.436 116.134 110.016L115.388 109.966L120.063 104.621L120.262 104.646C123.818 105.017 139.385 105.067 139.535 105.067H140.206L139.858 105.611C136.6 110.634 135.954 111.203 135.63 111.203ZM135.63 110.486C135.68 110.486 135.73 110.511 135.73 110.511C135.705 110.486 135.63 110.486 135.63 110.486ZM116.905 109.348C122.624 109.669 133.939 110.313 135.531 110.461C135.954 110.09 137.446 107.912 138.838 105.784C135.829 105.784 123.818 105.71 120.336 105.388L116.905 109.348Z" fill="#3DB5C9"/>
<path d="M132.497 119.295L132.248 119.271L103.501 117.291L108.624 113.109H108.773C110.837 113.282 114.642 113.505 118.67 113.752C132.373 114.569 133.915 114.742 134.163 115.089L134.263 115.237L134.213 115.41C134.089 115.88 132.746 118.751 132.597 119.073L132.497 119.295ZM105.366 116.697L132.049 118.553C132.522 117.563 133.144 116.177 133.417 115.534C131.801 115.262 124.241 114.792 118.621 114.47C114.692 114.247 110.961 114.025 108.848 113.851L105.366 116.697Z" fill="#3DB5C9"/>
<path d="M111.707 108.506C107.803 113.975 101.885 117.637 96.3638 121.275C95.0955 122.116 93.8273 122.958 92.6087 123.848C91.4399 124.715 89.6246 125.853 89.351 127.412C89.2267 128.228 89.6992 128.946 90.3209 129.49C92.0119 128.525 113.995 115.707 113.821 105.858C113.821 105.487 113.796 105.141 113.747 104.794C113.224 106.106 112.553 107.343 111.707 108.506Z" fill="#0000D8"/>
<path d="M106.644 122.615L106.619 123.332L130.553 124.164L130.578 123.446L106.644 122.615Z" fill="#3DB5C9"/>
<path d="M140.156 128.427C139.957 128.427 139.759 128.427 139.56 128.427L139.584 127.709C143.563 127.808 147.492 126.818 150.949 124.863L151.297 125.482C147.89 127.412 144.061 128.427 140.156 128.427Z" fill="white"/>
<path d="M142.742 125.556C141.151 122.958 141.947 119.172 144.483 117.439C146.995 115.707 150.849 116.301 152.739 118.701L152.167 119.147C150.501 117.044 147.119 116.524 144.906 118.033C142.693 119.568 141.971 122.908 143.389 125.185L142.742 125.556Z" fill="white"/>
<path d="M138.465 138.622C138.465 136.791 139.46 134.959 141.027 133.945C142.569 132.955 144.657 132.781 146.349 133.549L146.05 134.217C144.583 133.549 142.767 133.697 141.425 134.563C140.082 135.43 139.211 137.038 139.211 138.622H138.465Z" fill="white"/>
<path d="M102.656 147.654C103.352 147.704 104.098 147.753 104.769 147.555C105.441 147.333 106.062 146.788 106.137 146.095C106.212 145.452 105.814 144.833 105.267 144.462C104.744 144.09 104.098 143.942 103.451 143.793C101.387 143.348 99.2735 143.125 97.1845 143.076C96.0157 143.051 94.648 143.199 93.9517 144.14C93.4792 144.783 93.4543 145.699 93.8771 146.367C95.0708 148.149 100.741 147.506 102.656 147.654Z" fill="#D2F1FC"/>
<path d="M42.8975 180.516C51.8748 165.941 59.7331 134.192 64.458 124.863C69.2078 115.534 85.6207 112.243 94.424 105.438C103.227 98.6575 113.597 95.5891 113.796 105.858C113.995 116.128 90.1964 129.565 90.1964 129.565C90.1964 129.565 103.153 148.644 100.641 162.204C94.0759 197.64 42.8975 180.516 42.8975 180.516Z" fill="#0000EF"/>
<path d="M100.84 111.105C98.9998 111.105 97.2839 109.991 95.6426 108.902C95.2945 108.68 94.9712 108.457 94.623 108.234L95.0209 107.615C95.3691 107.838 95.7172 108.061 96.0405 108.284C98.0797 109.645 100.019 110.907 102.158 110.14C104.719 109.199 106.833 107.022 107.654 104.448L108.35 104.671C107.455 107.467 105.167 109.818 102.407 110.832C101.86 111.03 101.337 111.105 100.84 111.105Z" fill="white"/>
<path d="M100.765 166.361L100.044 166.287C100.691 160.373 100.243 154.434 98.7012 148.668L99.3975 148.47C100.964 154.335 101.412 160.348 100.765 166.361Z" fill="white"/>
<path d="M67.4151 123.084L67.1685 123.759L73.221 125.95L73.4676 125.276L67.4151 123.084Z" fill="white"/>
<path d="M68.4697 128.523L68.1855 129.183L71.7287 130.694L72.0128 130.034L68.4697 128.523Z" fill="white"/>
<path d="M115.736 91.0857C103.153 68.0476 96.488 48.8451 116.184 48.375C125.335 48.1522 130.209 57.1596 126.603 68.5426C122.873 80.4699 115.736 91.0857 115.736 91.0857Z" fill="#FE7EB2"/>
<path d="M221.991 68.7767C209.408 45.7386 202.743 26.5361 222.438 26.0659C231.59 25.8432 236.464 34.8506 232.858 46.2335C229.128 58.1609 221.991 68.7767 221.991 68.7767Z" fill="#FE7EB2"/>
<path d="M116.183 48.3749C111.061 48.4986 107.728 49.8843 105.813 52.2846C106.012 53.126 106.236 53.9673 106.51 54.7839C109.494 64.311 115.686 72.4522 121.828 80.2966C123.544 76.8075 125.285 72.7492 126.628 68.5425C130.209 57.1595 125.335 48.1769 116.183 48.3749Z" fill="#DD689D"/>
<path d="M123.918 60.896C123.918 60.9455 123.918 60.995 123.918 61.0445C123.744 63.9892 122.078 66.7855 119.69 68.1712C117.278 69.5817 114.244 69.5817 111.807 68.2454C111.683 68.1712 111.583 68.1217 111.459 68.0475C109.295 66.6865 107.977 64.2614 107.679 61.7126C107.356 58.9659 108.201 56.0954 110.39 54.3385C110.713 54.0663 111.061 53.8436 111.434 53.6208C116.656 50.7751 124.191 53.6703 123.918 60.896Z" fill="#53CAF1"/>
<path d="M230.173 38.5873C230.173 38.6368 230.173 38.6863 230.173 38.7358C229.999 41.6805 228.332 44.4767 225.945 45.8625C223.533 47.273 220.499 47.273 218.062 45.9367C217.938 45.8625 217.838 45.813 217.714 45.7387C215.55 44.3777 214.232 41.9527 213.934 39.4039C213.611 36.6571 214.456 33.7867 216.644 32.0297C216.968 31.7575 217.316 31.5348 217.689 31.3121C222.911 28.4664 230.446 31.3616 230.173 38.5873Z" fill="#53CAF1"/>
<path d="M132.845 91.1598C127.797 79.0345 111.011 56.516 112.18 40.1592C113.349 23.8024 127.076 21.3526 134.188 21.3526C141.3 21.3526 152.118 25.8068 154.157 42.2379C156.345 59.9557 132.845 91.1598 132.845 91.1598Z" fill="#FE7EB2"/>
<path d="M120.486 32.7603C126.156 41.1243 136.302 45.3805 145.901 47.4344C148.562 48.0036 151.272 48.4242 154.008 48.6964C154.356 46.4199 154.431 44.2423 154.182 42.2379C152.143 25.8068 141.325 21.3526 134.213 21.3526C129.712 21.3526 122.6 22.3425 117.676 27.1678C118.347 29.098 119.267 31.0034 120.486 32.7603Z" fill="#FFB0D8"/>
<path d="M149.034 42.6091C149.034 42.7081 149.034 42.8071 149.009 42.9061C148.686 48.6223 145.428 54.0168 140.828 56.7388C136.152 59.4856 130.284 59.4856 125.559 56.8873C120.933 54.3633 118.173 49.4142 117.551 44.2176C116.83 38.1302 119.093 31.6963 124.862 28.5537C134.984 22.9859 149.581 28.5784 149.034 42.6091Z" fill="#D2F1FC"/>
<path d="M119.292 50.1564C122.699 46.2714 126.006 42.3121 129.438 38.427C131.751 35.804 134.113 33.181 136.351 30.459C137.197 29.4444 137.993 28.4051 138.764 27.3163C134.337 25.8316 129.189 26.1533 124.862 28.5288C119.093 31.6963 116.83 38.1054 117.551 44.1928C117.8 46.2961 118.397 48.3253 119.292 50.1564Z" fill="#AEE6F4"/>
<path d="M149.009 42.9061C148.686 48.6223 145.428 54.0168 140.828 56.7388C136.153 59.4856 130.284 59.4856 125.559 56.8873C120.933 54.3632 118.173 49.4141 117.551 44.2176C119.789 44.4155 120.486 44.1186 120.71 42.3369C121.008 39.7881 121.306 34.74 125.783 35.2102C130.259 35.6804 127.946 40.8522 129.587 41.5451C131.254 42.2379 137.62 42.5596 137.819 41.7183C138.018 40.8769 137.943 35.4577 142.643 35.5566C145.254 35.6061 145.826 38.6003 145.876 41.8915C145.901 42.5349 147.542 42.7823 149.009 42.9061Z" fill="#3CA184"/>
<path d="M145.901 41.9163C145.901 41.6689 143.737 54.487 131.278 58.6938C134.561 59.0897 137.943 58.4463 140.853 56.7141C145.453 53.9921 148.711 48.6224 149.034 42.8814C147.542 42.7824 145.901 42.535 145.901 41.9163Z" fill="#2C8469"/>
<path d="M123.594 42.2384C123.843 42.4858 124.265 42.5848 124.614 42.4858C125.086 42.3621 125.434 41.8671 125.409 41.3721C125.384 40.8771 124.962 40.4316 124.464 40.3574C123.395 40.2336 122.873 41.5206 123.594 42.2384Z" fill="#03036D"/>
<path d="M141.226 42.5105C141.474 42.758 141.897 42.857 142.245 42.758C142.718 42.6342 143.066 42.1393 143.041 41.6443C143.016 41.1493 142.593 40.7038 142.096 40.6295C141.027 40.5058 140.505 41.7928 141.226 42.5105Z" fill="#03036D"/>
<path d="M133.566 53.3736C132.472 53.3736 131.403 53.0519 130.533 52.4085C128.767 51.097 128.095 48.5482 128.991 46.618L129.637 46.915C128.866 48.5729 129.463 50.7258 130.955 51.8394C132.422 52.9282 134.636 52.9529 136.178 51.8641C137.67 50.8248 138.515 48.8204 138.192 46.9645L138.913 46.8408C139.261 48.9936 138.341 51.2455 136.575 52.458C135.705 53.0519 134.636 53.3736 133.566 53.3736Z" fill="#FFD939"/>
<path d="M115.264 60.8218C114.219 60.797 113.175 60.797 112.155 60.7723C111.931 63.1973 111.708 65.6224 111.459 68.0475C109.295 66.6865 107.977 64.2614 107.679 61.7126C107.356 58.9659 108.201 56.0954 110.39 54.3384C112.404 56.1696 114.07 58.372 115.264 60.8218Z" fill="#D2F1FC"/>
<path d="M221.519 38.5132C220.474 38.4885 219.43 38.4885 218.41 38.4637C218.186 40.8888 217.962 43.3139 217.714 45.7389C215.55 44.3779 214.232 41.9529 213.934 39.4041C213.611 36.6573 214.456 33.7868 216.644 32.0299C218.659 33.8611 220.325 36.0634 221.519 38.5132Z" fill="#D2F1FC"/>
<path d="M109.718 59.4367C109.394 59.4367 109.071 59.2882 108.847 59.0407C108.648 58.818 108.549 58.521 108.599 58.2487L109.32 58.3477C109.32 58.4467 109.37 58.521 109.394 58.5705C109.469 58.6695 109.568 58.719 109.718 58.719C109.991 58.719 110.24 58.4715 110.364 58.224C110.513 57.9022 110.538 57.5062 110.538 57.1597H111.259C111.259 57.5805 111.235 58.0755 111.011 58.521C110.762 59.0902 110.265 59.4367 109.718 59.4367Z" fill="#53CAF1"/>
<path d="M215.973 37.1277C215.65 37.1277 215.326 36.9792 215.103 36.7317C214.904 36.5089 214.804 36.2119 214.854 35.9397L215.575 36.0387C215.575 36.1377 215.625 36.2119 215.65 36.2614C215.724 36.3604 215.824 36.4099 215.973 36.4099C216.247 36.4099 216.495 36.1624 216.62 35.9149C216.769 35.5932 216.794 35.1972 216.794 34.8507H217.515C217.515 35.2715 217.49 35.7664 217.266 36.2119C217.018 36.7812 216.52 37.1277 215.973 37.1277Z" fill="#53CAF1"/>
<path d="M147.318 92.4718C147.02 92.4718 118.173 92.4471 106.958 91.5808L107.007 90.8631C118.198 91.7293 147.02 91.7541 147.318 91.7541V92.4718Z" fill="#FE7EB2"/>
<path d="M132.273 76.2137C131.975 76.9561 131.651 77.7232 131.651 78.5398C131.651 79.3564 132.024 80.1978 132.746 80.5689C133.889 81.1381 135.207 80.2967 136.128 79.4306C139.982 75.8178 142.568 70.9182 143.414 65.7216C143.638 64.3359 143.588 62.0098 141.723 61.7128C140.082 61.4406 139.112 63.4945 138.366 64.6328C136.003 68.3199 133.939 72.1802 132.273 76.2137Z" fill="#DD689D"/>
</svg>
