<svg width="63" height="56" viewBox="0 0 63 56" fill="none" xmlns="http://www.w3.org/2000/svg">
<path fill-rule="evenodd" clip-rule="evenodd" d="M31.7572 56C34.8851 56 56.1858 37.745 56.1858 24.3158C56.1858 10.8866 45.2487 1.52588e-05 31.7572 1.52588e-05C18.2657 1.52588e-05 7.32861 10.8866 7.32861 24.3158C7.32861 37.745 28.6293 56 31.7572 56ZM31.7572 42C41.5692 42 49.5234 34.0825 49.5234 24.3158C49.5234 14.5491 41.5692 6.63159 31.7572 6.63159C21.9452 6.63159 13.9909 14.5491 13.9909 24.3158C13.9909 34.0825 21.9452 42 31.7572 42Z" fill="#FC266B"/>
<mask id="path-2-outside-1_13_1507" maskUnits="userSpaceOnUse" x="0" y="11" width="61" height="16" fill="black">
<rect fill="white" y="11" width="61" height="16"/>
<path d="M10.2802 17.1594C9.67577 16.8128 9.21908 16.4929 8.48031 16.4929C6.90875 16.4929 5.53867 17.6927 5.53867 19.2924C5.53867 20.3188 6.16998 21.132 7.24456 21.132C8.82955 21.132 9.38026 20.2389 9.78323 19.9722C10.0519 20.1322 11.3682 21.3853 11.61 21.6519C11.4757 21.9452 10.6966 22.5851 10.4414 22.785C9.51459 23.5182 8.30569 23.8115 7.15053 23.8115C4.42381 23.8115 3 22.0252 3 19.4257C3 17.5594 3.7925 15.8397 5.48495 14.9332C6.3849 14.4533 7.40574 14.1067 8.44002 14.1067C9.43399 14.1067 10.2534 14.32 11.0727 14.9065C11.1399 14.9465 11.2742 15.0398 11.2742 15.1331C11.2742 15.2398 10.4145 16.9328 10.2802 17.1594Z"/>
<path d="M11.8986 14.4933C12.7985 14.3333 13.7254 14.3066 14.6387 14.28V14.4799C14.6387 16.1996 14.2626 17.9593 14.2626 19.7056C14.2626 20.5455 14.5044 21.412 15.485 21.412C16.1834 21.412 16.7073 20.7588 16.8282 20.1055C17.0834 18.6525 17.0968 17.1328 17.0968 15.653C17.0968 15.2798 17.1102 14.9198 17.1505 14.5599C18.0505 14.3599 18.9505 14.2133 19.8504 14.12C19.8638 14.1733 19.8638 14.2133 19.8638 14.2666C19.8638 16.133 19.7295 18.0259 19.4609 19.8789C19.2728 21.1454 19.1116 22.0252 18.0774 22.8384C17.352 23.4116 16.4521 23.7182 15.5387 23.7182C13.9806 23.7182 12.3284 22.945 12.006 21.2387C11.8851 20.5988 11.9254 19.9456 11.9254 19.3057C11.9254 17.7726 11.8851 16.2529 11.8851 14.7199C11.8851 14.6399 11.8851 14.5732 11.8986 14.4933Z"/>
<path d="M23.0288 16.3996V16.5595C23.0288 17.3194 23.0556 18.3325 23.0959 19.1324C24.0496 19.1191 25.554 18.3725 25.554 17.2394C25.554 16.4529 24.775 16.1996 24.1437 16.1996C23.7676 16.1996 23.3915 16.2796 23.0288 16.3996ZM28.6971 23.1716C28.4554 23.265 26.2256 23.7849 26.051 23.7849C26.0107 23.7849 25.9839 23.7715 25.9436 23.7715L24.6406 20.8787C24.1974 20.9454 23.7676 20.9854 23.3243 21.0254C23.3109 21.1054 23.3109 21.172 23.3109 21.2387C23.3109 21.9852 23.4317 22.8384 23.472 23.5849L23.3377 23.5982C22.4781 23.7182 21.5512 23.7582 20.6916 23.7449H20.5841C20.5707 23.6249 20.5707 23.5316 20.5707 23.4249C20.5707 20.5455 20.5035 17.666 20.5035 14.7865V14.3866C21.1617 14.16 23.3915 14 24.1437 14C26.145 14 28.3882 14.5066 28.3882 17.0794C28.3882 18.3725 27.7569 19.1724 26.8435 19.9589C27.1525 20.6121 28.6166 22.785 28.6971 23.1716Z"/>
<path d="M28.8124 23.6516L29.9407 14.2533C30.2093 14.1866 30.5451 14.2133 30.8272 14.2133C31.3376 14.2133 31.8615 14.2266 32.3719 14.3333C32.3853 14.3866 32.3987 14.4399 32.3987 14.4933C32.3987 15.5864 32.2644 16.5995 32.2107 17.6927L31.9018 22.825C31.8883 23.105 31.9018 23.3983 31.8346 23.6782C31.2436 23.7715 30.5585 23.7449 29.9541 23.7449C29.6049 23.7449 29.1482 23.7449 28.8124 23.6516Z"/>
<path d="M42.4753 18.7591C42.4753 21.7452 40.8365 23.7849 37.4785 23.7849C37.4382 23.7849 37.3845 23.7849 37.3442 23.7849C34.0802 23.7315 32.7235 21.2787 32.8579 18.7058C33.0056 15.9063 34.6712 14.0667 37.9755 14.0667C41.1858 14.0667 42.4753 16.2796 42.4753 18.7591ZM35.4234 18.9458C35.4234 20.3055 36.1756 21.5586 37.6666 21.5586C38.9829 21.5586 39.8829 20.6254 39.8426 18.7725C39.8157 17.2527 39.0098 16.2929 37.8277 16.2929C36.3636 16.2929 35.4234 17.2927 35.4234 18.9458Z"/>
<path d="M42.9735 14.4933C43.8735 14.3333 44.8003 14.3066 45.7137 14.28V14.4799C45.7137 16.1996 45.3376 17.9593 45.3376 19.7056C45.3376 20.5455 45.5793 21.412 46.5599 21.412C47.2584 21.412 47.7822 20.7588 47.9031 20.1055C48.1583 18.6525 48.1717 17.1328 48.1717 15.653C48.1717 15.2798 48.1852 14.9198 48.2255 14.5599C49.1254 14.3599 50.0254 14.2133 50.9253 14.12C50.9388 14.1733 50.9388 14.2133 50.9388 14.2666C50.9388 16.133 50.8044 18.0259 50.5358 19.8789C50.3478 21.1454 50.1866 22.0252 49.1523 22.8384C48.427 23.4116 47.527 23.7182 46.6136 23.7182C45.0555 23.7182 43.4033 22.945 43.081 21.2387C42.9601 20.5988 43.0004 19.9456 43.0004 19.3057C43.0004 17.7726 42.9601 16.2529 42.9601 14.7199C42.9601 14.6399 42.9601 14.5732 42.9735 14.4933Z"/>
<path d="M56.7659 17.2527C56.2823 16.7595 55.7854 16.2663 55.06 16.2663C54.7377 16.2663 54.1869 16.3862 54.1869 16.8262C54.1869 17.6793 55.7451 17.866 56.3495 18.0659C57.5853 18.4792 58.5255 19.6256 58.5255 20.9454C58.5255 22.865 56.5376 23.7449 54.966 23.7449C53.5019 23.7449 52.0109 23.225 51.0438 22.0385L50.9498 21.9319C50.8423 21.7852 50.7349 21.6386 50.6274 21.4786C50.8155 21.2253 52.0915 20.0122 52.3467 19.8389L52.4676 19.9989C53.0721 20.8654 54.0392 21.4386 55.0869 21.4386C55.4764 21.4386 55.8391 21.1587 55.8391 20.7321C55.8391 20.6121 55.8122 20.4921 55.7451 20.3988C54.8451 19.1191 51.7423 19.7056 51.7423 16.8928C51.7423 14.8265 53.5691 14.1067 55.2749 14.1067C56.3361 14.1067 57.7464 14.4933 58.4315 15.3998C58.1897 15.773 57.1151 16.9595 56.7659 17.2527Z"/>
</mask>
<path d="M10.2802 17.1594C9.67577 16.8128 9.21908 16.4929 8.48031 16.4929C6.90875 16.4929 5.53867 17.6927 5.53867 19.2924C5.53867 20.3188 6.16998 21.132 7.24456 21.132C8.82955 21.132 9.38026 20.2389 9.78323 19.9722C10.0519 20.1322 11.3682 21.3853 11.61 21.6519C11.4757 21.9452 10.6966 22.5851 10.4414 22.785C9.51459 23.5182 8.30569 23.8115 7.15053 23.8115C4.42381 23.8115 3 22.0252 3 19.4257C3 17.5594 3.7925 15.8397 5.48495 14.9332C6.3849 14.4533 7.40574 14.1067 8.44002 14.1067C9.43399 14.1067 10.2534 14.32 11.0727 14.9065C11.1399 14.9465 11.2742 15.0398 11.2742 15.1331C11.2742 15.2398 10.4145 16.9328 10.2802 17.1594Z" stroke="white" stroke-width="4.44156" stroke-linejoin="round" mask="url(#path-2-outside-1_13_1507)"/>
<path d="M11.8986 14.4933C12.7985 14.3333 13.7254 14.3066 14.6387 14.28V14.4799C14.6387 16.1996 14.2626 17.9593 14.2626 19.7056C14.2626 20.5455 14.5044 21.412 15.485 21.412C16.1834 21.412 16.7073 20.7588 16.8282 20.1055C17.0834 18.6525 17.0968 17.1328 17.0968 15.653C17.0968 15.2798 17.1102 14.9198 17.1505 14.5599C18.0505 14.3599 18.9505 14.2133 19.8504 14.12C19.8638 14.1733 19.8638 14.2133 19.8638 14.2666C19.8638 16.133 19.7295 18.0259 19.4609 19.8789C19.2728 21.1454 19.1116 22.0252 18.0774 22.8384C17.352 23.4116 16.4521 23.7182 15.5387 23.7182C13.9806 23.7182 12.3284 22.945 12.006 21.2387C11.8851 20.5988 11.9254 19.9456 11.9254 19.3057C11.9254 17.7726 11.8851 16.2529 11.8851 14.7199C11.8851 14.6399 11.8851 14.5732 11.8986 14.4933Z" stroke="white" stroke-width="4.44156" stroke-linejoin="round" mask="url(#path-2-outside-1_13_1507)"/>
<path d="M23.0288 16.3996V16.5595C23.0288 17.3194 23.0556 18.3325 23.0959 19.1324C24.0496 19.1191 25.554 18.3725 25.554 17.2394C25.554 16.4529 24.775 16.1996 24.1437 16.1996C23.7676 16.1996 23.3915 16.2796 23.0288 16.3996ZM28.6971 23.1716C28.4554 23.265 26.2256 23.7849 26.051 23.7849C26.0107 23.7849 25.9839 23.7715 25.9436 23.7715L24.6406 20.8787C24.1974 20.9454 23.7676 20.9854 23.3243 21.0254C23.3109 21.1054 23.3109 21.172 23.3109 21.2387C23.3109 21.9852 23.4317 22.8384 23.472 23.5849L23.3377 23.5982C22.4781 23.7182 21.5512 23.7582 20.6916 23.7449H20.5841C20.5707 23.6249 20.5707 23.5316 20.5707 23.4249C20.5707 20.5455 20.5035 17.666 20.5035 14.7865V14.3866C21.1617 14.16 23.3915 14 24.1437 14C26.145 14 28.3882 14.5066 28.3882 17.0794C28.3882 18.3725 27.7569 19.1724 26.8435 19.9589C27.1525 20.6121 28.6166 22.785 28.6971 23.1716Z" stroke="white" stroke-width="4.44156" stroke-linejoin="round" mask="url(#path-2-outside-1_13_1507)"/>
<path d="M28.8124 23.6516L29.9407 14.2533C30.2093 14.1866 30.5451 14.2133 30.8272 14.2133C31.3376 14.2133 31.8615 14.2266 32.3719 14.3333C32.3853 14.3866 32.3987 14.4399 32.3987 14.4933C32.3987 15.5864 32.2644 16.5995 32.2107 17.6927L31.9018 22.825C31.8883 23.105 31.9018 23.3983 31.8346 23.6782C31.2436 23.7715 30.5585 23.7449 29.9541 23.7449C29.6049 23.7449 29.1482 23.7449 28.8124 23.6516Z" stroke="white" stroke-width="4.44156" stroke-linejoin="round" mask="url(#path-2-outside-1_13_1507)"/>
<path d="M42.4753 18.7591C42.4753 21.7452 40.8365 23.7849 37.4785 23.7849C37.4382 23.7849 37.3845 23.7849 37.3442 23.7849C34.0802 23.7315 32.7235 21.2787 32.8579 18.7058C33.0056 15.9063 34.6712 14.0667 37.9755 14.0667C41.1858 14.0667 42.4753 16.2796 42.4753 18.7591ZM35.4234 18.9458C35.4234 20.3055 36.1756 21.5586 37.6666 21.5586C38.9829 21.5586 39.8829 20.6254 39.8426 18.7725C39.8157 17.2527 39.0098 16.2929 37.8277 16.2929C36.3636 16.2929 35.4234 17.2927 35.4234 18.9458Z" stroke="white" stroke-width="4.44156" stroke-linejoin="round" mask="url(#path-2-outside-1_13_1507)"/>
<path d="M42.9735 14.4933C43.8735 14.3333 44.8003 14.3066 45.7137 14.28V14.4799C45.7137 16.1996 45.3376 17.9593 45.3376 19.7056C45.3376 20.5455 45.5793 21.412 46.5599 21.412C47.2584 21.412 47.7822 20.7588 47.9031 20.1055C48.1583 18.6525 48.1717 17.1328 48.1717 15.653C48.1717 15.2798 48.1852 14.9198 48.2255 14.5599C49.1254 14.3599 50.0254 14.2133 50.9253 14.12C50.9388 14.1733 50.9388 14.2133 50.9388 14.2666C50.9388 16.133 50.8044 18.0259 50.5358 19.8789C50.3478 21.1454 50.1866 22.0252 49.1523 22.8384C48.427 23.4116 47.527 23.7182 46.6136 23.7182C45.0555 23.7182 43.4033 22.945 43.081 21.2387C42.9601 20.5988 43.0004 19.9456 43.0004 19.3057C43.0004 17.7726 42.9601 16.2529 42.9601 14.7199C42.9601 14.6399 42.9601 14.5732 42.9735 14.4933Z" stroke="white" stroke-width="4.44156" stroke-linejoin="round" mask="url(#path-2-outside-1_13_1507)"/>
<path d="M56.7659 17.2527C56.2823 16.7595 55.7854 16.2663 55.06 16.2663C54.7377 16.2663 54.1869 16.3862 54.1869 16.8262C54.1869 17.6793 55.7451 17.866 56.3495 18.0659C57.5853 18.4792 58.5255 19.6256 58.5255 20.9454C58.5255 22.865 56.5376 23.7449 54.966 23.7449C53.5019 23.7449 52.0109 23.225 51.0438 22.0385L50.9498 21.9319C50.8423 21.7852 50.7349 21.6386 50.6274 21.4786C50.8155 21.2253 52.0915 20.0122 52.3467 19.8389L52.4676 19.9989C53.0721 20.8654 54.0392 21.4386 55.0869 21.4386C55.4764 21.4386 55.8391 21.1587 55.8391 20.7321C55.8391 20.6121 55.8122 20.4921 55.7451 20.3988C54.8451 19.1191 51.7423 19.7056 51.7423 16.8928C51.7423 14.8265 53.5691 14.1067 55.2749 14.1067C56.3361 14.1067 57.7464 14.4933 58.4315 15.3998C58.1897 15.773 57.1151 16.9595 56.7659 17.2527Z" stroke="white" stroke-width="4.44156" stroke-linejoin="round" mask="url(#path-2-outside-1_13_1507)"/>
<path d="M11.2116 38.1367C11.5809 38.0964 11.9056 37.8741 12.0767 37.5444C12.1701 37.3644 12.3775 36.9661 12.6624 36.4192C13.3329 35.1317 14.4325 33.0202 15.4852 30.991C15.8909 30.2091 16.2909 29.4368 16.659 28.7243L15.6281 37.311C15.5628 37.8556 15.9048 38.3664 16.4333 38.5132C17.0528 38.6854 17.8203 38.6848 18.2718 38.6845C18.2915 38.6844 18.3106 38.6844 18.329 38.6844C18.461 38.6844 18.6023 38.6856 18.7504 38.6869C19.471 38.6931 20.3553 38.7006 21.1349 38.5775C21.5788 38.5074 21.9367 38.1767 22.0415 37.7398C22.1332 37.3573 22.1505 36.9242 22.1576 36.62C23.7347 38.0733 25.8342 38.6844 27.8194 38.6844C29.1002 38.6844 30.5681 38.3314 31.7499 37.5476C31.8847 37.4582 32.0162 37.3627 32.1436 37.2611L32.1376 37.311C32.0722 37.8556 32.4143 38.3664 32.9428 38.5132C33.5623 38.6854 34.3298 38.6848 34.7813 38.6845C34.801 38.6844 34.82 38.6844 34.8385 38.6844C34.9705 38.6844 35.1117 38.6856 35.2599 38.6869C35.9805 38.6931 36.8648 38.7006 37.6444 38.5775C38.0882 38.5074 38.4461 38.1767 38.5509 37.7398C38.6528 37.3154 38.6629 36.8287 38.6692 36.5249C38.6706 36.4542 38.6719 36.3935 38.674 36.3457L39.1061 29.1677L39.1062 29.1677L39.1068 29.1555C39.1108 29.0729 39.1153 28.9897 39.1202 28.9057C39.3246 28.9544 39.5378 28.9708 39.6889 28.9782C40.0036 28.9937 40.4183 28.9796 40.4181 28.9796C40.77 28.9796 41.0784 28.9705 41.3688 28.962C41.5162 28.9577 41.659 28.9535 41.8005 28.9507C41.7783 30.1579 41.715 31.3718 41.6505 32.6077L41.6498 32.6215C41.5703 34.1426 41.4891 35.6973 41.4891 37.2568C41.4891 37.4494 41.5319 37.6999 41.6901 37.9412C41.851 38.1865 42.0676 38.3254 42.2476 38.399C42.4139 38.4669 42.5614 38.485 42.6395 38.4917C42.7188 38.4985 42.7914 38.4978 42.8064 38.4978C43.4531 38.4978 44.079 38.4469 44.6645 38.3928C44.774 38.3827 44.8816 38.3725 44.9877 38.3624C45.4624 38.3176 45.9069 38.2755 46.3574 38.2539C46.3614 38.2537 46.3654 38.2535 46.3695 38.2532C46.3782 38.2527 46.3869 38.2521 46.3956 38.2514C46.3996 38.2511 46.4041 38.2507 46.4105 38.2504C46.4181 38.2499 46.4281 38.2494 46.4426 38.2486L46.4494 38.2483C46.4719 38.2472 46.5106 38.2452 46.549 38.2423C46.6219 38.2367 46.8081 38.2214 47.0108 38.1396C47.2517 38.0425 47.4983 37.8596 47.6597 37.5637C47.8028 37.3012 47.8282 37.0413 47.8282 36.8648C47.8282 35.376 47.7709 33.8954 47.7147 32.4419L47.7145 32.4384C47.6692 31.2662 47.6246 30.1118 47.6087 28.9627C47.6667 28.9649 47.7252 28.9671 47.7844 28.9694L47.7939 28.9698C48.1498 28.9835 48.5298 28.9982 48.918 28.9982C48.9188 28.9982 48.9226 28.9983 48.9288 28.9985C48.9847 29.0003 49.2439 29.0083 49.4831 28.9973C49.6221 29.7388 49.9194 30.3604 50.3543 30.8745C50.4585 30.9978 50.5683 31.112 50.6821 31.218C50.5224 31.3333 50.3091 31.5196 50.1188 31.6901C49.8866 31.8983 49.6132 32.1523 49.3453 32.4075C49.0774 32.6626 48.8097 32.924 48.5894 33.1472C48.3923 33.3469 48.1723 33.5764 48.0513 33.7394C47.771 34.1169 47.7589 34.6301 48.0211 35.0205C48.1842 35.2634 48.346 35.4841 48.4935 35.6853L48.4985 35.6922C48.5182 35.7191 48.5392 35.7451 48.5612 35.7702L48.6793 35.9041C50.2962 37.875 52.7322 38.6844 55.0168 38.6844C56.2976 38.6844 57.7656 38.3314 58.9473 37.5476C60.16 36.7432 61.1105 35.4458 61.1105 33.6548C61.1105 31.7322 60.0186 30.0685 58.4852 29.1232C58.7979 28.8253 59.2131 28.3846 59.5837 27.9735C60.0524 27.4536 60.575 26.8427 60.8005 26.4945C61.0543 26.1027 61.0359 25.5939 60.7544 25.2214C60.1046 24.3616 59.1615 23.8067 58.2397 23.4677C57.3103 23.1258 56.3148 22.9702 55.4494 22.9702C54.1259 22.9702 52.6525 23.2452 51.473 24.0168C51.1639 24.2191 50.8795 24.4529 50.6268 24.7185C50.5566 24.5827 50.4385 24.4119 50.2391 24.2723C49.9984 24.1036 49.7585 24.0675 49.6717 24.0557C49.6196 24.0486 49.5457 24.0427 49.5065 24.0397C48.9874 23.9681 48.4104 23.9291 47.8834 23.8934C47.5959 23.874 47.3233 23.8555 47.0832 23.8334V23.8333L47.0746 23.8326L41.9973 23.4034L41.9973 23.4033L41.9862 23.4025C41.7912 23.388 41.5718 23.3661 41.338 23.3429C40.8143 23.2907 40.2187 23.2314 39.6659 23.2314C39.5309 23.2314 39.3344 23.2487 39.1243 23.3402C39.0305 23.3811 38.9441 23.4324 38.866 23.4923C38.7437 23.4054 38.6028 23.3427 38.4505 23.3109C37.6155 23.1364 36.7835 23.1195 36.0608 23.1195C36.0326 23.1195 35.9673 23.1184 35.8869 23.1171C35.7363 23.1146 35.5327 23.1113 35.4211 23.1125C35.1792 23.1152 34.8659 23.1303 34.5523 23.2081C34.1046 23.3192 33.7722 23.6955 33.7172 24.1535L33.5844 25.2594C33.5756 25.2466 33.5664 25.2339 33.557 25.2214C32.9072 24.3616 31.964 23.8067 31.0422 23.4677C30.1128 23.1258 29.1173 22.9702 28.2519 22.9702C26.9284 22.9702 25.4551 23.2452 24.2756 24.0168C23.6962 24.3959 23.2037 24.886 22.8436 25.4884C22.8551 25.1988 22.8619 24.9093 22.8619 24.6218C22.8619 24.4018 22.8108 24.2043 22.7939 24.139C22.7926 24.1341 22.7915 24.1299 22.7907 24.1266C22.6869 23.7145 22.357 23.3978 21.941 23.3109C21.106 23.1364 20.274 23.1195 19.5514 23.1195C19.5231 23.1195 19.4578 23.1184 19.3774 23.1171C19.2268 23.1146 19.0233 23.1113 18.9116 23.1125C18.6697 23.1152 18.3565 23.1303 18.0428 23.2081C17.8194 23.2636 17.6247 23.3851 17.4788 23.5498C17.1468 23.5143 16.8114 23.4767 16.4731 23.4388C15.2541 23.3021 13.9992 23.1615 12.742 23.102C12.5176 23.0914 12.2952 23.1492 12.1043 23.2676C11.8977 23.3957 11.7844 23.5643 11.7699 23.586C11.7693 23.5869 11.7688 23.5875 11.7686 23.5879C11.7327 23.6395 11.707 23.6853 11.6931 23.7107C11.6639 23.7645 11.6388 23.8184 11.6207 23.8585C11.5825 23.9434 11.5389 24.0496 11.4935 24.164C11.4012 24.3968 11.2809 24.7162 11.1441 25.0865C10.8834 25.7922 10.5521 26.7128 10.2189 27.6385L10.1663 27.7847C10.0763 28.0346 9.98655 28.284 9.89814 28.5291C9.86704 28.3984 9.83599 28.267 9.80497 28.1351C9.75752 27.9335 9.71008 27.7305 9.66254 27.5271C9.40679 26.4331 9.14826 25.3272 8.87253 24.3515C8.8421 24.2342 8.8072 24.1323 8.78336 24.0637C8.77878 24.0505 8.77467 24.0387 8.77097 24.0281C8.75068 23.9698 8.74263 23.9467 8.73571 23.9227C8.59057 23.4185 8.11233 23.0847 7.58901 23.1223C7.27702 23.1448 6.91633 23.1656 6.53066 23.1879C5.41878 23.2522 4.09932 23.3284 3.14079 23.4894C2.82632 23.5422 2.54973 23.7277 2.38148 23.9986C2.21322 24.2694 2.16954 24.5996 2.26155 24.9049C2.89882 27.0194 3.61563 29.106 4.32984 31.1695C4.3772 31.3063 4.42454 31.443 4.47185 31.5797C5.14021 33.5098 5.80166 35.4199 6.40174 37.3446C6.40825 37.3655 6.41537 37.3862 6.42309 37.4066C6.42675 37.4163 6.42925 37.4238 6.43787 37.4495C6.44031 37.4568 6.44323 37.4655 6.44681 37.4762C6.45941 37.5137 6.48364 37.5856 6.51762 37.6643C6.5957 37.8451 6.72345 38.0598 6.94918 38.2518C7.18175 38.4497 7.48552 38.543 7.78905 38.5099L11.2116 38.1367ZM32.9363 30.658C32.4965 30.0426 31.9309 29.5197 31.2877 29.1232C31.6004 28.8253 32.0157 28.3846 32.3863 27.9735C32.7462 27.5742 33.138 27.1213 33.4025 26.7749L32.9363 30.658ZM22.9214 31.6901C22.7669 31.8286 22.5942 31.9874 22.4169 32.1533L22.553 29.8928C22.7074 30.2562 22.91 30.5827 23.1568 30.8745C23.2611 30.9978 23.3709 31.112 23.4847 31.218C23.325 31.3332 23.1116 31.5196 22.9214 31.6901ZM27.6324 33.2129C27.0967 33.1468 26.5768 32.9339 26.1188 32.602C26.1538 32.614 26.1884 32.6259 26.2225 32.6376L26.2471 32.6461C26.5609 32.7539 26.834 32.8477 27.0864 32.9499C27.3162 33.0428 27.4942 33.1299 27.6324 33.2129ZM42.6935 28.9609C42.6972 28.9609 42.6958 28.961 42.6902 28.9609L42.6935 28.9609ZM54.8298 33.2129C54.2942 33.1468 53.7742 32.9339 53.3163 32.602C53.3512 32.614 53.3858 32.6259 53.4199 32.6376L53.4447 32.6461C53.7584 32.7539 54.0315 32.8477 54.2839 32.9499C54.5136 33.0428 54.6916 33.1299 54.8298 33.2129Z" stroke="white" stroke-width="2.22078" stroke-linejoin="round"/>
<ellipse cx="48.896" cy="31.3158" rx="1.48052" ry="1.10526" fill="white"/>
<path d="M10.2802 17.1594C9.67577 16.8128 9.21908 16.4929 8.48031 16.4929C6.90875 16.4929 5.53867 17.6927 5.53867 19.2924C5.53867 20.3188 6.16998 21.132 7.24456 21.132C8.82955 21.132 9.38026 20.2389 9.78323 19.9722C10.0519 20.1322 11.3682 21.3853 11.61 21.6519C11.4757 21.9452 10.6966 22.5851 10.4414 22.785C9.51459 23.5182 8.30569 23.8115 7.15053 23.8115C4.42381 23.8115 3 22.0252 3 19.4257C3 17.5594 3.7925 15.8397 5.48495 14.9332C6.3849 14.4533 7.40574 14.1067 8.44002 14.1067C9.43399 14.1067 10.2534 14.32 11.0727 14.9065C11.1399 14.9465 11.2742 15.0398 11.2742 15.1331C11.2742 15.2398 10.4145 16.9328 10.2802 17.1594Z" fill="#03036D"/>
<path d="M11.8986 14.4933C12.7985 14.3333 13.7254 14.3066 14.6387 14.28V14.4799C14.6387 16.1996 14.2626 17.9593 14.2626 19.7056C14.2626 20.5455 14.5044 21.412 15.485 21.412C16.1834 21.412 16.7073 20.7588 16.8282 20.1055C17.0834 18.6525 17.0968 17.1328 17.0968 15.653C17.0968 15.2798 17.1102 14.9198 17.1505 14.5599C18.0505 14.3599 18.9505 14.2133 19.8504 14.12C19.8638 14.1733 19.8638 14.2133 19.8638 14.2666C19.8638 16.133 19.7295 18.0259 19.4609 19.8789C19.2728 21.1454 19.1116 22.0252 18.0774 22.8384C17.352 23.4116 16.4521 23.7182 15.5387 23.7182C13.9806 23.7182 12.3284 22.945 12.006 21.2387C11.8851 20.5988 11.9254 19.9456 11.9254 19.3057C11.9254 17.7726 11.8851 16.2529 11.8851 14.7199C11.8851 14.6399 11.8851 14.5732 11.8986 14.4933Z" fill="#03036D"/>
<path d="M23.0288 16.3996V16.5595C23.0288 17.3194 23.0556 18.3325 23.0959 19.1324C24.0496 19.1191 25.554 18.3725 25.554 17.2394C25.554 16.4529 24.775 16.1996 24.1437 16.1996C23.7676 16.1996 23.3915 16.2796 23.0288 16.3996ZM28.6971 23.1716C28.4554 23.265 26.2256 23.7849 26.051 23.7849C26.0107 23.7849 25.9839 23.7715 25.9436 23.7715L24.6406 20.8787C24.1974 20.9454 23.7676 20.9854 23.3243 21.0254C23.3109 21.1054 23.3109 21.172 23.3109 21.2387C23.3109 21.9852 23.4317 22.8384 23.472 23.5849L23.3377 23.5982C22.4781 23.7182 21.5512 23.7582 20.6916 23.7449H20.5841C20.5707 23.6249 20.5707 23.5316 20.5707 23.4249C20.5707 20.5455 20.5035 17.666 20.5035 14.7865V14.3866C21.1617 14.16 23.3915 14 24.1437 14C26.145 14 28.3882 14.5066 28.3882 17.0794C28.3882 18.3725 27.7569 19.1724 26.8435 19.9589C27.1525 20.6121 28.6166 22.785 28.6971 23.1716Z" fill="#03036D"/>
<path d="M28.8124 23.6516L29.9407 14.2533C30.2093 14.1866 30.5451 14.2133 30.8272 14.2133C31.3376 14.2133 31.8615 14.2266 32.3719 14.3333C32.3853 14.3866 32.3987 14.4399 32.3987 14.4933C32.3987 15.5864 32.2644 16.5995 32.2107 17.6927L31.9018 22.825C31.8883 23.105 31.9018 23.3983 31.8346 23.6782C31.2436 23.7715 30.5585 23.7449 29.9541 23.7449C29.6049 23.7449 29.1482 23.7449 28.8124 23.6516Z" fill="#03036D"/>
<path d="M42.4753 18.7591C42.4753 21.7452 40.8365 23.7849 37.4785 23.7849C37.4382 23.7849 37.3845 23.7849 37.3442 23.7849C34.0802 23.7315 32.7235 21.2787 32.8579 18.7058C33.0056 15.9063 34.6712 14.0667 37.9755 14.0667C41.1858 14.0667 42.4753 16.2796 42.4753 18.7591ZM35.4234 18.9458C35.4234 20.3055 36.1756 21.5586 37.6666 21.5586C38.9829 21.5586 39.8829 20.6254 39.8426 18.7725C39.8157 17.2527 39.0098 16.2929 37.8277 16.2929C36.3636 16.2929 35.4234 17.2927 35.4234 18.9458Z" fill="#03036D"/>
<path d="M42.9735 14.4933C43.8735 14.3333 44.8003 14.3066 45.7137 14.28V14.4799C45.7137 16.1996 45.3376 17.9593 45.3376 19.7056C45.3376 20.5455 45.5793 21.412 46.5599 21.412C47.2584 21.412 47.7822 20.7588 47.9031 20.1055C48.1583 18.6525 48.1717 17.1328 48.1717 15.653C48.1717 15.2798 48.1852 14.9198 48.2255 14.5599C49.1254 14.3599 50.0254 14.2133 50.9253 14.12C50.9388 14.1733 50.9388 14.2133 50.9388 14.2666C50.9388 16.133 50.8044 18.0259 50.5358 19.8789C50.3478 21.1454 50.1866 22.0252 49.1523 22.8384C48.427 23.4116 47.527 23.7182 46.6136 23.7182C45.0555 23.7182 43.4033 22.945 43.081 21.2387C42.9601 20.5988 43.0004 19.9456 43.0004 19.3057C43.0004 17.7726 42.9601 16.2529 42.9601 14.7199C42.9601 14.6399 42.9601 14.5732 42.9735 14.4933Z" fill="#03036D"/>
<path d="M56.7659 17.2527C56.2823 16.7595 55.7854 16.2663 55.06 16.2663C54.7377 16.2663 54.1869 16.3862 54.1869 16.8262C54.1869 17.6793 55.7451 17.866 56.3495 18.0659C57.5853 18.4792 58.5255 19.6256 58.5255 20.9454C58.5255 22.865 56.5376 23.7449 54.966 23.7449C53.5019 23.7449 52.0109 23.225 51.0438 22.0385L50.9498 21.9319C50.8423 21.7852 50.7349 21.6386 50.6274 21.4786C50.8155 21.2253 52.0915 20.0122 52.3467 19.8389L52.4676 19.9989C53.0721 20.8654 54.0392 21.4386 55.0869 21.4386C55.4764 21.4386 55.8391 21.1587 55.8391 20.7321C55.8391 20.6121 55.8122 20.4921 55.7451 20.3988C54.8451 19.1191 51.7423 19.7056 51.7423 16.8928C51.7423 14.8265 53.5691 14.1067 55.2749 14.1067C56.3361 14.1067 57.7464 14.4933 58.4315 15.3998C58.1897 15.773 57.1151 16.9595 56.7659 17.2527Z" fill="#03036D"/>
<path d="M11.0912 37.0328L7.66866 37.4061C7.53703 37.2941 7.51822 37.1635 7.46181 37.0141C6.16426 32.8523 4.58464 28.765 3.32471 24.5845C4.54703 24.3792 6.37112 24.3232 7.66866 24.2299C7.70627 24.3605 7.76269 24.4911 7.8003 24.6404C8.43967 26.8987 8.98501 29.8848 9.7184 32.1244C9.88765 32.0124 12.5392 24.3045 12.6896 24.2112C14.2692 24.2858 15.83 24.4911 17.4096 24.6591C17.4285 24.6778 17.4285 24.7151 17.4285 24.7524C17.4285 24.8831 11.7305 35.801 11.0912 37.0328Z" fill="#03036D"/>
<path d="M16.7306 37.4434L18.3102 24.2858C18.6863 24.1925 19.1565 24.2299 19.5514 24.2299C20.2659 24.2299 20.9993 24.2485 21.7139 24.3978C21.7327 24.4725 21.7515 24.5471 21.7515 24.6218C21.7515 26.1522 21.5635 27.5706 21.4883 29.101L21.0558 36.2863C21.037 36.6782 21.0558 37.0888 20.9617 37.4807C20.1343 37.6114 19.1753 37.574 18.329 37.574C17.8401 37.574 17.2007 37.574 16.7306 37.4434Z" fill="#03036D"/>
<path d="M30.3393 28.4851C29.6623 27.7945 28.9665 27.104 27.951 27.104C27.4997 27.104 26.7287 27.272 26.7287 27.8878C26.7287 29.0823 28.9101 29.3436 29.7563 29.6235C31.4864 30.2021 32.8027 31.8071 32.8027 33.6548C32.8027 36.3423 30.0196 37.574 27.8194 37.574C25.7696 37.574 23.6823 36.8462 22.3283 35.1852L22.1967 35.0358C22.0463 34.8306 21.8958 34.6253 21.7454 34.4013C22.0086 34.0467 23.7951 32.3483 24.1524 32.1057L24.3217 32.3297C25.1679 33.5428 26.5218 34.3453 27.9886 34.3453C28.534 34.3453 29.0417 33.9534 29.0417 33.3562C29.0417 33.1882 29.0041 33.0202 28.9101 32.8896C27.6501 31.0979 23.3062 31.9191 23.3062 27.9812C23.3062 25.0884 25.8637 24.0806 28.2519 24.0806C29.7375 24.0806 31.712 24.6218 32.6711 25.8909C32.3326 26.4135 30.8282 28.0745 30.3393 28.4851Z" fill="#03036D"/>
<path d="M33.2401 37.4434L34.8197 24.2858C35.1958 24.1925 35.6659 24.2299 36.0608 24.2299C36.7754 24.2299 37.5088 24.2485 38.2234 24.3978C38.2422 24.4725 38.261 24.5471 38.261 24.6218C38.261 26.1522 38.073 27.5706 37.9977 29.101L37.5652 36.2863C37.5464 36.6782 37.5652 37.0888 37.4712 37.4807C36.6438 37.6114 35.6847 37.574 34.8385 37.574C34.3496 37.574 33.7102 37.574 33.2401 37.4434Z" fill="#03036D"/>
<path d="M42.9192 28.0745C42.9192 27.8878 42.8628 27.8505 42.6935 27.8505C41.9413 27.8132 41.1703 27.8692 40.4181 27.8692C40.2489 27.8692 39.1958 27.9252 39.1958 27.7012C39.1958 26.6561 39.3275 25.5736 39.4779 24.5471C39.4967 24.4352 39.4967 24.3418 39.6659 24.3418C40.4181 24.3418 41.1515 24.4538 41.9037 24.5098L46.9811 24.9391C47.7897 25.0137 48.5983 25.0324 49.3881 25.1444C49.6138 25.163 49.6326 25.1444 49.689 25.387C49.8394 26.0962 49.9523 26.936 49.9523 27.6825C49.9523 27.9438 49.1249 27.8878 48.918 27.8878C48.1846 27.8878 47.47 27.8319 46.7366 27.8319C46.5486 27.8319 46.4922 27.9252 46.4922 28.1118C46.4922 31.0233 46.7178 33.9347 46.7178 36.8648C46.7178 37.1635 46.5298 37.1261 46.3041 37.1448C45.1382 37.2008 43.9911 37.3874 42.8064 37.3874C42.7123 37.3874 42.5995 37.3874 42.5995 37.2568C42.5995 34.196 42.9192 31.1352 42.9192 28.0745Z" fill="#03036D"/>
<path d="M57.5367 28.4851C56.8597 27.7945 56.1639 27.104 55.1485 27.104C54.6972 27.104 53.9261 27.272 53.9261 27.8878C53.9261 29.0823 56.1075 29.3436 56.9538 29.6235C58.6838 30.2021 60.0002 31.8071 60.0002 33.6548C60.0002 36.3423 57.217 37.574 55.0168 37.574C52.9671 37.574 50.8797 36.8462 49.5258 35.1852L49.3941 35.0358C49.2437 34.8306 49.0933 34.6253 48.9428 34.4013C49.2061 34.0467 50.9926 32.3483 51.3499 32.1057L51.5191 32.3297C52.3653 33.5428 53.7193 34.3453 55.1861 34.3453C55.7314 34.3453 56.2392 33.9534 56.2392 33.3562C56.2392 33.1882 56.2016 33.0202 56.1075 32.8896C54.8476 31.0979 50.5036 31.9191 50.5036 27.9812C50.5036 25.0884 53.0611 24.0806 55.4494 24.0806C56.9349 24.0806 58.9095 24.6218 59.8685 25.8909C59.53 26.4135 58.0256 28.0745 57.5367 28.4851Z" fill="#03036D"/>
</svg>
