<svg width="152" height="70" viewBox="0 0 152 70" fill="none" xmlns="http://www.w3.org/2000/svg">
<mask id="path-1-outside-1_13_1892" maskUnits="userSpaceOnUse" x="0" y="0" width="148" height="37" fill="black">
<rect fill="white" width="148" height="37"/>
<path d="M24.6258 14.5035C23.1624 13.6804 22.0567 12.9205 20.2681 12.9205C16.4633 12.9205 13.1463 15.77 13.1463 19.5692C13.1463 22.0071 14.6747 23.9384 17.2763 23.9384C21.1136 23.9384 22.447 21.8171 23.4226 21.1839C24.073 21.5638 27.2599 24.5399 27.8453 25.1731C27.5201 25.8697 25.6339 27.3894 25.016 27.8643C22.7722 29.6056 19.8454 30.3021 17.0487 30.3021C10.4471 30.3021 7 26.0596 7 19.8858C7 15.4534 8.91867 11.3691 13.0162 9.21623C15.195 8.07646 17.6665 7.25328 20.1706 7.25328C22.577 7.25328 24.5608 7.75985 26.5445 9.15291C26.7071 9.24789 27.0323 9.46952 27.0323 9.69114C27.0323 9.94443 24.951 13.9653 24.6258 14.5035Z"/>
<path d="M28.5439 8.17144C30.7228 7.79151 32.9666 7.72819 35.178 7.66487V8.13978C35.178 12.224 34.2674 16.4032 34.2674 20.5507C34.2674 22.5453 34.8528 24.6032 37.2268 24.6032C38.9178 24.6032 40.1861 23.0519 40.4787 21.5005C41.0966 18.0495 41.1291 14.4402 41.1291 10.9259C41.1291 10.0394 41.1617 9.18457 41.2592 8.32974C43.4381 7.85483 45.6169 7.50657 47.7957 7.28494C47.8282 7.41159 47.8282 7.50657 47.8282 7.63321C47.8282 12.0657 47.503 16.5615 46.8526 20.9623C46.3974 23.97 46.0071 26.0596 43.5031 27.9909C41.747 29.3523 39.5682 30.0805 37.3568 30.0805C33.5845 30.0805 29.5846 28.2442 28.8041 24.1916C28.5114 22.6719 28.609 21.1206 28.609 19.6009C28.609 15.9599 28.5114 12.3506 28.5114 8.70967C28.5114 8.5197 28.5114 8.3614 28.5439 8.17144Z"/>
<path d="M55.4907 12.6989V13.0788C55.4907 14.8835 55.5558 17.2897 55.6533 19.1893C57.9623 19.1576 61.6045 17.3846 61.6045 14.6935C61.6045 12.8255 59.7183 12.224 58.1899 12.224C57.2793 12.224 56.3688 12.4139 55.4907 12.6989ZM69.2141 28.7824C68.6288 29.004 63.2305 30.2388 62.8077 30.2388C62.7102 30.2388 62.6451 30.2071 62.5476 30.2071L59.3931 23.3368C58.32 23.4951 57.2793 23.5901 56.2062 23.6851C56.1737 23.875 56.1737 24.0333 56.1737 24.1916C56.1737 25.9646 56.4663 27.9909 56.5639 29.7639L56.2387 29.7956C54.1574 30.0805 51.9136 30.1755 49.8323 30.1438H49.5721C49.5396 29.8589 49.5396 29.6372 49.5396 29.384C49.5396 22.5453 49.377 15.7066 49.377 8.86797V7.91815C50.9705 7.37992 56.3688 7 58.1899 7C63.0354 7 68.4662 8.2031 68.4662 14.3136C68.4662 17.3846 66.9378 19.2843 64.7264 21.1522C65.4744 22.7036 69.019 27.8643 69.2141 28.7824Z"/>
<path d="M69.4931 29.9222L72.2248 7.60155C72.8752 7.44325 73.6882 7.50657 74.3711 7.50657C75.6069 7.50657 76.8751 7.53823 78.1109 7.79151C78.1434 7.91815 78.1759 8.0448 78.1759 8.17144C78.1759 10.7676 77.8507 13.1738 77.7206 15.77L76.9727 27.9592C76.9402 28.6241 76.9727 29.3206 76.8101 29.9855C75.3792 30.2071 73.7207 30.1438 72.2573 30.1438C71.4118 30.1438 70.3061 30.1438 69.4931 29.9222Z"/>
<path d="M102.572 18.3028C102.572 25.3947 98.6043 30.2388 90.4743 30.2388C90.3767 30.2388 90.2467 30.2388 90.1491 30.2388C82.2468 30.1122 78.9622 24.2866 79.2874 18.1762C79.6452 11.5275 83.6776 7.1583 91.6775 7.1583C99.4498 7.1583 102.572 12.4139 102.572 18.3028ZM85.4988 18.746C85.4988 21.9754 87.3199 24.9515 90.9296 24.9515C94.1165 24.9515 96.2954 22.7353 96.1978 18.3345C96.1328 14.7252 94.1816 12.4456 91.3198 12.4456C87.7751 12.4456 85.4988 14.8201 85.4988 18.746Z"/>
<path d="M103.778 8.17144C105.957 7.79151 108.201 7.72819 110.412 7.66487V8.13978C110.412 12.224 109.502 16.4032 109.502 20.5507C109.502 22.5453 110.087 24.6032 112.461 24.6032C114.152 24.6032 115.42 23.0519 115.713 21.5005C116.331 18.0495 116.363 14.4402 116.363 10.9259C116.363 10.0394 116.396 9.18457 116.493 8.32974C118.672 7.85483 120.851 7.50657 123.03 7.28494C123.062 7.41159 123.062 7.50657 123.062 7.63321C123.062 12.0657 122.737 16.5615 122.087 20.9623C121.631 23.97 121.241 26.0596 118.737 27.9909C116.981 29.3523 114.802 30.0805 112.591 30.0805C108.819 30.0805 104.819 28.2442 104.038 24.1916C103.745 22.6719 103.843 21.1206 103.843 19.6009C103.843 15.9599 103.745 12.3506 103.745 8.70967C103.745 8.5197 103.745 8.3614 103.778 8.17144Z"/>
<path d="M137.17 14.7252C135.999 13.5537 134.796 12.3823 133.04 12.3823C132.26 12.3823 130.926 12.6672 130.926 13.712C130.926 15.7383 134.699 16.1815 136.162 16.6564C139.154 17.6379 141.43 20.3607 141.43 23.4951C141.43 28.0542 136.617 30.1438 132.812 30.1438C129.268 30.1438 125.658 28.9091 123.317 26.0913L123.089 25.838C122.829 25.4897 122.569 25.1415 122.309 24.7615C122.764 24.16 125.853 21.2789 126.471 20.8673L126.764 21.2472C128.227 23.3052 130.569 24.6666 133.105 24.6666C134.048 24.6666 134.926 24.0017 134.926 22.9885C134.926 22.7036 134.861 22.4187 134.699 22.197C132.52 19.1576 125.008 20.5507 125.008 13.8703C125.008 8.96295 129.43 7.25328 133.56 7.25328C136.129 7.25328 139.544 8.17144 141.203 10.3244C140.617 11.2108 138.016 14.0286 137.17 14.7252Z"/>
</mask>
<path d="M24.6258 14.5035C23.1624 13.6804 22.0567 12.9205 20.2681 12.9205C16.4633 12.9205 13.1463 15.77 13.1463 19.5692C13.1463 22.0071 14.6747 23.9384 17.2763 23.9384C21.1136 23.9384 22.447 21.8171 23.4226 21.1839C24.073 21.5638 27.2599 24.5399 27.8453 25.1731C27.5201 25.8697 25.6339 27.3894 25.016 27.8643C22.7722 29.6056 19.8454 30.3021 17.0487 30.3021C10.4471 30.3021 7 26.0596 7 19.8858C7 15.4534 8.91867 11.3691 13.0162 9.21623C15.195 8.07646 17.6665 7.25328 20.1706 7.25328C22.577 7.25328 24.5608 7.75985 26.5445 9.15291C26.7071 9.24789 27.0323 9.46952 27.0323 9.69114C27.0323 9.94443 24.951 13.9653 24.6258 14.5035Z" stroke="white" stroke-width="12.4583" stroke-linejoin="round" mask="url(#path-1-outside-1_13_1892)"/>
<path d="M28.5439 8.17144C30.7228 7.79151 32.9666 7.72819 35.178 7.66487V8.13978C35.178 12.224 34.2674 16.4032 34.2674 20.5507C34.2674 22.5453 34.8528 24.6032 37.2268 24.6032C38.9178 24.6032 40.1861 23.0519 40.4787 21.5005C41.0966 18.0495 41.1291 14.4402 41.1291 10.9259C41.1291 10.0394 41.1617 9.18457 41.2592 8.32974C43.4381 7.85483 45.6169 7.50657 47.7957 7.28494C47.8282 7.41159 47.8282 7.50657 47.8282 7.63321C47.8282 12.0657 47.503 16.5615 46.8526 20.9623C46.3974 23.97 46.0071 26.0596 43.5031 27.9909C41.747 29.3523 39.5682 30.0805 37.3568 30.0805C33.5845 30.0805 29.5846 28.2442 28.8041 24.1916C28.5114 22.6719 28.609 21.1206 28.609 19.6009C28.609 15.9599 28.5114 12.3506 28.5114 8.70967C28.5114 8.5197 28.5114 8.3614 28.5439 8.17144Z" stroke="white" stroke-width="12.4583" stroke-linejoin="round" mask="url(#path-1-outside-1_13_1892)"/>
<path d="M55.4907 12.6989V13.0788C55.4907 14.8835 55.5558 17.2897 55.6533 19.1893C57.9623 19.1576 61.6045 17.3846 61.6045 14.6935C61.6045 12.8255 59.7183 12.224 58.1899 12.224C57.2793 12.224 56.3688 12.4139 55.4907 12.6989ZM69.2141 28.7824C68.6288 29.004 63.2305 30.2388 62.8077 30.2388C62.7102 30.2388 62.6451 30.2071 62.5476 30.2071L59.3931 23.3368C58.32 23.4951 57.2793 23.5901 56.2062 23.6851C56.1737 23.875 56.1737 24.0333 56.1737 24.1916C56.1737 25.9646 56.4663 27.9909 56.5639 29.7639L56.2387 29.7956C54.1574 30.0805 51.9136 30.1755 49.8323 30.1438H49.5721C49.5396 29.8589 49.5396 29.6372 49.5396 29.384C49.5396 22.5453 49.377 15.7066 49.377 8.86797V7.91815C50.9705 7.37992 56.3688 7 58.1899 7C63.0354 7 68.4662 8.2031 68.4662 14.3136C68.4662 17.3846 66.9378 19.2843 64.7264 21.1522C65.4744 22.7036 69.019 27.8643 69.2141 28.7824Z" stroke="white" stroke-width="12.4583" stroke-linejoin="round" mask="url(#path-1-outside-1_13_1892)"/>
<path d="M69.4931 29.9222L72.2248 7.60155C72.8752 7.44325 73.6882 7.50657 74.3711 7.50657C75.6069 7.50657 76.8751 7.53823 78.1109 7.79151C78.1434 7.91815 78.1759 8.0448 78.1759 8.17144C78.1759 10.7676 77.8507 13.1738 77.7206 15.77L76.9727 27.9592C76.9402 28.6241 76.9727 29.3206 76.8101 29.9855C75.3792 30.2071 73.7207 30.1438 72.2573 30.1438C71.4118 30.1438 70.3061 30.1438 69.4931 29.9222Z" stroke="white" stroke-width="12.4583" stroke-linejoin="round" mask="url(#path-1-outside-1_13_1892)"/>
<path d="M102.572 18.3028C102.572 25.3947 98.6043 30.2388 90.4743 30.2388C90.3767 30.2388 90.2467 30.2388 90.1491 30.2388C82.2468 30.1122 78.9622 24.2866 79.2874 18.1762C79.6452 11.5275 83.6776 7.1583 91.6775 7.1583C99.4498 7.1583 102.572 12.4139 102.572 18.3028ZM85.4988 18.746C85.4988 21.9754 87.3199 24.9515 90.9296 24.9515C94.1165 24.9515 96.2954 22.7353 96.1978 18.3345C96.1328 14.7252 94.1816 12.4456 91.3198 12.4456C87.7751 12.4456 85.4988 14.8201 85.4988 18.746Z" stroke="white" stroke-width="12.4583" stroke-linejoin="round" mask="url(#path-1-outside-1_13_1892)"/>
<path d="M103.778 8.17144C105.957 7.79151 108.201 7.72819 110.412 7.66487V8.13978C110.412 12.224 109.502 16.4032 109.502 20.5507C109.502 22.5453 110.087 24.6032 112.461 24.6032C114.152 24.6032 115.42 23.0519 115.713 21.5005C116.331 18.0495 116.363 14.4402 116.363 10.9259C116.363 10.0394 116.396 9.18457 116.493 8.32974C118.672 7.85483 120.851 7.50657 123.03 7.28494C123.062 7.41159 123.062 7.50657 123.062 7.63321C123.062 12.0657 122.737 16.5615 122.087 20.9623C121.631 23.97 121.241 26.0596 118.737 27.9909C116.981 29.3523 114.802 30.0805 112.591 30.0805C108.819 30.0805 104.819 28.2442 104.038 24.1916C103.745 22.6719 103.843 21.1206 103.843 19.6009C103.843 15.9599 103.745 12.3506 103.745 8.70967C103.745 8.5197 103.745 8.3614 103.778 8.17144Z" stroke="white" stroke-width="12.4583" stroke-linejoin="round" mask="url(#path-1-outside-1_13_1892)"/>
<path d="M137.17 14.7252C135.999 13.5537 134.796 12.3823 133.04 12.3823C132.26 12.3823 130.926 12.6672 130.926 13.712C130.926 15.7383 134.699 16.1815 136.162 16.6564C139.154 17.6379 141.43 20.3607 141.43 23.4951C141.43 28.0542 136.617 30.1438 132.812 30.1438C129.268 30.1438 125.658 28.9091 123.317 26.0913L123.089 25.838C122.829 25.4897 122.569 25.1415 122.309 24.7615C122.764 24.16 125.853 21.2789 126.471 20.8673L126.764 21.2472C128.227 23.3052 130.569 24.6666 133.105 24.6666C134.048 24.6666 134.926 24.0017 134.926 22.9885C134.926 22.7036 134.861 22.4187 134.699 22.197C132.52 19.1576 125.008 20.5507 125.008 13.8703C125.008 8.96295 129.43 7.25328 133.56 7.25328C136.129 7.25328 139.544 8.17144 141.203 10.3244C140.617 11.2108 138.016 14.0286 137.17 14.7252Z" stroke="white" stroke-width="12.4583" stroke-linejoin="round" mask="url(#path-1-outside-1_13_1892)"/>
<mask id="path-2-outside-2_13_1892" maskUnits="userSpaceOnUse" x="0.785645" y="23.9414" width="151" height="46" fill="black">
<rect fill="white" x="0.785645" y="23.9414" width="151" height="46"/>
<path d="M26.5887 61.7027L18.3026 62.5892C17.9839 62.3233 17.9384 62.013 17.8018 61.6584C14.6604 51.774 10.836 42.0669 7.78564 32.1382C10.745 31.6506 15.1612 31.5176 18.3026 31.296C18.3936 31.6063 18.5302 31.9166 18.6213 32.2711C20.1692 37.6344 21.4895 44.7264 23.2651 50.0454C23.6749 49.7794 30.0943 31.4733 30.4585 31.2517C34.2829 31.429 38.0617 31.9165 41.886 32.3155C41.9316 32.3598 41.9316 32.4484 41.9316 32.5371C41.9316 32.8474 28.1366 58.7773 26.5887 61.7027Z"/>
<path d="M40.242 62.6779L44.0664 31.429C44.9769 31.2074 46.1151 31.296 47.0712 31.296C48.8013 31.296 50.5769 31.3403 52.3069 31.6949C52.3525 31.8722 52.398 32.0495 52.398 32.2268C52.398 35.8614 51.9427 39.2301 51.7606 42.8647L50.7135 59.9298C50.6679 60.8606 50.7135 61.8357 50.4858 62.7665C48.4826 63.0768 46.1607 62.9882 44.1119 62.9882C42.9282 62.9882 41.3802 62.9882 40.242 62.6779Z"/>
<path d="M73.1893 41.402C71.5503 39.762 69.8658 38.122 67.4073 38.122C66.3146 38.122 64.4479 38.5209 64.4479 39.9836C64.4479 42.8204 69.7292 43.441 71.7779 44.1058C75.9665 45.4799 79.1535 49.2918 79.1535 53.68C79.1535 60.0627 72.4153 62.9882 67.0886 62.9882C62.126 62.9882 57.0724 61.2595 53.7944 57.3146L53.4757 56.96C53.1115 56.4724 52.7473 55.9849 52.3831 55.453C53.0204 54.6108 57.3456 50.5772 58.2106 50.001L58.6204 50.5329C60.6691 53.414 63.9471 55.32 67.4983 55.32C68.8186 55.32 70.0479 54.3892 70.0479 52.9708C70.0479 52.5719 69.9568 52.1729 69.7292 51.8627C66.6788 47.6075 56.1619 49.5578 56.1619 40.2053C56.1619 33.3349 62.3537 30.9414 68.1357 30.9414C71.7324 30.9414 76.5128 32.2268 78.8348 35.2409C78.0153 36.482 74.373 40.4269 73.1893 41.402Z"/>
<path d="M80.2123 62.6779L84.0367 31.429C84.9472 31.2074 86.0854 31.296 87.0415 31.296C88.7716 31.296 90.5472 31.3403 92.2772 31.6949C92.3227 31.8722 92.3683 32.0495 92.3683 32.2268C92.3683 35.8614 91.913 39.2301 91.7309 42.8647L90.6837 59.9298C90.6382 60.8606 90.6837 61.8357 90.4561 62.7665C88.4529 63.0768 86.131 62.9882 84.0822 62.9882C82.8985 62.9882 81.3505 62.9882 80.2123 62.6779Z"/>
<path d="M103.646 40.4269C103.646 39.9836 103.509 39.895 103.1 39.895C101.279 39.8063 99.4119 39.9393 97.5908 39.9393C97.1811 39.9393 94.6315 40.0723 94.6315 39.5404C94.6315 37.0582 94.9502 34.4874 95.3144 32.0495C95.36 31.7836 95.36 31.562 95.7697 31.562C97.5908 31.562 99.3664 31.8279 101.188 31.9609L113.48 32.9803C115.438 33.1576 117.395 33.202 119.308 33.4679C119.854 33.5122 119.899 33.4679 120.036 34.0441C120.4 35.7285 120.673 37.7231 120.673 39.4961C120.673 40.1166 118.67 39.9836 118.169 39.9836C116.394 39.9836 114.664 39.8507 112.888 39.8507C112.433 39.8507 112.296 40.0723 112.296 40.5155C112.296 47.4302 112.843 54.3448 112.843 61.3038C112.843 62.013 112.387 61.9244 111.841 61.9687C109.018 62.1017 106.241 62.5449 103.373 62.5449C103.145 62.5449 102.872 62.5449 102.872 62.2346C102.872 54.9654 103.646 47.6961 103.646 40.4269Z"/>
<path d="M139.036 41.402C137.397 39.762 135.712 38.122 133.254 38.122C132.161 38.122 130.294 38.5209 130.294 39.9836C130.294 42.8204 135.576 43.441 137.624 44.1058C141.813 45.4799 145 49.2918 145 53.68C145 60.0627 138.262 62.9882 132.935 62.9882C127.973 62.9882 122.919 61.2595 119.641 57.3146L119.322 56.96C118.958 56.4724 118.594 55.9849 118.23 55.453C118.867 54.6108 123.192 50.5772 124.057 50.001L124.467 50.5329C126.516 53.414 129.794 55.32 133.345 55.32C134.665 55.32 135.894 54.3892 135.894 52.9708C135.894 52.5719 135.803 52.1729 135.576 51.8627C132.525 47.6075 122.008 49.5578 122.008 40.2053C122.008 33.3349 128.2 30.9414 133.982 30.9414C137.579 30.9414 142.359 32.2268 144.681 35.2409C143.862 36.482 140.219 40.4269 139.036 41.402Z"/>
</mask>
<path d="M26.5887 61.7027L27.2513 67.8965C29.3107 67.6762 31.1259 66.4467 32.0945 64.6161L26.5887 61.7027ZM18.3026 62.5892L14.3115 67.3719C15.6075 68.4534 17.2869 68.9626 18.9652 68.783L18.3026 62.5892ZM17.8018 61.6584L11.8652 63.5452C11.9029 63.6638 11.9442 63.7813 11.9889 63.8974L17.8018 61.6584ZM7.78564 32.1382L6.773 25.9919C4.99887 26.2842 3.43759 27.3288 2.49056 28.8573C1.54353 30.3857 1.30313 32.2488 1.83118 33.9675L7.78564 32.1382ZM18.3026 31.296L24.2797 29.5419C23.4551 26.7323 20.7851 24.8762 17.8642 25.0823L18.3026 31.296ZM18.6213 32.2711L12.5879 33.8204C12.6032 33.88 12.6194 33.9394 12.6364 33.9985L18.6213 32.2711ZM23.2651 50.0454L17.3565 52.0178C17.9668 53.8461 19.3892 55.2889 21.2087 55.9252C23.0281 56.5616 25.0396 56.3198 26.6564 55.2704L23.2651 50.0454ZM30.4585 31.2517L30.747 25.0292C29.508 24.9718 28.2801 25.2855 27.2205 25.9302L30.4585 31.2517ZM41.886 32.3155L46.2313 27.8522C45.2281 26.8755 43.925 26.2652 42.5323 26.1199L41.886 32.3155ZM40.242 62.6779L34.059 61.9212C33.6832 64.9924 35.6186 67.874 38.6038 68.6877L40.242 62.6779ZM44.0664 31.429L42.5933 25.3765C40.0742 25.9896 38.1983 28.0989 37.8834 30.6723L44.0664 31.429ZM52.3069 31.6949L58.3403 30.1457C57.7479 27.8383 55.8913 26.071 53.5577 25.5926L52.3069 31.6949ZM51.7606 42.8647L57.9781 43.2463C57.9795 43.223 57.9808 43.1997 57.9819 43.1765L51.7606 42.8647ZM50.7135 59.9298L44.496 59.5482C44.4944 59.574 44.493 59.5997 44.4918 59.6254L50.7135 59.9298ZM50.4858 62.7665L51.4393 68.9223C53.9272 68.5369 55.9386 66.6918 56.5366 64.2463L50.4858 62.7665ZM73.1893 41.402L68.7833 45.8053C71.0517 48.0751 74.6732 48.2502 77.15 46.2099L73.1893 41.402ZM71.7779 44.1058L73.7196 38.187C73.7133 38.185 73.707 38.1829 73.7007 38.1809L71.7779 44.1058ZM53.7944 57.3146L58.5854 53.3335C58.5339 53.2716 58.4812 53.2106 58.4274 53.1507L53.7944 57.3146ZM53.4757 56.96L48.4853 60.6879C48.5978 60.8386 48.7171 60.9841 48.8428 61.1239L53.4757 56.96ZM52.3831 55.453L47.4161 51.6938C45.7991 53.8303 45.7295 56.7616 47.2434 58.9724L52.3831 55.453ZM58.2106 50.001L63.1453 46.1995C61.1472 43.6058 57.4822 43.0016 54.7572 44.8168L58.2106 50.001ZM58.6204 50.5329L63.6969 46.923C63.6508 46.8583 63.6035 46.7944 63.555 46.7314L58.6204 50.5329ZM69.7292 51.8627L64.6665 55.4919C64.6798 55.5105 64.6932 55.529 64.7068 55.5475L69.7292 51.8627ZM78.8348 35.2409L84.0329 38.6733C85.4989 36.4531 85.393 33.547 83.7694 31.4394L78.8348 35.2409ZM80.2123 62.6779L74.0293 61.9212C73.6535 64.9924 75.5889 67.874 78.574 68.6877L80.2123 62.6779ZM84.0367 31.429L82.5635 25.3765C80.0445 25.9896 78.1686 28.0989 77.8537 30.6723L84.0367 31.429ZM92.2772 31.6949L98.3106 30.1457C97.7181 27.8383 95.8616 26.071 93.528 25.5926L92.2772 31.6949ZM91.7309 42.8647L97.9483 43.2463C97.9498 43.223 97.9511 43.1997 97.9522 43.1765L91.7309 42.8647ZM90.6837 59.9298L84.4663 59.5482C84.4647 59.574 84.4633 59.5997 84.462 59.6254L90.6837 59.9298ZM90.4561 62.7665L91.4095 68.9223C93.8975 68.5369 95.9089 66.6918 96.5069 64.2463L90.4561 62.7665ZM103.1 39.895L102.797 46.1168C102.898 46.1217 102.999 46.1241 103.1 46.1241V39.895ZM95.3144 32.0495L89.1746 30.9984C89.1672 31.0419 89.1602 31.0855 89.1537 31.1291L95.3144 32.0495ZM101.188 31.9609L101.702 25.753C101.682 25.7514 101.662 25.7498 101.641 25.7483L101.188 31.9609ZM113.48 32.9803L114.042 26.7766C114.026 26.7752 114.011 26.7738 113.995 26.7725L113.48 32.9803ZM119.308 33.4679L118.45 39.6377C118.567 39.654 118.685 39.667 118.804 39.6767L119.308 33.4679ZM120.036 34.0441L126.124 32.7276C126.116 32.6874 126.107 32.6474 126.097 32.6074L120.036 34.0441ZM111.841 61.9687L112.134 68.1909C112.204 68.1876 112.275 68.1831 112.345 68.1774L111.841 61.9687ZM139.036 41.402L134.63 45.8053C136.898 48.0751 140.52 48.2502 142.996 46.2099L139.036 41.402ZM137.624 44.1058L139.566 38.187C139.56 38.185 139.553 38.1829 139.547 38.1809L137.624 44.1058ZM119.641 57.3146L124.432 53.3335C124.38 53.2716 124.328 53.2106 124.274 53.1507L119.641 57.3146ZM119.322 56.96L114.332 60.6879C114.444 60.8386 114.564 60.984 114.689 61.1239L119.322 56.96ZM118.23 55.453L113.263 51.6938C111.646 53.8303 111.576 56.7616 113.09 58.9724L118.23 55.453ZM124.057 50.001L128.992 46.1996C126.994 43.6058 123.329 43.0016 120.604 44.8168L124.057 50.001ZM124.467 50.5329L129.543 46.923C129.497 46.8583 129.45 46.7944 129.402 46.7315L124.467 50.5329ZM135.576 51.8627L130.513 55.4919C130.526 55.5105 130.54 55.529 130.553 55.5475L135.576 51.8627ZM144.681 35.2409L149.879 38.6733C151.345 36.4531 151.24 33.547 149.616 31.4394L144.681 35.2409ZM25.926 55.5089L17.6399 56.3954L18.9652 68.783L27.2513 67.8965L25.926 55.5089ZM22.2937 57.8066C22.6285 58.0861 22.9298 58.4119 23.1856 58.7716C23.4354 59.1229 23.5928 59.4378 23.6851 59.6474C23.7659 59.8309 23.8096 59.9668 23.7861 59.8983C23.7837 59.8912 23.7033 59.6496 23.6146 59.4194L11.9889 63.8974C11.9686 63.8446 11.9451 63.7747 11.9995 63.9338C12.033 64.0315 12.1336 64.3282 12.2827 64.6668C12.6404 65.4793 13.2485 66.4848 14.3115 67.3719L22.2937 57.8066ZM23.7383 59.7717C22.1315 54.716 20.3532 49.7156 18.6338 44.8423C16.9015 39.9326 15.223 35.1354 13.7401 30.3088L1.83118 33.9675C3.3987 39.0697 5.15751 44.0904 6.88533 48.9875C8.62604 53.9211 10.3306 58.7164 11.8652 63.5452L23.7383 59.7717ZM8.79829 38.2845C11.3793 37.8592 15.1256 37.7648 18.741 37.5097L17.8642 25.0823C15.1967 25.2705 10.1107 25.442 6.773 25.9919L8.79829 38.2845ZM12.3255 33.0501C12.3864 33.2576 12.4464 33.4365 12.4902 33.5631C12.5276 33.6714 12.5774 33.8105 12.5902 33.8467C12.6384 33.9826 12.6157 33.9288 12.5879 33.8204L24.6547 30.7219C24.5358 30.2589 24.3993 29.8727 24.3337 29.6873C24.2895 29.5627 24.2825 29.5439 24.2658 29.4957C24.2555 29.4658 24.2643 29.4895 24.2797 29.5419L12.3255 33.0501ZM12.6364 33.9985C13.3595 36.5037 14.0312 39.4202 14.8005 42.6277C15.5429 45.7229 16.3724 49.0699 17.3565 52.0178L29.1737 48.0729C28.3822 45.7019 27.6638 42.8434 26.9152 39.722C26.1935 36.713 25.431 33.4019 24.6061 30.5438L12.6364 33.9985ZM26.6564 55.2704C27.6918 54.5984 28.2611 53.7738 28.3334 53.674C28.5281 53.4052 28.6644 53.1729 28.7335 53.0516C28.8784 52.7973 28.9892 52.5659 29.0512 52.4334C29.1865 52.1443 29.3225 51.8218 29.4419 51.53C29.69 50.9239 29.9996 50.1228 30.3364 49.2331C31.0151 47.4403 31.8792 45.0878 32.7268 42.7776C33.5818 40.4476 34.4202 38.1601 35.0682 36.4391C35.3944 35.5727 35.6549 34.8964 35.8366 34.447C35.8806 34.3382 35.916 34.2525 35.9435 34.1875C35.9724 34.1193 35.985 34.0917 35.984 34.0938C35.9831 34.0958 35.9735 34.1167 35.9564 34.1513C35.9412 34.1821 35.9058 34.253 35.8533 34.3477C35.812 34.4221 35.698 34.6244 35.5219 34.8734C35.5081 34.8928 34.886 35.8493 33.6965 36.5731L27.2205 25.9302C26.0197 26.661 25.3832 27.6333 25.3523 27.677C25.1589 27.9502 25.0249 28.1854 24.9608 28.301C24.8236 28.548 24.7183 28.7729 24.6605 28.8989C24.5329 29.177 24.4027 29.4903 24.2868 29.7768C24.0461 30.3721 23.7421 31.1644 23.4089 32.0494C22.7379 33.8315 21.8776 36.1788 21.031 38.4862C20.177 40.8135 19.3366 43.1012 18.685 44.8225C18.3567 45.6898 18.0948 46.3643 17.9119 46.8111C17.8677 46.9191 17.8324 47.0034 17.8052 47.0666C17.7767 47.1331 17.765 47.1579 17.7676 47.1524C17.7694 47.1486 17.7802 47.1257 17.7988 47.0887C17.8156 47.0554 17.8529 46.9825 17.908 46.8858C17.9529 46.8069 18.0679 46.6087 18.244 46.3657C18.2977 46.2915 18.8512 45.484 19.8738 44.8203L26.6564 55.2704ZM30.1701 37.4741C33.7561 37.6404 37.2141 38.0911 41.2398 38.511L42.5323 26.1199C38.9093 25.742 34.8097 25.2176 30.747 25.0292L30.1701 37.4741ZM37.5407 36.7787C36.0931 35.3694 35.8259 33.7446 35.7627 33.314C35.6895 32.8152 35.7024 32.3747 35.7024 32.5371H48.1607C48.1607 32.5345 48.1613 32.4076 48.1566 32.265C48.1517 32.1191 48.1386 31.8435 48.089 31.5053C48.0144 30.9971 47.7244 29.3059 46.2313 27.8522L37.5407 36.7787ZM35.7024 32.5371C35.7024 31.9132 35.7986 31.4332 35.8356 31.2578C35.8838 31.0291 35.9354 30.8492 35.9665 30.7462C36.0286 30.5409 36.0875 30.3861 36.1112 30.3247C36.1633 30.19 36.2053 30.0972 36.2091 30.0888C36.2246 30.0543 36.2206 30.0647 36.1789 30.1502C36.1026 30.3065 35.974 30.5625 35.7884 30.926C35.4219 31.6434 34.8881 32.672 34.2315 33.928C32.9213 36.4345 31.1542 39.7854 29.3341 43.2271C25.6658 50.1633 21.8931 57.258 21.0828 58.7894L32.0945 64.6161C32.8322 63.222 36.7309 55.8891 40.3471 49.0514C42.1692 45.6061 43.9476 42.2335 45.2723 39.6995C45.9332 38.4352 46.4892 37.3643 46.8832 36.5928C47.0778 36.2118 47.2471 35.8761 47.3736 35.617C47.4333 35.4949 47.507 35.3417 47.5748 35.1908C47.6047 35.1241 47.6666 34.9848 47.7319 34.8157C47.7622 34.7372 47.8262 34.5683 47.8916 34.3519C47.8919 34.3507 48.1607 33.5556 48.1607 32.5371H35.7024ZM46.4251 63.4346L50.2494 32.1857L37.8834 30.6723L34.059 61.9212L46.4251 63.4346ZM45.5395 37.4814C45.3948 37.5167 45.3212 37.5209 45.3534 37.5179C45.3833 37.5152 45.4631 37.5098 45.6184 37.5082C45.7765 37.5065 45.9557 37.5088 46.2082 37.5136C46.4303 37.5179 46.7573 37.5251 47.0712 37.5251V25.0669C46.9072 25.0669 46.7333 25.0631 46.4446 25.0576C46.1863 25.0527 45.8449 25.0467 45.4851 25.0506C44.8136 25.0578 43.7411 25.0972 42.5933 25.3765L45.5395 37.4814ZM47.0712 37.5251C48.7571 37.5251 49.9899 37.5787 51.0562 37.7972L53.5577 25.5926C51.1638 25.102 48.8455 25.0669 47.0712 25.0669V37.5251ZM46.2735 33.2442C46.3047 33.3656 46.2778 33.2689 46.2528 33.1389C46.2238 32.9885 46.1688 32.661 46.1688 32.2268H58.6271C58.6271 31.1248 58.3471 30.172 58.3403 30.1457L46.2735 33.2442ZM46.1688 32.2268C46.1688 35.7817 45.7613 38.1219 45.5393 42.553L57.9819 43.1765C58.1241 40.3384 58.6271 35.9412 58.6271 32.2268H46.1688ZM45.5432 42.4832L44.496 59.5482L56.9309 60.3113L57.9781 43.2463L45.5432 42.4832ZM44.4918 59.6254C44.476 59.9483 44.4687 60.2611 44.4634 60.4852C44.4573 60.7351 44.4531 60.899 44.4459 61.0509C44.4313 61.356 44.412 61.3808 44.435 61.2868L56.5366 64.2463C56.9533 62.5428 56.9294 60.3514 56.9352 60.2341L44.4918 59.6254ZM49.5324 56.6108C48.1485 56.8251 46.5586 56.759 44.1119 56.759V69.2173C45.7627 69.2173 48.8167 69.3285 51.4393 68.9223L49.5324 56.6108ZM44.1119 56.759C43.4955 56.759 42.9875 56.7574 42.5161 56.7304C42.0112 56.7015 41.837 56.6562 41.8803 56.668L38.6038 68.6877C40.7149 69.2632 43.1899 69.2173 44.1119 69.2173V56.759ZM77.5953 36.9987C76.2623 35.6648 72.825 31.8929 67.4073 31.8929V44.3512C67.3095 44.3512 67.2013 44.3317 67.1179 44.3034C67.0481 44.2797 67.063 44.2726 67.1781 44.3484C67.3009 44.4293 67.4894 44.5723 67.7716 44.8265C68.0618 45.0877 68.3682 45.39 68.7833 45.8053L77.5953 36.9987ZM67.4073 31.8929C66.2957 31.8929 64.5717 32.0689 62.8755 32.8634C61.0672 33.7104 58.2188 35.911 58.2188 39.9836H70.6771C70.6771 41.0585 70.2966 42.1119 69.6443 42.9375C69.0658 43.6696 68.4464 44.0112 68.1602 44.1453C67.6705 44.3746 67.4262 44.3512 67.4073 44.3512V31.8929ZM58.2188 39.9836C58.2188 42.9102 59.6767 45.0653 61.172 46.3914C62.5303 47.596 64.0739 48.2843 65.152 48.6897C66.293 49.1188 67.4355 49.4176 68.2561 49.623C69.2749 49.8779 69.6132 49.9523 69.8551 50.0308L73.7007 38.1809C73.2399 38.0313 72.7686 37.9079 72.4025 37.8153C72.1084 37.7409 71.5361 37.6013 71.2805 37.5374C70.5347 37.3507 69.9727 37.1925 69.5373 37.0287C69.039 36.8413 69.1343 36.801 69.4383 37.0706C69.6265 37.2375 69.9482 37.5715 70.2231 38.1083C70.5142 38.6767 70.6771 39.3278 70.6771 39.9836H58.2188ZM69.8363 50.0246C71.8789 50.6947 72.9243 52.3937 72.9243 53.68H85.3826C85.3826 46.1899 80.0541 40.2651 73.7196 38.187L69.8363 50.0246ZM72.9243 53.68C72.9243 54.3065 72.7265 54.8524 71.7215 55.5063C70.5485 56.2694 68.7612 56.759 67.0886 56.759V69.2173C70.7426 69.2173 74.9878 68.2442 78.5156 65.9489C82.2113 63.5444 85.3826 59.4363 85.3826 53.68H72.9243ZM67.0886 56.759C63.4412 56.759 60.3751 55.4874 58.5854 53.3335L49.0034 61.2957C53.7697 67.0316 60.8109 69.2173 67.0886 69.2173V56.759ZM58.4274 53.1507L58.1087 52.7961L48.8428 61.1239L49.1615 61.4785L58.4274 53.1507ZM58.4662 53.2321C58.0925 52.7318 57.8035 52.3436 57.5227 51.9335L47.2434 58.9724C47.6911 59.6261 48.1305 60.213 48.4853 60.6879L58.4662 53.2321ZM57.35 59.2122C57.2115 59.3952 57.1489 59.4482 57.3143 59.2727C57.4323 59.1475 57.6054 58.9703 57.8323 58.7447C58.2832 58.2965 58.862 57.7414 59.464 57.179C60.0657 56.6168 60.6598 56.0761 61.1384 55.6552C61.3792 55.4434 61.5695 55.2808 61.7048 55.169C61.8919 55.0145 61.843 55.066 61.664 55.1853L54.7572 44.8168C54.128 45.236 53.3725 45.8942 52.9111 46.3C52.3155 46.8237 51.6263 47.452 50.9589 48.0756C50.2918 48.6988 49.6158 49.346 49.0495 49.9089C48.6152 50.3406 47.8901 51.0675 47.4161 51.6938L57.35 59.2122ZM53.276 53.8025L53.6857 54.3344L63.555 46.7314L63.1453 46.1995L53.276 53.8025ZM53.5439 54.1428C56.6113 58.4564 61.6853 61.5491 67.4983 61.5491V49.0908C66.2089 49.0908 64.727 48.3717 63.6969 46.923L53.5439 54.1428ZM67.4983 61.5491C71.4018 61.5491 76.277 58.6281 76.277 52.9708H63.8187C63.8187 51.7443 64.3962 50.6577 65.185 49.9731C65.9028 49.35 66.7357 49.0908 67.4983 49.0908V61.5491ZM76.277 52.9708C76.277 51.7268 76.0063 49.888 74.7516 48.1779L64.7068 55.5475C63.9074 54.4578 63.8187 53.4169 63.8187 52.9708H76.277ZM74.7919 48.2334C72.9416 45.6523 70.285 44.4323 68.6207 43.7716C67.7292 43.4177 66.8057 43.1101 66.0854 42.8674C65.3033 42.6038 64.6912 42.394 64.1303 42.1679C62.9707 41.7006 62.645 41.3927 62.5705 41.3064C62.5577 41.2914 62.5379 41.2711 62.5077 41.1837C62.4721 41.0804 62.391 40.7878 62.391 40.2053H49.9327C49.9327 43.8239 50.996 46.9605 53.1351 49.4415C55.1279 51.7529 57.622 52.977 59.473 53.723C60.4173 54.1036 61.3581 54.4209 62.1064 54.6731C62.9165 54.9462 63.5007 55.1431 64.0241 55.3509C65.1897 55.8136 64.9916 55.9455 64.6665 55.4919L74.7919 48.2334ZM62.391 40.2053C62.391 39.4557 62.5502 39.0884 62.6466 38.9173C62.7506 38.7328 62.9405 38.4989 63.3448 38.2395C64.2692 37.6463 65.9521 37.1705 68.1357 37.1705V24.7123C64.5373 24.7123 60.2332 25.4333 56.6163 27.7545C52.665 30.2901 49.9327 34.5273 49.9327 40.2053H62.391ZM68.1357 37.1705C69.2601 37.1705 70.6349 37.3822 71.8492 37.8203C73.1117 38.2758 73.7067 38.7913 73.9001 39.0424L83.7694 31.4394C81.6409 28.6764 78.6847 27.0422 76.0773 26.1014C73.4218 25.1433 70.608 24.7123 68.1357 24.7123V37.1705ZM73.6366 31.8085C73.6583 31.7757 73.4951 32.0046 73.0252 32.558C72.6149 33.0412 72.102 33.6188 71.5622 34.2061C71.0231 34.7927 70.4846 35.3593 70.0272 35.8216C69.7986 36.0527 69.604 36.2438 69.4493 36.3906C69.2806 36.5509 69.2141 36.6062 69.2286 36.5942L77.15 46.2099C78.1236 45.4078 79.605 43.8659 80.7351 42.6363C81.8334 41.4411 83.3014 39.7812 84.0329 38.6733L73.6366 31.8085ZM86.3953 63.4346L90.2197 32.1857L77.8537 30.6723L74.0293 61.9212L86.3953 63.4346ZM85.5098 37.4814C85.3651 37.5167 85.2915 37.5209 85.3237 37.5179C85.3535 37.5152 85.4334 37.5098 85.5887 37.5082C85.7467 37.5065 85.926 37.5088 86.1785 37.5136C86.4006 37.5179 86.7275 37.5251 87.0415 37.5251V25.0669C86.8774 25.0669 86.7036 25.0631 86.4149 25.0576C86.1566 25.0527 85.8152 25.0467 85.4554 25.0506C84.7839 25.0578 83.7114 25.0972 82.5635 25.3765L85.5098 37.4814ZM87.0415 37.5251C88.7274 37.5251 89.9602 37.5787 91.0265 37.7972L93.528 25.5926C91.1341 25.102 88.8157 25.0669 87.0415 25.0669V37.5251ZM86.2438 33.2442C86.275 33.3656 86.2481 33.2689 86.2231 33.1389C86.1941 32.9885 86.1391 32.661 86.1391 32.2268H98.5974C98.5974 31.1248 98.3174 30.172 98.3106 30.1457L86.2438 33.2442ZM86.1391 32.2268C86.1391 35.7817 85.7316 38.1219 85.5095 42.553L97.9522 43.1765C98.0944 40.3384 98.5974 35.9412 98.5974 32.2268H86.1391ZM85.5134 42.4832L84.4663 59.5482L96.9012 60.3113L97.9483 43.2463L85.5134 42.4832ZM84.462 59.6254C84.4463 59.9483 84.439 60.2611 84.4336 60.4852C84.4276 60.735 84.4234 60.8989 84.4162 61.0509C84.4016 61.356 84.3823 61.3808 84.4053 61.2868L96.5069 64.2463C96.9235 62.5428 96.8997 60.3515 96.9054 60.2341L84.462 59.6254ZM89.5027 56.6108C88.1188 56.8251 86.5289 56.759 84.0822 56.759V69.2173C85.733 69.2173 88.787 69.3285 91.4095 68.9223L89.5027 56.6108ZM84.0822 56.759C83.4658 56.759 82.9577 56.7574 82.4863 56.7304C81.9814 56.7015 81.8073 56.6562 81.8506 56.668L78.574 68.6877C80.6852 69.2632 83.1602 69.2173 84.0822 69.2173V56.759ZM109.875 40.4269C109.875 40.0511 109.939 37.405 107.716 35.3846C105.668 33.524 103.194 33.6659 103.1 33.6659V46.1241C103.046 46.1241 102.614 46.1281 102.041 46.0041C101.413 45.8683 100.347 45.5227 99.3374 44.6049C98.2975 43.66 97.8182 42.5667 97.6074 41.7911C97.4199 41.1016 97.4169 40.5684 97.4169 40.4269H109.875ZM103.403 33.6732C101.478 33.5795 98.7122 33.7102 97.5908 33.7102V46.1685C100.112 46.1685 101.079 46.0331 102.797 46.1168L103.403 33.6732ZM97.5908 33.7102C96.9192 33.7102 96.7801 33.7426 96.2579 33.7174C96.0106 33.7055 96.1887 33.6929 96.5696 33.7897C96.7156 33.8267 97.4132 34.0017 98.2103 34.5361C99.0435 35.0946 100.861 36.7048 100.861 39.5404H88.4024C88.4024 42.509 90.2992 44.2314 91.2734 44.8844C92.2116 45.5133 93.1115 45.7652 93.5029 45.8646C94.3747 46.086 95.2158 46.1399 95.6571 46.1612C96.5121 46.2025 97.8527 46.1685 97.5908 46.1685V33.7102ZM100.861 39.5404C100.861 37.5398 101.12 35.3444 101.475 32.97L89.1537 31.1291C88.78 33.6303 88.4024 36.5766 88.4024 39.5404H100.861ZM101.454 33.1006C101.521 32.7121 101.458 33.0765 101.431 33.2001C101.378 33.439 101.198 34.2131 100.647 35.0711C100.01 36.0633 99.0829 36.8573 97.9803 37.3286C97.0083 37.7441 96.1759 37.7911 95.7697 37.7911V25.3328C95.1586 25.3328 94.1726 25.4075 93.0839 25.8729C91.8647 26.394 90.8574 27.26 90.1635 28.3409C89.5558 29.2876 89.3418 30.167 89.2636 30.5222C89.2108 30.7622 89.1309 31.254 89.1746 30.9984L101.454 33.1006ZM95.7697 37.7911C97.3304 37.7911 98.2492 37.9921 100.734 38.1735L101.641 25.7483C100.484 25.6637 97.8512 25.3328 95.7697 25.3328V37.7911ZM100.673 38.1687L112.965 39.1882L113.995 26.7725L101.702 25.753L100.673 38.1687ZM112.918 39.1841C115.524 39.4201 116.65 39.3874 118.45 39.6377L120.166 27.2982C118.141 27.0165 115.352 26.8952 114.042 26.7766L112.918 39.1841ZM118.804 39.6767C119.22 39.7104 118.937 39.6871 118.811 39.6703C118.61 39.6436 117.481 39.5035 116.297 38.6903C114.988 37.7902 114.408 36.639 114.183 36.0935C114.004 35.6578 113.936 35.3155 113.975 35.4809L126.097 32.6074C126.068 32.4846 125.943 31.9318 125.7 31.3409C125.41 30.6404 124.76 29.3894 123.354 28.4229C122.073 27.5431 120.822 27.3698 120.455 27.321C120.232 27.2912 120.04 27.2765 119.97 27.2711C119.827 27.2601 119.885 27.2651 119.811 27.2592L118.804 39.6767ZM113.948 35.3607C114.247 36.7453 114.444 38.2836 114.444 39.4961H126.903C126.903 37.1626 126.554 34.7117 126.124 32.7276L113.948 35.3607ZM114.444 39.4961C114.444 37.6829 115.25 36.2226 116.182 35.2905C116.981 34.4908 117.791 34.1444 118.128 34.0157C118.516 33.8674 118.81 33.8102 118.919 33.7907C118.988 33.7785 119.039 33.7717 119.068 33.7681C119.099 33.7644 119.117 33.7629 119.121 33.7626C119.125 33.7622 119.102 33.7641 119.045 33.7654C118.99 33.7666 118.922 33.7668 118.839 33.7659C118.754 33.765 118.671 33.7632 118.568 33.7607C118.501 33.7592 118.324 33.7545 118.169 33.7545V46.2128C117.903 46.2128 119.221 46.2515 120.098 46.1825C120.535 46.1481 121.525 46.0546 122.577 45.6524C123.247 45.3964 126.903 43.8206 126.903 39.4961H114.444ZM118.169 33.7545C117.419 33.7545 116.66 33.7264 115.765 33.6925C114.907 33.66 113.913 33.6215 112.888 33.6215V46.0798C113.639 46.0798 114.398 46.1079 115.293 46.1418C116.15 46.1744 117.144 46.2128 118.169 46.2128V33.7545ZM112.888 33.6215C111.76 33.6215 109.382 33.9036 107.609 36.0622C106.087 37.9146 106.067 39.9538 106.067 40.5155H118.525C118.525 40.634 118.574 42.3408 117.234 43.9716C115.643 45.9085 113.561 46.0798 112.888 46.0798V33.6215ZM106.067 40.5155C106.067 44.1163 106.209 47.6967 106.345 51.1386C106.483 54.6212 106.614 57.9674 106.614 61.3038H119.072C119.072 57.6813 118.93 54.0906 118.794 50.6476C118.656 47.1637 118.525 43.8294 118.525 40.5155H106.067ZM106.614 61.3038C106.614 60.8954 106.666 59.848 107.319 58.6735C108.073 57.3171 109.225 56.5008 110.256 56.093C111.078 55.7677 111.751 55.7349 111.76 55.7343C111.799 55.7314 111.831 55.7301 111.733 55.735C111.668 55.7382 111.514 55.7456 111.337 55.76L112.345 68.1774C112.305 68.1807 112.284 68.1812 112.349 68.178C112.381 68.1764 112.537 68.1693 112.696 68.1574C112.944 68.1387 113.833 68.0755 114.838 67.6781C116.051 67.1984 117.35 66.2685 118.207 64.7279C118.963 63.3691 119.072 62.0668 119.072 61.3038H106.614ZM111.548 55.7465C109.961 55.8212 108.363 55.985 107.062 56.103C105.683 56.228 104.508 56.3158 103.373 56.3158V68.7741C105.106 68.7741 106.754 68.6403 108.186 68.5104C109.696 68.3735 110.898 68.2492 112.134 68.1909L111.548 55.7465ZM103.373 56.3158C103.269 56.3158 103.473 56.312 103.721 56.3329C103.961 56.3531 104.593 56.419 105.355 56.7243C106.189 57.0587 107.276 57.7241 108.097 58.9523C108.908 60.1658 109.101 61.3929 109.101 62.2346H96.6429C96.6429 63.2315 96.8701 64.575 97.7396 65.8757C98.6189 67.1912 99.7883 67.9148 100.719 68.288C101.578 68.6321 102.321 68.7174 102.676 68.7473C103.039 68.7778 103.363 68.7741 103.373 68.7741V56.3158ZM109.101 62.2346C109.101 58.7934 109.284 55.3243 109.479 51.6619C109.671 48.0551 109.875 44.2549 109.875 40.4269H97.4169C97.4169 43.8682 97.2337 47.3372 97.0387 50.9996C96.8467 54.6064 96.6429 58.4067 96.6429 62.2346H109.101ZM143.442 36.9987C142.109 35.6648 138.671 31.8929 133.254 31.8929V44.3512C133.156 44.3512 133.048 44.3317 132.964 44.3034C132.895 44.2797 132.91 44.2726 133.025 44.3484C133.147 44.4293 133.336 44.5723 133.618 44.8265C133.908 45.0877 134.215 45.39 134.63 45.8053L143.442 36.9987ZM133.254 31.8929C132.142 31.8929 130.418 32.0688 128.722 32.8634C126.914 33.7104 124.065 35.911 124.065 39.9836H136.524C136.524 41.0585 136.143 42.1119 135.491 42.9375C134.912 43.6696 134.293 44.0112 134.007 44.1453C133.517 44.3746 133.273 44.3512 133.254 44.3512V31.8929ZM124.065 39.9836C124.065 42.9102 125.523 45.0653 127.019 46.3914C128.377 47.596 129.92 48.2843 130.998 48.6897C132.14 49.1188 133.282 49.4176 134.103 49.623C135.121 49.8779 135.46 49.9523 135.702 50.0308L139.547 38.1809C139.086 38.0313 138.615 37.9079 138.249 37.8153C137.955 37.7409 137.383 37.6013 137.127 37.5374C136.381 37.3507 135.819 37.1925 135.384 37.0287C134.885 36.8413 134.981 36.801 135.285 37.0706C135.473 37.2375 135.795 37.5715 136.07 38.1083C136.361 38.6767 136.524 39.3278 136.524 39.9836H124.065ZM135.683 50.0246C137.725 50.6947 138.771 52.3937 138.771 53.68H151.229C151.229 46.1899 145.901 40.2651 139.566 38.187L135.683 50.0246ZM138.771 53.68C138.771 54.3065 138.573 54.8524 137.568 55.5063C136.395 56.2694 134.608 56.759 132.935 56.759V69.2173C136.589 69.2173 140.834 68.2442 144.362 65.9489C148.058 63.5444 151.229 59.4363 151.229 53.68H138.771ZM132.935 56.759C129.288 56.759 126.222 55.4874 124.432 53.3335L114.85 61.2957C119.616 67.0316 126.657 69.2173 132.935 69.2173V56.759ZM124.274 53.1507L123.955 52.7961L114.689 61.1239L115.008 61.4785L124.274 53.1507ZM124.313 53.2321C123.939 52.7318 123.65 52.3436 123.369 51.9335L113.09 58.9724C113.538 59.6261 113.977 60.2131 114.332 60.6879L124.313 53.2321ZM123.196 59.2122C123.058 59.3952 122.995 59.4482 123.161 59.2727C123.279 59.1475 123.452 58.9703 123.679 58.7447C124.13 58.2965 124.708 57.7414 125.311 57.179C125.912 56.6168 126.506 56.0761 126.985 55.6552C127.226 55.4434 127.416 55.2808 127.551 55.169C127.738 55.0145 127.69 55.066 127.51 55.1853L120.604 44.8168C119.974 45.236 119.219 45.8942 118.758 46.3C118.162 46.8237 117.473 47.452 116.805 48.0756C116.138 48.6988 115.462 49.346 114.896 49.9089C114.462 50.3406 113.737 51.0675 113.263 51.6938L123.196 59.2122ZM119.122 53.8025L119.532 54.3344L129.402 46.7315L128.992 46.1996L119.122 53.8025ZM119.39 54.1428C122.458 58.4564 127.532 61.5491 133.345 61.5491V49.0908C132.055 49.0908 130.573 48.3717 129.543 46.923L119.39 54.1428ZM133.345 61.5491C137.248 61.5491 142.123 58.6281 142.123 52.9708H129.665C129.665 51.7443 130.243 50.6577 131.031 49.9731C131.749 49.35 132.582 49.0908 133.345 49.0908V61.5491ZM142.123 52.9708C142.123 51.7268 141.853 49.8881 140.598 48.1779L130.553 55.5475C129.754 54.4578 129.665 53.4169 129.665 52.9708H142.123ZM140.638 48.2334C138.788 45.6523 136.131 44.4323 134.467 43.7716C133.576 43.4177 132.652 43.1101 131.932 42.8674C131.15 42.6038 130.538 42.394 129.977 42.1679C128.817 41.7006 128.491 41.3927 128.417 41.3064C128.404 41.2914 128.384 41.2711 128.354 41.1837C128.319 41.0804 128.237 40.7878 128.237 40.2053H115.779C115.779 43.8239 116.842 46.9605 118.982 49.4415C120.974 51.7529 123.469 52.977 125.319 53.723C126.264 54.1036 127.205 54.4209 127.953 54.6731C128.763 54.9462 129.347 55.1431 129.871 55.3509C131.036 55.8136 130.838 55.9455 130.513 55.4919L140.638 48.2334ZM128.237 40.2053C128.237 39.4557 128.397 39.0884 128.493 38.9173C128.597 38.7328 128.787 38.4989 129.191 38.2395C130.116 37.6463 131.799 37.1705 133.982 37.1705V24.7123C130.384 24.7123 126.08 25.4333 122.463 27.7545C118.511 30.2901 115.779 34.5273 115.779 40.2053H128.237ZM133.982 37.1705C135.107 37.1705 136.481 37.3822 137.696 37.8203C138.958 38.2758 139.553 38.7913 139.747 39.0424L149.616 31.4394C147.487 28.6764 144.531 27.0422 141.924 26.1014C139.268 25.1433 136.455 24.7123 133.982 24.7123V37.1705ZM139.483 31.8085C139.505 31.7757 139.342 32.0046 138.872 32.558C138.461 33.0412 137.948 33.6188 137.409 34.2061C136.87 34.7927 136.331 35.3593 135.874 35.8216C135.645 36.0527 135.45 36.2438 135.296 36.3906C135.127 36.5509 135.061 36.6062 135.075 36.5942L142.996 46.2099C143.97 45.4078 145.451 43.8659 146.582 42.6363C147.68 41.4411 149.148 39.7812 149.879 38.6733L139.483 31.8085Z" fill="white" mask="url(#path-2-outside-2_13_1892)"/>
<path d="M24.6258 14.5035C23.1624 13.6804 22.0567 12.9205 20.2681 12.9205C16.4633 12.9205 13.1463 15.77 13.1463 19.5692C13.1463 22.0071 14.6747 23.9384 17.2763 23.9384C21.1136 23.9384 22.447 21.8171 23.4226 21.1839C24.073 21.5638 27.2599 24.5399 27.8453 25.1731C27.5201 25.8697 25.6339 27.3894 25.016 27.8643C22.7722 29.6056 19.8454 30.3021 17.0487 30.3021C10.4471 30.3021 7 26.0596 7 19.8858C7 15.4534 8.91867 11.3691 13.0162 9.21623C15.195 8.07646 17.6665 7.25328 20.1706 7.25328C22.577 7.25328 24.5608 7.75985 26.5445 9.15291C26.7071 9.24789 27.0323 9.46952 27.0323 9.69114C27.0323 9.94443 24.951 13.9653 24.6258 14.5035Z" fill="#0000EF"/>
<path d="M28.5439 8.17144C30.7228 7.79151 32.9666 7.72819 35.178 7.66487V8.13978C35.178 12.224 34.2674 16.4032 34.2674 20.5507C34.2674 22.5453 34.8528 24.6032 37.2268 24.6032C38.9178 24.6032 40.1861 23.0519 40.4787 21.5005C41.0966 18.0495 41.1291 14.4402 41.1291 10.9259C41.1291 10.0394 41.1617 9.18457 41.2592 8.32974C43.4381 7.85483 45.6169 7.50657 47.7957 7.28494C47.8282 7.41159 47.8282 7.50657 47.8282 7.63321C47.8282 12.0657 47.503 16.5615 46.8526 20.9623C46.3974 23.97 46.0071 26.0596 43.5031 27.9909C41.747 29.3523 39.5682 30.0805 37.3568 30.0805C33.5845 30.0805 29.5846 28.2442 28.8041 24.1916C28.5114 22.6719 28.609 21.1206 28.609 19.6009C28.609 15.9599 28.5114 12.3506 28.5114 8.70967C28.5114 8.5197 28.5114 8.3614 28.5439 8.17144Z" fill="#0000EF"/>
<path d="M55.4907 12.6989V13.0788C55.4907 14.8835 55.5558 17.2897 55.6533 19.1893C57.9623 19.1576 61.6045 17.3846 61.6045 14.6935C61.6045 12.8255 59.7183 12.224 58.1899 12.224C57.2793 12.224 56.3688 12.4139 55.4907 12.6989ZM69.2141 28.7824C68.6288 29.004 63.2305 30.2388 62.8077 30.2388C62.7102 30.2388 62.6451 30.2071 62.5476 30.2071L59.3931 23.3368C58.32 23.4951 57.2793 23.5901 56.2062 23.6851C56.1737 23.875 56.1737 24.0333 56.1737 24.1916C56.1737 25.9646 56.4663 27.9909 56.5639 29.7639L56.2387 29.7956C54.1574 30.0805 51.9136 30.1755 49.8323 30.1438H49.5721C49.5396 29.8589 49.5396 29.6372 49.5396 29.384C49.5396 22.5453 49.377 15.7066 49.377 8.86797V7.91815C50.9705 7.37992 56.3688 7 58.1899 7C63.0354 7 68.4662 8.2031 68.4662 14.3136C68.4662 17.3846 66.9378 19.2843 64.7264 21.1522C65.4744 22.7036 69.019 27.8643 69.2141 28.7824Z" fill="#0000EF"/>
<path d="M69.4931 29.9222L72.2248 7.60155C72.8752 7.44325 73.6882 7.50657 74.3711 7.50657C75.6069 7.50657 76.8751 7.53823 78.1109 7.79151C78.1434 7.91815 78.1759 8.0448 78.1759 8.17144C78.1759 10.7676 77.8507 13.1738 77.7206 15.77L76.9727 27.9592C76.9402 28.6241 76.9727 29.3206 76.8101 29.9855C75.3792 30.2071 73.7207 30.1438 72.2573 30.1438C71.4118 30.1438 70.3061 30.1438 69.4931 29.9222Z" fill="#0000EF"/>
<path d="M102.572 18.3028C102.572 25.3947 98.6043 30.2388 90.4743 30.2388C90.3767 30.2388 90.2467 30.2388 90.1491 30.2388C82.2468 30.1122 78.9622 24.2866 79.2874 18.1762C79.6452 11.5275 83.6776 7.1583 91.6775 7.1583C99.4498 7.1583 102.572 12.4139 102.572 18.3028ZM85.4988 18.746C85.4988 21.9754 87.3199 24.9515 90.9296 24.9515C94.1165 24.9515 96.2954 22.7353 96.1978 18.3345C96.1328 14.7252 94.1816 12.4456 91.3198 12.4456C87.7751 12.4456 85.4988 14.8201 85.4988 18.746Z" fill="#0000EF"/>
<path d="M103.778 8.17144C105.957 7.79151 108.201 7.72819 110.412 7.66487V8.13978C110.412 12.224 109.502 16.4032 109.502 20.5507C109.502 22.5453 110.087 24.6032 112.461 24.6032C114.152 24.6032 115.42 23.0519 115.713 21.5005C116.331 18.0495 116.363 14.4402 116.363 10.9259C116.363 10.0394 116.396 9.18457 116.493 8.32974C118.672 7.85483 120.851 7.50657 123.03 7.28494C123.062 7.41159 123.062 7.50657 123.062 7.63321C123.062 12.0657 122.737 16.5615 122.087 20.9623C121.631 23.97 121.241 26.0596 118.737 27.9909C116.981 29.3523 114.802 30.0805 112.591 30.0805C108.819 30.0805 104.819 28.2442 104.038 24.1916C103.745 22.6719 103.843 21.1206 103.843 19.6009C103.843 15.9599 103.745 12.3506 103.745 8.70967C103.745 8.5197 103.745 8.3614 103.778 8.17144Z" fill="#0000EF"/>
<path d="M137.17 14.7252C135.999 13.5537 134.796 12.3823 133.04 12.3823C132.26 12.3823 130.926 12.6672 130.926 13.712C130.926 15.7383 134.699 16.1815 136.162 16.6564C139.154 17.6379 141.43 20.3607 141.43 23.4951C141.43 28.0542 136.617 30.1438 132.812 30.1438C129.268 30.1438 125.658 28.9091 123.317 26.0913L123.089 25.838C122.829 25.4897 122.569 25.1415 122.309 24.7615C122.764 24.16 125.853 21.2789 126.471 20.8673L126.764 21.2472C128.227 23.3052 130.569 24.6666 133.105 24.6666C134.048 24.6666 134.926 24.0017 134.926 22.9885C134.926 22.7036 134.861 22.4187 134.699 22.197C132.52 19.1576 125.008 20.5507 125.008 13.8703C125.008 8.96295 129.43 7.25328 133.56 7.25328C136.129 7.25328 139.544 8.17144 141.203 10.3244C140.617 11.2108 138.016 14.0286 137.17 14.7252Z" fill="#0000EF"/>
<path d="M26.5887 61.7027L18.3026 62.5892C17.9839 62.3233 17.9384 62.013 17.8018 61.6584C14.6604 51.774 10.836 42.0669 7.78564 32.1382C10.745 31.6506 15.1612 31.5176 18.3026 31.296C18.3936 31.6063 18.5302 31.9166 18.6213 32.2711C20.1692 37.6344 21.4895 44.7264 23.2651 50.0454C23.6749 49.7794 30.0943 31.4733 30.4585 31.2517C34.2829 31.429 38.0617 31.9165 41.886 32.3155C41.9316 32.3598 41.9316 32.4484 41.9316 32.5371C41.9316 32.8474 28.1366 58.7773 26.5887 61.7027Z" fill="#0000EF"/>
<path d="M40.242 62.6779L44.0664 31.429C44.9769 31.2074 46.1151 31.296 47.0712 31.296C48.8013 31.296 50.5769 31.3403 52.3069 31.6949C52.3525 31.8722 52.398 32.0495 52.398 32.2268C52.398 35.8614 51.9427 39.2301 51.7606 42.8647L50.7135 59.9298C50.6679 60.8606 50.7135 61.8357 50.4858 62.7665C48.4826 63.0768 46.1607 62.9882 44.1119 62.9882C42.9282 62.9882 41.3802 62.9882 40.242 62.6779Z" fill="#0000EF"/>
<path d="M73.1893 41.402C71.5503 39.762 69.8658 38.122 67.4073 38.122C66.3146 38.122 64.4479 38.5209 64.4479 39.9836C64.4479 42.8204 69.7292 43.441 71.7779 44.1058C75.9665 45.4799 79.1535 49.2918 79.1535 53.68C79.1535 60.0627 72.4153 62.9882 67.0886 62.9882C62.126 62.9882 57.0724 61.2595 53.7944 57.3146L53.4757 56.96C53.1115 56.4724 52.7473 55.9849 52.3831 55.453C53.0204 54.6108 57.3456 50.5772 58.2106 50.001L58.6204 50.5329C60.6691 53.414 63.9471 55.32 67.4983 55.32C68.8186 55.32 70.0479 54.3892 70.0479 52.9708C70.0479 52.5719 69.9568 52.1729 69.7292 51.8627C66.6788 47.6075 56.1619 49.5578 56.1619 40.2053C56.1619 33.3349 62.3537 30.9414 68.1357 30.9414C71.7324 30.9414 76.5128 32.2268 78.8348 35.2409C78.0153 36.482 74.373 40.4269 73.1893 41.402Z" fill="#0000EF"/>
<path d="M80.2123 62.6779L84.0367 31.429C84.9472 31.2074 86.0854 31.296 87.0415 31.296C88.7716 31.296 90.5472 31.3403 92.2772 31.6949C92.3227 31.8722 92.3683 32.0495 92.3683 32.2268C92.3683 35.8614 91.913 39.2301 91.7309 42.8647L90.6837 59.9298C90.6382 60.8606 90.6837 61.8357 90.4561 62.7665C88.4529 63.0768 86.131 62.9882 84.0822 62.9882C82.8985 62.9882 81.3505 62.9882 80.2123 62.6779Z" fill="#0000EF"/>
<path d="M103.646 40.4269C103.646 39.9836 103.509 39.895 103.1 39.895C101.279 39.8063 99.4119 39.9393 97.5908 39.9393C97.1811 39.9393 94.6315 40.0723 94.6315 39.5404C94.6315 37.0582 94.9502 34.4874 95.3144 32.0495C95.36 31.7836 95.36 31.562 95.7697 31.562C97.5908 31.562 99.3664 31.8279 101.188 31.9609L113.48 32.9803C115.438 33.1576 117.395 33.202 119.308 33.4679C119.854 33.5122 119.899 33.4679 120.036 34.0441C120.4 35.7285 120.673 37.7231 120.673 39.4961C120.673 40.1166 118.67 39.9836 118.169 39.9836C116.394 39.9836 114.664 39.8507 112.888 39.8507C112.433 39.8507 112.296 40.0723 112.296 40.5155C112.296 47.4302 112.843 54.3448 112.843 61.3038C112.843 62.013 112.387 61.9244 111.841 61.9687C109.018 62.1017 106.241 62.5449 103.373 62.5449C103.145 62.5449 102.872 62.5449 102.872 62.2346C102.872 54.9654 103.646 47.6961 103.646 40.4269Z" fill="#0000EF"/>
<path d="M139.036 41.402C137.397 39.762 135.712 38.122 133.254 38.122C132.161 38.122 130.294 38.5209 130.294 39.9836C130.294 42.8204 135.576 43.441 137.624 44.1058C141.813 45.4799 145 49.2918 145 53.68C145 60.0627 138.262 62.9882 132.935 62.9882C127.973 62.9882 122.919 61.2595 119.641 57.3146L119.322 56.96C118.958 56.4724 118.594 55.9849 118.23 55.453C118.867 54.6108 123.192 50.5772 124.057 50.001L124.467 50.5329C126.516 53.414 129.794 55.32 133.345 55.32C134.665 55.32 135.894 54.3892 135.894 52.9708C135.894 52.5719 135.803 52.1729 135.576 51.8627C132.525 47.6075 122.008 49.5578 122.008 40.2053C122.008 33.3349 128.2 30.9414 133.982 30.9414C137.579 30.9414 142.359 32.2268 144.681 35.2409C143.862 36.482 140.219 40.4269 139.036 41.402Z" fill="#0000EF"/>
</svg>
