<svg width="38" height="38" viewBox="0 0 38 38" fill="none" xmlns="http://www.w3.org/2000/svg">
<path d="M19 38C29.4934 38 38 29.4934 38 19C38 8.50659 29.4934 0 19 0C8.50659 0 0 8.50659 0 19C0 29.4934 8.50659 38 19 38Z" fill="#1769FF"/>
<path fill-rule="evenodd" clip-rule="evenodd" d="M10.1334 13.5971C10.1334 13.5971 17.7805 17.9335 19.2648 17.9335C20.8205 17.9335 28.3848 13.6799 28.3848 13.6799L28.3969 12.9199C28.3969 12.0809 27.716 11.3999 26.8746 11.3999H11.6549C10.8143 11.3999 10.1334 12.0809 10.1334 12.9199V13.5971ZM28.3847 15.9597C28.3847 15.9597 20.8919 20.0234 19.2647 20.0234C17.7804 20.0234 10.1447 15.9597 10.1455 15.9597L10.1333 25.0797C10.1333 25.9188 10.815 26.5997 11.6548 26.5997H26.8746C27.7159 26.5997 28.3969 25.9188 28.3969 25.0797L28.3847 15.9597Z" fill="white"/>
</svg>
