<svg width="40" height="40" viewBox="0 0 40 40" fill="none" xmlns="http://www.w3.org/2000/svg">
<path d="M19.7 16.083H28.3611C28.7467 16.083 29.0774 16.3581 29.1477 16.7372L31.7496 30.7791C31.8408 31.2709 31.4632 31.7248 30.963 31.7248H8.85986C8.3687 31.7248 7.99353 31.2863 8.06949 30.8011L10.2678 16.7593C10.3287 16.37 10.6641 16.083 11.0581 16.083H12.3484" stroke="#0000EF" stroke-width="0.8"/>
<path d="M18.826 31.3696C19.6209 27.2647 24.7317 29.9285 26.7758 26.6196C29.6378 21.987 25.0527 21.3149 21.5018 21.3149L18.0481 21.3149" stroke="#0000EF" stroke-width="0.8" stroke-dasharray="2.8 2"/>
<path d="M12.5038 34.1046C9.10324 33.9536 8.92656 32.8096 8.04125 31.9507C7.35146 30.9724 24.9686 31.4083 32.0752 31.4083C31.8184 32.0306 31.6659 32.5251 31.026 33.3266C29.6987 34.9893 16.7545 34.2933 12.5038 34.1046Z" fill="#0000EF"/>
<ellipse cx="16.2" cy="21" rx="3" ry="1" fill="#0000EF"/>
<path d="M10.3688 10.4633C10.3688 14.248 14.1495 19.2527 16.0099 20.8759C17.8391 20.0175 21.4733 14.0648 21.4733 10.4632C21.4733 7.33027 18.1867 5.58941 16.0099 5.5896C13.9998 5.63739 10.3688 6.67866 10.3688 10.4633Z" stroke="#0000EF" stroke-width="0.8"/>
<ellipse cx="16" cy="10.3999" rx="2" ry="2" stroke="#0000EF" stroke-width="0.8"/>
</svg>
