<svg width="40" height="40" viewBox="0 0 40 40" fill="none" xmlns="http://www.w3.org/2000/svg">
<path d="M19.7 16.083H28.361C28.7466 16.083 29.0773 16.3581 29.1476 16.7372L31.7496 30.7791C31.8407 31.2709 31.4632 31.7248 30.9629 31.7248H8.85979C8.36863 31.7248 7.99345 31.2863 8.06942 30.8011L10.2677 16.7593C10.3286 16.37 10.664 16.083 11.0581 16.083H12.3483" stroke="#B5B5B5" stroke-width="0.8"/>
<path d="M18.826 31.3696C19.6209 27.2647 24.7317 29.9285 26.7758 26.6196C29.6378 21.987 25.0527 21.3149 21.5018 21.3149L18.0481 21.3149" stroke="#B5B5B5" stroke-width="0.8" stroke-dasharray="2.8 2"/>
<path d="M12.5037 34.1046C9.10316 33.9536 8.92648 32.8096 8.04117 31.9507C7.35138 30.9724 24.9685 31.4083 32.0751 31.4083C31.8183 32.0306 31.6658 32.5251 31.026 33.3266C29.6986 34.9893 16.7545 34.2933 12.5037 34.1046Z" fill="#B5B5B5"/>
<ellipse cx="16.2" cy="21" rx="3" ry="1" fill="#B5B5B5"/>
<path d="M10.3689 10.4633C10.3689 14.248 14.1496 19.2527 16.01 20.8759C17.8392 20.0175 21.4734 14.0648 21.4734 10.4632C21.4734 7.33027 18.1868 5.58941 16.01 5.5896C13.9999 5.63739 10.3689 6.67866 10.3689 10.4633Z" stroke="#B5B5B5" stroke-width="0.8"/>
<ellipse cx="16" cy="10.3999" rx="2" ry="2" stroke="#B5B5B5" stroke-width="0.8"/>
</svg>
