<svg width="300" height="150" viewBox="0 0 300 150" fill="none" xmlns="http://www.w3.org/2000/svg">
<path d="M210.2 124.567C209.522 120.174 208.862 115.78 208.381 111.368C208.006 107.864 207.685 104.342 207.239 100.838H195.591C131.73 101.567 129.215 100.251 129.215 105.303C129.215 110.354 130.375 141.591 132.194 142.054C133.514 142.392 185.209 141.235 212.858 140.595C211.93 135.258 211.021 129.922 210.2 124.567Z" fill="#FFD939"/>
<path d="M210.2 124.567C209.522 120.174 208.862 115.78 208.381 111.368C208.006 107.864 207.685 104.342 207.239 100.838H195.591C191.417 100.891 187.51 100.927 183.853 100.962C182.301 104.182 180.196 107.153 177.788 109.856C169.957 118.679 159.772 125.048 152.191 134.155C150.175 136.575 148.356 139.207 146.839 141.982C164.517 141.698 194.164 141.04 212.84 140.595C211.93 135.258 211.021 129.922 210.2 124.567Z" fill="#F4A914"/>
<path d="M166.925 127.965L166.8 127.876C166.729 127.823 158.755 122.86 131.766 104.253L132.034 103.88C157.15 121.188 165.783 126.684 166.925 127.396L202.958 100.82L203.225 101.194L166.925 127.965Z" fill="white"/>
<path d="M132.961 115.78C135.013 114.499 137.314 113.521 139.205 111.991C141.113 110.426 142.523 108.344 143.611 106.156C144.413 104.555 145.056 102.901 145.68 101.229C130.179 101.478 129.215 102.172 129.215 105.285C129.215 107.117 129.376 112.382 129.643 118.377C130.625 117.434 131.73 116.563 132.961 115.78Z" fill="#F4A914"/>
<path d="M121.277 103.079C122.133 102.812 123.186 103.275 123.507 104.129C122.829 103.328 122.151 102.51 121.812 101.514C121.473 100.518 121.581 99.308 122.348 98.5965C123.471 97.5292 125.309 98.0095 126.718 98.6499C129.144 99.7705 131.445 101.176 133.532 102.848C134.584 103.702 135.69 104.858 135.459 106.192C135.227 107.544 133.746 108.291 132.408 108.629C129.162 109.483 125.398 109.394 122.241 108.202C120.403 107.526 118.477 103.951 121.277 103.079Z" fill="#FFB0D8"/>
<path d="M135.12 98.2407C135.423 98.7388 136.101 99.0234 136.743 98.9878C137.403 98.9522 138.009 98.6142 138.33 98.1339C138.687 97.6359 138.741 96.9955 138.455 96.4796C138.17 95.9637 137.528 95.5902 136.85 95.5724C135.423 95.5546 134.495 97.2089 135.12 98.2407Z" fill="#53CAF1"/>
<path d="M140.293 97.7071C140.596 98.2052 141.274 98.4898 141.916 98.4542C142.558 98.4186 143.182 98.0806 143.504 97.6004C143.86 97.1023 143.914 96.4619 143.628 95.946C143.343 95.4302 142.701 95.0566 142.023 95.0388C140.596 95.0388 139.668 96.6754 140.293 97.7071Z" fill="#53CAF1"/>
<path d="M145.484 97.4046C145.787 97.9027 146.465 98.1873 147.107 98.1517C147.767 98.1161 148.373 97.7782 148.694 97.2979C149.051 96.7998 149.105 96.1594 148.819 95.6435C148.534 95.1277 147.892 94.7541 147.214 94.7363C145.787 94.7363 144.859 96.3907 145.484 97.4046Z" fill="#53CAF1"/>
<path d="M132.515 141.04L132.141 140.755C138.42 132.501 145.822 125.19 154.171 119L154.438 119.373C146.143 125.528 138.759 132.821 132.515 141.04Z" fill="white"/>
<path d="M164.41 135.009C164.481 133.853 164.535 132.697 164.606 131.558C161.003 131.541 157.417 131.505 153.814 131.487C151.977 131.47 148.141 130.562 147.82 133.302C147.499 136.041 151.798 134.992 153.493 134.992C157.132 134.992 160.771 134.992 164.41 135.009Z" fill="white"/>
<path d="M161.877 39.1296C164.428 37.582 167.3 31.3205 166.925 28.0296C166.55 24.7388 166.854 24.8099 167.532 24.9522C168.209 25.1123 168.37 28.7945 168.673 28.8479C168.976 28.9013 170.653 30.858 170.35 32.2989C170.047 33.7397 170.707 42.3671 162.323 44.3061C153.921 46.245 161.877 39.1296 161.877 39.1296Z" fill="#F4A914"/>
<path d="M167.96 30.6267C167.71 27.7984 169.173 26.8556 169.743 27.5138C170.296 28.1719 169.422 29.844 169.476 30.8402C169.529 31.8364 168.049 31.7118 167.96 30.6267Z" fill="#FFD939"/>
<path d="M153.653 49.8916C156.811 49.1267 159.986 48.3796 163.161 47.6325C163.232 45.48 163.411 43.3276 163.357 41.1752C163.286 38.0089 162.644 34.7002 160.646 32.2276C158.648 29.755 155.045 28.3853 152.155 29.7195C149.515 30.9469 148.213 33.9175 147.428 36.7103C146.518 39.93 146.001 43.2565 145.84 46.6007C145.787 47.9882 145.519 50.1584 145.822 51.955C148.355 50.9945 151.103 50.5142 153.653 49.8916Z" fill="#FFD939"/>
<path d="M151.031 45.9425C149.051 44.1459 157.792 35.6608 162.162 34.7891C161.77 33.8641 161.288 32.9925 160.664 32.2098C158.666 29.7372 155.063 28.3675 152.173 29.7016C149.533 30.929 148.231 33.8997 147.446 36.6925C146.536 39.9122 146.019 43.2387 145.858 46.5829C145.805 47.9704 145.537 50.1406 145.841 51.9372C146.893 51.5281 157.096 48.5396 158.202 48.255C158.327 45.4089 153.261 47.9704 151.031 45.9425Z" fill="#F4A914"/>
<path d="M151.031 45.9425C150.978 45.8892 150.942 45.8358 150.907 45.7824C149.248 45.8002 147.589 45.7469 145.912 45.6401C145.894 45.9603 145.876 46.2627 145.858 46.5829C145.805 47.9704 145.537 50.1406 145.841 51.9373C146.893 51.5281 157.096 48.5397 158.202 48.255C158.327 45.4089 153.261 47.9704 151.031 45.9425Z" fill="#03036D"/>
<path d="M153.457 27.6204C149.105 28.0296 145.698 31.3916 145.359 36.23C145.002 41.2998 148.248 42.2959 149.943 41.9935C153.439 41.3887 153.832 38.5248 154.527 35.3762C154.527 35.3762 163.607 33.7219 164.535 33.3839C165.462 33.0459 161.52 32.2632 161.52 32.2632C161.52 32.2632 160.236 26.9623 153.457 27.6204Z" fill="#0000EF"/>
<path d="M152.672 27.7272C148.694 28.4387 145.68 31.6762 145.359 36.2301C145.002 41.2998 148.248 42.2959 149.943 41.9935C150.764 41.8512 151.406 41.5844 151.923 41.2286C150.353 37.2262 150.871 32.0142 152.672 27.7272Z" fill="#0000D8"/>
<path d="M150.139 39.7166C150.871 39.6988 151.87 39.1474 152.119 38.4536C152.975 35.9988 149.818 34.6647 148.534 35.9811C147.267 37.2796 148.302 39.77 150.139 39.7166Z" fill="#F4A914"/>
<path d="M160.236 39.0761C160.539 39.0583 160.949 38.8449 161.038 38.5603C161.377 37.5641 160.093 37.0127 159.576 37.5463C159.076 38.08 159.487 39.0939 160.236 39.0761Z" fill="#03036D"/>
<path d="M158.898 37.2795L158.452 37.1372C158.648 36.5502 159.13 36.0521 159.736 35.8742C160.325 35.6963 161.003 35.8208 161.502 36.2122L161.217 36.568C160.842 36.2656 160.325 36.1766 159.879 36.3189C159.433 36.4612 159.041 36.8348 158.898 37.2795Z" fill="#E04136"/>
<path d="M161.36 42.9541C161.074 42.9541 160.771 42.8829 160.521 42.7584C160.004 42.4916 159.611 41.9935 159.504 41.4243L159.968 41.3353C160.04 41.7623 160.343 42.1536 160.735 42.3493C161.128 42.5449 161.609 42.5449 162.002 42.3493L162.198 42.7584C161.93 42.8829 161.645 42.9541 161.36 42.9541Z" fill="white"/>
<path d="M158.559 32.2988C157.899 30.8223 156.597 29.6661 155.045 29.2214C153.493 28.7589 151.763 29.0257 150.407 29.8973L150.157 29.506C151.62 28.5454 153.493 28.2786 155.17 28.7589C156.846 29.257 158.274 30.5022 158.987 32.1031L158.559 32.2988Z" fill="#A8E4F4"/>
<path d="M149.461 34.7536C148.373 34.3267 147.107 34.38 146.054 34.8603C145.608 35.056 145.198 35.3406 144.931 35.7497C144.663 36.1411 144.538 36.6748 144.699 37.1195C144.966 37.8666 145.84 38.169 146.625 38.3113C147.499 38.4714 148.391 38.5603 149.283 38.5603C150.175 38.5603 151.816 38.3647 151.87 37.1728C151.905 36.1055 150.282 35.0738 149.461 34.7536Z" fill="#F4A914"/>
<path d="M141.042 65.6521C148.195 75.7738 151.87 79.4382 152.69 78.6021C153.529 77.7661 183.568 47.0276 183.568 47.0276L141.042 65.6521Z" fill="#3DB5C9"/>
<path d="M194.324 40.5704C162.18 44.5551 132.355 53.0401 131.035 54.8546C129.715 56.6868 124.881 75.9339 125.558 76.1118C126.218 76.2719 191.488 45.231 194.324 43.5589C197.16 41.9046 194.324 40.5704 194.324 40.5704Z" fill="#A8E4F4"/>
<path d="M149.747 55.9219C152.708 56.2065 159.451 52.6132 162.162 51.5459C166.354 49.9272 171.973 49.5714 171.456 44.1637C163.696 45.6224 156.543 47.1877 150.496 48.682C149.247 50.6743 146.696 55.6373 149.747 55.9219Z" fill="#48C6D3"/>
<path d="M136.315 67.2354C135.12 67.2354 134.138 66.844 133.407 66.0436C131.784 64.3181 131.516 62.308 132.587 59.871C133.889 56.9003 137.117 54.7301 140.257 54.7301C141.434 54.7301 142.505 55.2993 143.022 56.1888C143.753 57.4695 143.236 58.9993 142.701 60.3335C142.415 61.045 142.059 61.8099 141.309 62.0945C140.667 62.3258 139.882 62.0589 139.526 61.4719C139.49 61.4186 139.472 61.3652 139.454 61.3118C138.83 62.3258 137.974 63.1974 136.957 63.82C136.19 64.3003 135.155 64.5849 134.477 63.9801C133.853 63.4109 133.96 62.4325 134.317 61.7032C135.28 59.8176 137.777 58.8748 139.757 59.6397L139.793 59.5152L140.096 59.5686L140.168 59.6753C140.257 59.8176 140.186 59.9777 140.079 60.2623C139.972 60.5469 139.793 61.0272 139.918 61.2229C140.15 61.6142 140.703 61.8099 141.149 61.6498C141.72 61.4364 142.023 60.796 142.273 60.1556C142.772 58.9104 143.236 57.5051 142.612 56.4022C142.183 55.6551 141.256 55.1748 140.257 55.1748C137.296 55.1748 134.246 57.2205 133.015 60.0311C132.034 62.2724 132.266 64.1224 133.746 65.7056C134.513 66.5061 135.566 66.844 136.886 66.7195C140.079 66.3815 143.807 63.3931 144.681 61.9344L145.073 62.1657C144.128 63.7311 140.328 66.8085 136.939 67.1642C136.725 67.2176 136.511 67.2354 136.315 67.2354ZM138.295 59.8354C136.85 59.8354 135.405 60.6181 134.745 61.9166C134.46 62.4859 134.353 63.2508 134.799 63.6421C135.28 64.0868 136.119 63.82 136.725 63.4464C138.009 62.646 139.008 61.4541 139.597 60.0666C139.169 59.9065 138.741 59.8354 138.295 59.8354Z" fill="white"/>
<path d="M172.205 43.4522C169.386 42.6339 164.481 44.9287 161.466 44.2883C159.861 43.9503 157.917 43.3988 156.472 42.9719C155.116 44.1815 153.867 45.5335 152.619 46.8498C160.539 50.9234 168.53 47.9883 169.815 48.0238C171.42 48.0594 171.331 47.0633 171.188 46.8498C171.188 46.8498 172.776 46.1561 172.062 45.0888C172.044 45.0888 173.436 43.808 172.205 43.4522Z" fill="#FFD939"/>
<path d="M161.984 44.5373C160.45 44.5373 158.898 44.2882 157.399 43.7902L157.542 43.3455C159.308 43.9325 161.199 44.1815 163.001 44.0392L163.036 44.5017C162.697 44.5373 162.341 44.5373 161.984 44.5373Z" fill="#E04136"/>
<path d="M156.115 43.043C154.652 42.456 152.958 42.794 151.852 43.9503C151.12 44.7152 150.585 45.6046 150.514 46.3873C150.353 47.8815 152.976 47.6325 152.976 47.6325L157.185 43.4877L156.115 43.043Z" fill="#03036D"/>
<path d="M170.796 46.9566C170.207 46.6008 169.422 46.583 168.816 46.921L168.602 46.5118C169.351 46.1027 170.296 46.1383 171.028 46.5652L170.796 46.9566Z" fill="#E04136"/>
<path d="M171.848 45.2666C171.063 44.8575 170.082 44.8575 169.279 45.2489L169.065 44.8397C169.993 44.3594 171.135 44.3772 172.062 44.8575L171.848 45.2666Z" fill="#E04136"/>
<path d="M137.581 29.5772C136.85 28.7767 135.994 28.0296 134.941 27.7628C133.889 27.496 132.622 27.8339 132.087 28.7767C131.552 29.7195 132.159 31.1782 133.247 31.2315C130.286 28.8835 126.95 27.0157 123.382 25.7527C121.349 25.0234 118.691 24.6676 117.389 26.3753C116.479 27.5671 116.711 29.346 117.549 30.6089C118.388 31.8719 119.69 32.708 120.974 33.5085C122.258 34.3089 123.596 35.1094 124.488 36.319C123.703 35.7854 122.847 35.2339 121.902 35.3051C120.956 35.3763 120.082 36.4436 120.582 37.2618C120.974 37.8844 121.848 37.9378 122.579 37.9022C127.574 37.7065 132.765 37.8844 137.724 37.2974C142.754 36.7104 139.775 31.9787 137.581 29.5772Z" fill="#FFCCE8"/>
<path d="M73.0256 81.5018C72.5083 79.6873 71.6878 77.8729 71.9375 76.0229C72.33 73.07 75.4338 70.9176 78.4127 70.9888C90.614 71.2912 94.3421 78.9758 94.3421 78.9758C94.3421 78.9758 90.5069 80.1143 88.295 81.0926C89.9361 83.6364 91.5951 88.4037 90.2572 91.1075C88.9193 93.8114 86.0831 95.7503 83.0685 95.9994C80.5176 96.2128 74.9165 95.1633 73.5608 92.584C72.8651 91.2498 73.5965 89.471 73.7035 88.0835C73.864 85.8955 73.65 83.6364 73.0256 81.5018Z" fill="#3CA184"/>
<path d="M88.295 81.1105C88.3485 81.0927 88.4199 81.0571 88.4734 81.0393C87.9918 80.9504 87.5101 80.8436 87.0285 80.7191C84.335 82.8182 80.696 83.8499 77.8419 81.5552C75.63 79.7763 75.0414 76.4677 76.0938 73.9239C75.6122 73.3191 75.1662 72.6609 74.7738 71.985C73.2754 72.8744 72.1338 74.3153 71.9197 76.023C71.67 77.8908 72.4905 79.7052 73.0078 81.5018C73.6322 83.6364 73.8462 85.8778 73.6857 88.0835C73.5786 89.471 72.8473 91.2677 73.543 92.584C74.9165 95.1634 80.4998 96.2129 83.0506 95.9994C86.0653 95.7504 88.9015 93.8114 90.2394 91.1076C91.6129 88.4215 89.9361 83.6542 88.295 81.1105Z" fill="#2C8469"/>
<path d="M89.2762 86.9983C88.0989 87.1762 86.9215 87.4431 85.7264 87.4964C84.7275 87.5498 83.6929 87.0517 83.5323 85.9488C83.3183 84.5435 82.0339 83.4584 80.5712 83.6363C78.6447 83.8676 78.6269 85.7176 78.6804 87.2474C78.716 88.0123 78.4663 89.0262 77.5923 89.2931C76.3436 89.6844 75.1128 89.9868 73.8463 90.2892C73.6679 90.3248 73.4895 90.3426 73.329 90.3426C73.2219 91.1431 73.2041 91.9258 73.5609 92.6017C74.9344 95.181 80.5177 96.2306 83.0685 96.0171C86.0832 95.7681 88.9194 93.8291 90.2573 91.1253C90.8459 89.9512 90.8459 88.3858 90.5605 86.7849C90.1324 86.856 89.7043 86.9272 89.2762 86.9983Z" fill="#0000EF"/>
<path d="M78.4484 78.0153C79.0192 78.9047 80.1787 79.385 81.2133 79.1537C82.2479 78.9225 83.0863 77.9797 83.1933 76.9302C83.3004 75.8807 82.6582 74.7778 81.695 74.3686C79.4474 73.3725 77.0927 75.8807 78.4484 78.0153Z" fill="white"/>
<path d="M81.7484 78.9403C82.5155 78.5489 83.1041 77.784 83.1933 76.9124C83.3003 75.8629 82.6582 74.76 81.6949 74.3509C81.2846 74.173 80.8922 74.1196 80.4998 74.1374C80.91 75.7384 81.3203 77.3571 81.7484 78.9403Z" fill="#0000EF"/>
<path d="M80.0002 74.8845C80.6246 74.76 81.2667 74.6354 81.8911 74.5109C82.337 74.422 82.783 74.333 83.1754 74.1018C83.5678 73.8705 83.9068 73.497 83.9246 73.0345C83.9781 72.3941 83.4251 71.8426 82.8008 71.6648C81.8911 71.4157 80.8565 71.7003 79.9646 71.8782C79.3581 71.9849 78.6267 72.1095 78.1629 72.572C77.7348 72.9989 77.717 73.6037 77.9667 74.1551C78.3948 75.009 79.1618 75.0446 80.0002 74.8845Z" fill="#03036D"/>
<path d="M83.6037 89.4887C83.2291 88.457 82.8902 87.4253 82.6226 86.358C82.4086 85.5397 81.695 84.9171 80.7853 85.0594C80.0004 85.2017 79.1085 85.5931 79.5902 87.283C79.9647 88.5993 80.2502 89.5243 80.7139 90.8051C80.9994 91.6056 82.0875 91.9258 82.8188 91.5878C83.6572 91.2142 83.8891 90.307 83.6037 89.4887Z" fill="#3CA184"/>
<path d="M87.6529 82.1777C87.0285 81.5907 86.6896 80.7547 86.7075 79.9008C86.7253 79.0647 87.1356 78.2287 87.7777 77.6772L88.081 78.033C87.528 78.4955 87.1891 79.2071 87.1713 79.9186C87.1534 80.6301 87.4567 81.3595 87.974 81.8398L87.6529 82.1777Z" fill="#2C8469"/>
<path d="M96.019 79.6696C96.5185 77.9619 97.125 76.7523 98.4629 76.2364C99.8007 75.7206 99.8542 76.6634 99.1585 77.2326C98.4629 77.8018 97.8385 78.5489 97.8385 78.5489L96.019 79.6696Z" fill="#2C8469"/>
<path d="M93.3076 89.4355C97.6958 80.9682 93.8428 79.6518 98.2309 77.9085C101.602 76.5744 100.354 79.2071 100.354 79.2071C100.354 79.2071 102.066 79.9009 100.782 81.1994C100.782 81.1994 101.763 82.2845 100.264 83.2273C98.7661 84.1523 99.8363 85.5398 97.8385 88.8485C95.8049 92.1393 93.3076 89.4355 93.3076 89.4355Z" fill="#2C8469"/>
<path d="M101.531 74.7956C104.992 74.8489 109.237 73.497 109.308 73.8883C109.398 74.4398 111.948 81.9287 106.918 82.6581C101.888 83.3696 101.852 79.1537 101.692 78.2821C101.531 77.4105 101.156 74.7778 101.531 74.7956Z" fill="#0000EF"/>
<path d="M101.388 75.0979C101.299 75.8094 101.549 77.5883 101.674 78.282C101.834 79.1537 101.888 83.3695 106.9 82.658C108.024 82.4979 108.755 81.9998 109.237 81.3239C106.08 80.5056 103.101 77.9796 101.388 75.0979Z" fill="#0000D8"/>
<path d="M101.923 82.1955C101.424 82.1955 100.925 82.1422 100.425 82.0176C99.2299 81.6974 97.8921 80.7369 97.6423 79.296C97.4104 78.0152 98.1775 76.5922 99.4083 75.9696C100.55 75.4003 102.048 75.5071 103.208 76.2364L102.958 76.6277C101.923 75.9873 100.603 75.8984 99.6045 76.3965C98.5521 76.9301 97.8921 78.1397 98.0883 79.2248C98.3023 80.47 99.4796 81.3061 100.532 81.5907C101.781 81.9287 103.119 81.6974 104.242 81.4484L104.349 81.8931C103.654 82.0354 102.798 82.1955 101.923 82.1955Z" fill="#0000EF"/>
<path d="M100.764 81.1993L98.4093 78.2286C97.0358 79.1358 96.9109 80.381 97.3747 80.8613C97.678 81.1815 98.0347 81.0036 98.3558 80.7724C98.0169 81.0748 97.7672 81.4839 98.3558 81.8575C99.212 82.4089 101.014 82.658 101.049 82.2844C101.085 81.9108 100.764 81.1993 100.764 81.1993Z" fill="#2C8469"/>
<path d="M97.6957 81.2883C97.5887 81.2883 97.4816 81.2705 97.3746 81.2349C96.9822 81.1104 96.6789 80.7368 96.6611 80.3277C96.6254 79.9186 97.0892 79.1537 98.4627 78.2465L98.7124 78.6378C97.3746 79.5272 97.107 80.1498 97.1249 80.3099C97.1427 80.5234 97.3033 80.7368 97.5173 80.808C97.8027 80.8969 98.1416 80.7546 98.3557 80.6301C98.8908 80.3633 99.3903 79.9897 99.8006 79.5628L100.139 79.883C99.6757 80.3633 99.1584 80.7546 98.5697 81.057C98.3379 81.1638 98.0168 81.2883 97.6957 81.2883Z" fill="#F3CF14"/>
<path d="M98.2664 82.6403C98.1416 82.6403 98.0345 82.6225 97.9275 82.587C97.6778 82.5158 97.4637 82.3379 97.3389 82.1067C97.2318 81.911 97.214 81.6975 97.2675 81.5197L97.7135 81.662C97.6778 81.7509 97.7135 81.8399 97.7491 81.8932C97.8205 82.0177 97.9275 82.1067 98.0524 82.1423C98.2664 82.2134 98.5518 82.16 98.8908 82.0177C99.3724 81.8043 99.7827 81.4663 100.122 81.075L100.478 81.3596C100.104 81.8221 99.6221 82.1956 99.087 82.4447C98.7659 82.5692 98.4983 82.6403 98.2664 82.6403Z" fill="#F3CF14"/>
<path d="M99.4973 83.7786C99.2297 83.7608 98.9443 83.7431 98.6768 83.6185C98.3914 83.4762 98.1238 83.1738 98.1595 82.7825L98.6232 82.8358C98.6054 82.9781 98.7481 83.1382 98.873 83.1916C99.0514 83.2805 99.3011 83.2983 99.5151 83.3161L99.4973 83.7786Z" fill="#F3CF14"/>
<path d="M109.291 73.8883C109.112 73.1412 106.383 73.6037 104.617 73.9239C102.851 74.2441 101.656 74.5643 101.513 74.7777C101.371 74.9912 101.816 76.0051 104.813 75.4003C107.828 74.7955 109.451 74.5821 109.291 73.8883Z" fill="#0000EF"/>
<path d="M108.738 74.7599C108.862 73.6393 106.436 74.0662 104.867 74.3686C103.279 74.671 102.191 75.009 101.995 75.3114C101.799 75.6316 101.799 77.108 104.51 76.521C107.221 75.934 108.631 75.7917 108.738 74.7599Z" fill="#FE673C"/>
<path d="M107.632 75.7917C108.309 75.5604 108.684 75.258 108.737 74.7599C108.862 73.6393 106.436 74.0662 104.867 74.3686C104.795 74.3864 104.742 74.3864 104.688 74.4042C105.723 74.7244 106.722 75.1691 107.632 75.7917Z" fill="#E04136"/>
<path d="M71.6877 110.728C90.0609 102.297 96.0545 95.6082 99.7291 100.109C103.404 104.609 89.0798 112.525 87.7598 115.46C86.422 118.395 85.2803 129.673 69.6542 130.918C54.0281 132.164 60.8957 114.268 60.8957 114.268L71.6877 110.728Z" fill="#FFB0D8"/>
<path d="M122.687 82.7827C106.9 94.5231 79.6079 119.036 78.0917 120.067C76.5755 121.099 71.1349 110.942 67.2105 105.143C63.304 99.326 122.687 82.7827 122.687 82.7827Z" fill="#3DB5C9"/>
<path d="M104.42 91.0187C103.6 89.898 98.6231 91.6947 96.6253 92.4062C85.3516 96.4264 74.3456 99.8951 64.7665 107.046C63.8033 107.758 62.8757 108.487 61.966 109.252C60.3784 110.426 36.7073 124.586 31.3559 131.701C29.3402 134.369 29.8218 143.103 40.2036 147.212C65.9974 157.387 71.0277 136.788 77.824 132.039C91.4166 137.162 94.0744 123.536 94.0744 123.536C94.0744 123.536 98.0345 120.352 98.1415 115.175C98.2485 109.608 95.4123 104.716 83.6749 106.281C87.2781 103.56 97.1961 100.215 101.352 98.4365C102.869 97.7605 107.114 94.7009 104.42 91.0187Z" fill="#FE7EB2"/>
<path d="M81.3024 127.361C80.9813 127.859 80.3926 128.926 80.018 129.388C78.7337 130.972 77.3067 132.395 77.8418 132.021C85.6727 134.974 89.8825 131.701 92.023 128.392C88.2771 129.175 84.2635 128.979 81.3024 127.361Z" fill="#E56EA4"/>
<path d="M36.3684 132.679C42.5939 131.505 48.6231 129.442 54.1886 126.418C63.9638 121.117 70.4034 112.312 73.1861 101.781C70.2785 103.311 67.4779 105.018 64.7665 107.028C63.8033 107.74 62.8757 108.469 61.966 109.234C60.3784 110.408 36.7073 124.568 31.3559 131.683C31.0348 132.11 30.7672 132.715 30.6067 133.409C32.5332 133.266 34.4597 133.035 36.3684 132.679Z" fill="#E56EA4"/>
<path d="M55.58 96.3552C49.408 104.591 44.6988 114.09 43.5036 116.083C41.9339 118.68 46.875 116.012 58.4341 111.493C69.9931 106.975 123.008 83.6543 124.096 82.6403C125.184 81.6264 119.404 81.3418 108.095 84.4192C96.7859 87.4966 57.2389 94.1673 55.58 96.3552Z" fill="#A8E4F4"/>
<path d="M75.2732 98.4187C67.0498 100.144 58.2735 105.943 49.7291 105.107C46.5539 110.337 44.2885 114.802 43.5036 116.083C41.9339 118.68 46.875 116.012 58.4341 111.493C63.8033 109.394 78.1273 103.239 92.0231 97.1379C86.4933 96.1951 79.9289 97.4403 75.2732 98.4187Z" fill="#D2F1FC"/>
<path d="M78.5017 131.576L78.2163 131.203C79.7147 130.082 80.8742 128.481 81.4985 126.738L81.9266 126.898C81.2844 128.73 80.0536 130.385 78.5017 131.576Z" fill="#E04136"/>
<path d="M86.6895 128.268C85.0841 128.268 83.3003 127.912 81.6414 127.218L81.8197 126.791C83.7998 127.61 85.9582 127.948 87.742 127.734L87.7955 128.197C87.4387 128.232 87.0641 128.268 86.6895 128.268Z" fill="#E04136"/>
<path d="M94.3597 122.967L93.9137 122.842C94.3953 121.17 93.771 118.769 92.5937 117.79C91.2915 116.705 83.5498 116.332 81.659 116.51L81.6055 116.047C83.3536 115.887 91.3807 116.172 92.8791 117.435C94.1991 118.52 94.8948 121.099 94.3597 122.967Z" fill="#E04136"/>
<path d="M76.5012 115.77L76.291 116.182L78.0562 117.077L78.2663 116.664L76.5012 115.77Z" fill="#E04136"/>
<path d="M77.2305 107.081L77.093 107.522L79.035 108.123L79.1726 107.682L77.2305 107.081Z" fill="#E04136"/>
<path d="M101.656 96.3729C100.728 96.3729 99.8184 95.9816 99.2119 95.2878L99.5687 94.9854C100.318 95.8393 101.691 96.1595 102.744 95.697C103.796 95.2345 104.492 94.0248 104.367 92.8864L104.831 92.833C104.974 94.1849 104.171 95.5546 102.922 96.1061C102.512 96.284 102.084 96.3729 101.656 96.3729Z" fill="#E04136"/>
<path d="M212.412 31.3027C227.003 33.0993 235.566 26.1796 239.49 24.632C244.289 22.7286 247.696 20.932 247.606 22.2306C247.517 23.6358 244.717 24.881 244.717 24.881C244.717 24.881 246.019 27.8695 242.844 29.008C242.844 29.008 233.318 37.7243 224.578 39.094C215.837 40.4637 211.27 37.8488 211.235 37.2084C211.199 36.5859 212.412 31.3027 212.412 31.3027Z" fill="#53CAF1"/>
<path d="M239.044 30.6623L238.973 30.1998C239.579 30.0931 239.936 29.4883 240.364 28.7234C240.792 27.9762 241.292 27.1224 242.166 26.4109C243.182 25.6104 243.486 24.7387 243.289 24.4363C243.147 24.2051 242.558 24.1517 241.381 24.7743C241.042 24.9522 240.774 25.1657 240.525 25.3613C240.132 25.6637 239.722 25.9839 239.08 26.144L238.973 25.6993C239.508 25.557 239.847 25.308 240.239 24.9878C240.507 24.7743 240.792 24.5609 241.167 24.3652C242.861 23.4758 243.468 23.8671 243.682 24.1873C244.074 24.8099 243.557 25.9128 242.451 26.7666C241.631 27.407 241.167 28.2253 240.756 28.9368C240.293 29.7907 239.882 30.52 239.044 30.6623Z" fill="#FFD939"/>
<path d="M243.843 28.4921L243.468 28.2252C243.896 27.6382 243.878 26.8555 243.682 26.3219C243.575 26.0195 243.397 25.8238 243.236 25.7882L243.325 25.3435C243.646 25.4147 243.932 25.7171 244.11 26.1618C244.36 26.8022 244.378 27.7627 243.843 28.4921Z" fill="#FFD939"/>
<path d="M242.54 29.3638L242.219 29.0258C242.522 28.7412 242.344 27.496 242.023 27.1046L242.38 26.8022C242.772 27.2647 243.111 28.8123 242.54 29.3638Z" fill="#FFD939"/>
<path d="M158.791 62.3257C170.849 67.52 183.586 70.0993 183.586 70.0993L171.813 55.9219L162.305 58.7858L158.791 62.3257Z" fill="#48C6D3"/>
<path d="M165.427 54.9614C161.181 57.8431 150.55 67.2176 150.692 67.8758C151.067 69.6013 163.536 59.5152 169.458 57.2916C175.041 55.1926 268.013 25.9484 268.013 25.9484C243.932 28.4921 169.672 52.0796 165.427 54.9614Z" fill="#D2F1FC"/>
<path d="M213.768 31.1247C214.892 32.5122 216.533 33.544 218.281 33.9175C219.458 32.0142 221.545 28.4209 222.705 26.4997C220.332 26.0017 215.891 27.2113 212.68 26.8022C212.466 28.2964 212.698 29.8084 213.768 31.1247Z" fill="#25ACBA"/>
<path d="M213.839 26.4642C209.13 25.8238 204.528 25.3613 204.528 25.3613C189.508 34.8426 180.714 54.9613 180.714 54.9613L214.035 48.7532C214.035 48.7532 219.28 35.3051 222.277 29.3993C218.031 29.2036 215.355 29.1859 213.839 26.4642Z" fill="#03036D"/>
<path d="M216.604 27.2292C225.898 27.3003 232.944 25.6816 234.977 24.3652C237.849 22.533 237.546 18.7975 235.691 16.3604C234.745 15.133 232.658 13.8701 227.414 15.0619C228.413 10.7393 225.576 6.06092 221.474 4.33544C217.371 2.59217 212.466 3.51717 208.791 6.04313C199.693 12.3225 214.16 27.2114 216.604 27.2292Z" fill="#53CAF1"/>
<path d="M214.481 23.1023C212.662 19.509 212.804 14.1369 214.749 10.6326C215.783 8.76476 217.442 7.64409 219.44 6.96813C220.849 6.48784 222.419 6.30996 223.757 5.68736C223.061 5.13592 222.312 4.69121 221.509 4.33544C217.425 2.59217 212.501 3.51717 208.827 6.04313C199.711 12.3047 195.502 25.3614 208.88 26.7845C212.127 27.1225 215.23 27.247 218.085 27.2292C216.568 26.1441 215.32 24.7566 214.481 23.1023Z" fill="#3DB5C9"/>
<path d="M209.165 18.2104C212.662 16.0046 213.411 13.0161 213.661 9.15602C213.732 8.08872 214.481 7.32381 215.569 7.25266C218.406 7.09256 220.956 6.55891 223.347 5.40266C222.758 4.99352 222.152 4.61996 221.492 4.35314C217.407 2.60987 212.483 3.53487 208.809 6.06083C204.313 9.15602 201.013 13.8878 200.425 18.068C203.243 19.4911 206.169 20.0959 209.165 18.2104Z" fill="#E04136"/>
<path d="M218.852 15.4354C219.565 16.2003 220.742 16.4671 221.741 16.1647C223.061 15.7734 224.025 14.3681 223.9 12.9984C223.775 11.6287 222.58 10.4013 221.206 10.2768C219.993 10.17 218.548 11.0061 218.138 12.1801C217.817 13.1229 218.209 14.7594 218.852 15.4354Z" fill="white"/>
<path d="M221.509 10.3479C221.616 12.2868 221.652 14.2436 221.705 16.1825C221.723 16.1825 221.741 16.1825 221.741 16.1647C223.061 15.7734 224.024 14.3681 223.9 12.9984C223.793 11.7354 222.758 10.6147 221.509 10.3479Z" fill="#03036D"/>
<path d="M224.274 20.0427C223.721 19.9359 223.115 19.8292 222.58 20.0427C221.724 20.3807 221.331 21.4658 221.599 22.3374C221.866 23.209 222.651 23.8494 223.507 24.1696C224.364 24.4898 225.309 24.5254 226.219 24.5432C227.289 24.5609 228.395 24.5254 229.358 24.0807C230.643 23.4936 231.838 21.7859 230.125 21.1278C228.395 20.4518 226.112 20.3807 224.274 20.0427Z" fill="#E04136"/>
<path d="M227.878 22.7998C226.522 22.4974 223.293 22.1061 222.259 23.3691C222.616 23.7248 223.062 23.9916 223.525 24.1695C224.382 24.4897 225.327 24.5253 226.237 24.5431C227.307 24.5609 228.413 24.5253 229.376 24.0806C229.697 23.9383 230.018 23.7248 230.286 23.458C229.412 23.1734 228.556 22.9599 227.878 22.7998Z" fill="#FE7EB2"/>
<path d="M218.102 11.3085C218.388 11.4152 218.709 11.3974 219.012 11.3619C220.35 11.2551 221.688 11.1662 223.008 11.0595C223.329 11.0417 223.686 11.0061 223.935 10.7749C224.346 10.4013 224.239 9.74312 224.096 9.20947C223.953 8.64024 223.757 8.01764 223.24 7.75081C222.865 7.53735 222.401 7.59072 221.973 7.62629C221.099 7.71524 220.207 7.80418 219.333 7.91091C218.78 7.96427 218.085 8.05322 217.656 8.44456C216.889 9.13831 217.139 10.9349 218.102 11.3085Z" fill="#E04136"/>
<path d="M226.468 3.55271C226.986 3.01906 227.45 2.30752 227.325 1.57819C227.164 0.528675 225.915 -0.0405555 224.863 0.155118C223.828 0.350791 222.972 1.06233 222.169 1.73829C222.491 1.08012 221.938 0.261848 221.242 0.0661753C220.546 -0.129498 219.797 0.137328 219.173 0.493097C217.853 1.258 216.818 2.48541 216.283 3.90848C216.087 4.44214 215.98 5.1181 216.372 5.52723C216.604 5.77627 216.979 5.86521 217.318 5.91858C220.528 6.47002 224.096 5.97194 226.468 3.55271Z" fill="#E04136"/>
<path d="M179.519 72.1272C193.182 78.122 199.8 87.6921 201.673 88.6883C203.546 89.6845 222.134 67.182 231.641 58.7859C238.991 52.2931 264.196 28.8479 264.196 28.8479L179.519 72.1272Z" fill="#25ACBA"/>
<path d="M225.844 59.871C224.167 62.5037 222.954 65.3854 222.044 68.3561C225.576 64.6027 228.966 61.134 231.641 58.7681C233.621 57.0071 236.921 54.0186 240.667 50.5854C234.977 50.2297 228.537 55.6729 225.844 59.871Z" fill="#53CAF1"/>
<path d="M268.013 25.9662C265.819 24.6854 179.162 50.0696 169.458 57.3095C168.459 58.0566 167.513 65.172 166.122 72.8388C165.337 77.2148 164.392 81.7509 163.981 84.846C167.21 83.7609 170.564 83.0494 173.935 82.4802C179.608 78.122 187.028 72.1451 194.895 66.7907C209.326 56.9537 270.207 27.247 268.013 25.9662Z" fill="#A8E4F4"/>
<path d="M195.537 46.7787C195.43 47.2768 195.323 47.7926 195.27 48.3085C194.984 50.3897 195.198 52.6667 196.911 54.1075C199.123 55.9575 201.656 56.509 204.92 55.3705C210.717 53.3604 209.469 50.372 227.449 44.1638C231.748 42.6696 227.699 40.3393 229.055 36.1768C217.835 39.521 205.848 43.2921 195.537 46.7787Z" fill="#D2F1FC"/>
<path d="M173.935 82.4979C171.152 80.1498 162.002 79.7051 162.144 80.5945C162.287 81.4662 163.982 84.8638 163.982 84.8638L173.935 82.4979Z" fill="#D2F1FC"/>
<path d="M231.106 37.5465C229.929 36.7816 223.204 38.0624 221.474 38.3114C219.743 38.5605 217.531 37.7422 214.552 36.3369C211.877 36.3369 209.594 37.1196 207.935 40.1614C217.514 45.8537 223.632 44.1816 226.254 43.9682C229.643 43.6835 230.268 43.2744 230.196 42.0292C230.196 42.0292 232.337 41.371 230.963 39.5922C230.963 39.5922 232.284 38.3114 231.106 37.5465Z" fill="#53CAF1"/>
<path d="M229.822 42.1004C228.627 41.6557 227.235 41.6557 226.022 42.1004L225.862 41.6734C227.164 41.1932 228.662 41.1932 229.982 41.6734L229.822 42.1004Z" fill="#FFD939"/>
<path d="M231.017 39.8056C229.661 39.272 228.573 39.2008 227.396 39.6099L227.253 39.1652C228.537 38.7383 229.715 38.7917 231.195 39.3787L231.017 39.8056Z" fill="#FFD939"/>
<path d="M227.681 36.2124C227.913 36.0345 228.181 35.8566 228.466 35.7854C228.751 35.7143 229.108 35.7854 229.287 36.0167C229.447 36.2302 229.465 36.5148 229.376 36.7638C229.287 37.0128 229.108 37.2263 228.93 37.4042C228.43 37.8845 225.612 39.4143 224.916 38.8451C223.989 38.0802 227.164 36.6037 227.681 36.2124Z" fill="#53CAF1"/>
<path d="M227.539 37.7244L227.342 37.2975C227.735 37.1196 228.698 36.9595 229.108 36.9773L229.09 37.4398C228.751 37.4398 227.86 37.5821 227.539 37.7244Z" fill="#FFD939"/>
<path d="M206.079 42.7407L206.008 42.6518C204.474 40.9619 203.136 39.1119 202.012 37.1374L202.422 36.9061C203.511 38.8273 204.813 40.6239 206.276 42.2605C206.828 42.1893 207.863 41.7624 208.577 41.3177L208.826 41.709C208.077 42.1715 206.846 42.6874 206.204 42.723L206.079 42.7407Z" fill="#A8E4F4"/>
<path d="M215.248 36.0345C213.357 35.0027 211.627 33.6864 210.128 32.1388L210.467 31.8186C211.948 33.3306 213.625 34.6114 215.48 35.6253L215.248 36.0345Z" fill="#A8E4F4"/>
<path d="M285.138 113.361C282.426 110.586 274.702 108.665 271.171 112.667C269.405 114.66 269.922 118.164 270.921 120.601C262.02 110.123 255.955 98.4009 238.509 84.2234C220.635 69.6725 195.056 78.3177 188.741 88.2081C186.618 91.5345 186.618 96.1595 191.684 101.265C196.197 105.801 199.105 111.564 203.422 115.994C196.055 111.564 159.344 113.29 176.611 135.152C179.465 138.781 183.497 141.485 187.599 143.05C191.345 144.491 195.359 144.473 199.301 144.437C222.134 144.295 244.966 144.135 267.817 143.993C273.489 143.957 279.162 143.922 284.834 143.886C288.848 143.868 293.504 144.526 297.196 142.249C303.154 138.585 299.836 128.41 285.138 113.361Z" fill="#FFB0D8"/>
<path d="M211.377 105.125C206.615 106.086 202.244 110.622 201.816 116.261C201.46 121.01 203.868 125.599 207.15 128.428C210.432 131.256 214.446 132.59 218.441 133.551C223.329 134.743 228.288 135.454 233.265 135.703C243.896 136.219 246.072 124.087 237.064 118.644C229.037 113.824 221.206 103.133 211.377 105.125Z" fill="#FFCCE8"/>
<path d="M224.935 105.427C226.362 106.388 228.252 107.331 229.537 106.121C230.339 105.374 230.553 103.969 230.268 102.812C229.983 101.656 229.287 100.695 228.538 99.8594C226.344 97.458 218.227 92.4061 215.641 96.5686C213.554 99.9484 223.062 104.164 224.935 105.427Z" fill="#FFCCE8"/>
<path d="M97.4993 64.8696C94.9841 61.1518 92.237 60.9205 90.0786 61.9345C89.5792 62.1657 89.044 62.646 89.2046 63.1619C85.4229 58.946 79.2153 60.1556 76.6823 62.4503C75.612 63.4109 75.059 64.5849 74.8449 65.5455C74.6844 66.2926 74.9877 67.0753 75.4871 67.6446C75.9866 68.2138 76.6823 68.5696 77.3958 68.8364C79.3936 69.5835 81.5877 69.5835 83.7104 69.4056C87.4386 69.0854 92.0408 68.5873 95.5371 67.2354C99.6577 70.8643 101.602 73.1412 102.191 73.1234C102.565 73.1234 101.441 70.7042 97.4993 64.8696Z" fill="#FFCCE8"/>
<path d="M52.9933 45.5691C50.4603 45.7825 47.9273 46.2984 45.6797 47.508C43.45 48.6998 41.5234 50.6388 40.7386 53.0402C39.4364 57.0426 41.5234 61.5609 44.8413 64.1402C48.1592 66.7196 52.4403 67.7335 56.6323 68.2494C61.8231 68.8897 67.1032 68.8542 72.2762 68.196C75.1482 67.8224 85.0661 67.2176 84.9412 63.3042C84.8342 60.0311 79.9288 55.7619 77.6276 53.7873C74.4168 51.0301 70.6886 48.8599 66.6929 47.4191C62.3404 45.8537 57.6312 45.1777 52.9933 45.5691Z" fill="#FFCCE8"/>
<path d="M55.9186 53.4671C54.224 53.4849 52.4937 53.6628 51.0131 54.4633C49.5326 55.2638 48.3553 56.8114 48.3909 58.5013C48.4266 60.0667 49.5147 61.4542 50.8347 62.2902C52.1548 63.1263 53.7067 63.4998 55.2407 63.8734C59.2543 64.8518 63.2857 65.8123 67.2992 66.7907C69.636 67.3599 72.5615 67.7335 74.042 65.8479C74.9339 64.7094 74.9339 63.0551 74.3988 61.7032C71.9371 55.4594 61.823 53.4316 55.9186 53.4671Z" fill="#FFB0D8"/>
<path d="M34.9412 100.873C32.9434 100.873 31.0882 100.553 29.4114 99.9128C28.1271 99.4147 26.9676 98.721 25.9687 97.8849C18.9227 100.055 10.5923 98.2585 5.41926 92.9575C-1.09162 86.269 -1.84082 74.7421 3.74248 67.2532L4.11708 67.5378C-1.34136 74.8488 -0.609999 86.109 5.74034 92.6373C10.735 97.7604 18.7264 99.5215 25.5584 97.5291C23.9351 96.0171 22.7935 94.1138 22.4189 92.1037C21.7054 88.3325 23.8816 84.3301 27.253 83.1916C29.019 82.5868 31.1595 82.9248 32.872 84.0455C34.4239 85.0772 35.3693 86.6248 35.4764 88.2613C35.7083 91.8013 32.5152 94.434 31.1417 95.3945C29.7147 96.3907 28.1449 97.1734 26.5038 97.7248C27.4136 98.4541 28.466 99.059 29.5898 99.5037C32.5688 100.642 36.172 100.749 40.0251 99.7883C43.4856 98.9344 46.7678 97.3513 49.943 95.8392L50.1392 96.2484C46.9462 97.7782 43.6462 99.3614 40.1321 100.233C38.3304 100.642 36.5823 100.873 34.9412 100.873ZM29.0903 83.334C28.5017 83.334 27.9309 83.4229 27.3957 83.6008C24.2384 84.6681 22.2049 88.4392 22.8827 91.9969C23.2573 93.9892 24.4168 95.8926 26.0757 97.3513C27.7703 96.7998 29.3936 96.0171 30.8563 94.9854C32.1763 94.0604 35.2088 91.57 34.9947 88.2613C34.9055 86.7671 34.0136 85.3618 32.5866 84.4013C31.5341 83.7075 30.2855 83.334 29.0903 83.334Z" fill="#FE7EB2"/>
<path d="M118.584 59.4974C113.768 59.4974 108.933 57.2561 106.079 53.3248L106.454 53.058C110.378 58.5013 118.245 60.5825 124.363 57.8075L124.56 58.2344C122.687 59.0883 120.635 59.4974 118.584 59.4974Z" fill="#FE7EB2"/>
</svg>
