<svg width="40" height="40" viewBox="0 0 40 40" fill="none" xmlns="http://www.w3.org/2000/svg">
<path d="M22.1631 28.0778C23.309 29.7841 27.0668 33.4044 27.6275 33.8021L28.0558 28.5592C33.2414 28.9829 34.855 25.2051 35.0137 23.2633L35.6323 15.6903C36.1082 9.86489 31.955 8.05949 29.7453 7.87897C27.5355 7.69845 16.9524 6.54066 12.0672 6.43478C7.18191 6.3289 5.54672 10.0071 5.28497 13.2111L4.6663 20.7841C4.2687 25.6511 8.70416 27.0272 10.3777 27.115L22.1631 28.0778Z" stroke="#B5B5B5" stroke-miterlimit="10" stroke-linecap="round" stroke-linejoin="round"/>
<path d="M14.0478 15.0688C13.864 18.4277 17.6683 21.5814 19.6638 22.7915C23.7207 21.3448 27.0748 16.6377 26.0528 14.1651C25.0307 11.6923 22.0136 12.0124 20.5616 12.9983C19.3497 10.427 14.2776 10.8703 14.0478 15.0688Z" stroke="#B5B5B5" stroke-width="0.8" stroke-miterlimit="10"/>
<path fill-rule="evenodd" clip-rule="evenodd" d="M20.8518 12.3353C20.0904 11.2026 18.7722 10.755 17.56 11.0893C17.1828 11.1933 16.8236 11.3699 16.4983 11.6174C18.0542 11.0798 19.8939 11.5814 20.5617 12.9982C22.0136 12.0122 25.0307 11.6921 26.0528 14.165C27.0748 16.6376 23.7207 21.3447 19.6639 22.7914C18.9444 22.3551 17.9899 21.6662 17.0719 20.8061C17.5719 21.4907 18.1063 22.0887 18.6095 22.535C18.8949 22.788 19.1779 22.9991 19.4457 23.149C19.7063 23.2948 19.9882 23.4031 20.2621 23.4031C20.535 23.4031 20.8611 23.2823 21.179 23.1261C21.5131 22.962 21.8967 22.7288 22.3029 22.4452C23.1158 21.8776 24.0452 21.09 24.8867 20.1989C25.7261 19.3101 26.4939 18.3016 26.966 17.2901C27.4353 16.2843 27.6395 15.2135 27.2418 14.2512C26.1923 11.7122 22.9509 10.7316 20.8518 12.3353Z" fill="#B5B5B5"/>
</svg>
