<svg width="56" height="83" viewBox="0 0 56 83" fill="none" xmlns="http://www.w3.org/2000/svg">
<path d="M34.1952 78.5506C5.04013 42.0797 -12.564 10.4999 21.7866 3.59372C37.7462 0.377352 49.0653 14.6508 46.2657 35.7044C43.4165 57.7502 34.1952 78.5506 34.1952 78.5506Z" fill="#FE7EB2"/>
<path d="M39.1998 23.1393C39.2151 23.226 39.2303 23.3127 39.2456 23.3994C39.8503 28.6115 37.7958 34.0244 34.0425 37.1892C30.2533 40.405 24.9396 41.3419 20.2584 39.7538C20.0177 39.6621 19.8282 39.6062 19.5875 39.5145C15.3778 37.7985 12.3203 33.9575 11.0104 29.5848C9.59571 24.873 10.1899 19.5835 13.4801 15.83C13.9623 15.2533 14.5033 14.7556 15.0878 14.2503C23.3554 7.65249 37.447 10.3972 39.1998 23.1393Z" fill="#53CAF1"/>
<path d="M24.0198 25.682C22.1829 25.9612 20.3535 26.2837 18.5601 26.5553C18.9172 30.8725 19.2742 35.1897 19.5877 39.5146C15.378 37.7986 12.3206 33.9576 11.0106 29.5849C9.59598 24.8731 10.1902 19.5836 13.4804 15.8301C17.574 18.4157 21.1725 21.7591 24.0198 25.682Z" fill="#D2F1FC"/>
<path d="M13.8787 24.9671C13.3125 25.067 12.7004 24.9067 12.232 24.5424C11.8148 24.2137 11.5488 23.7242 11.5519 23.232L12.8456 23.1827C12.8761 23.3561 12.9862 23.4708 13.045 23.5498C13.2063 23.7001 13.3958 23.7561 13.6571 23.71C14.1362 23.6255 14.4953 23.1153 14.6367 22.6434C14.7986 22.0338 14.7199 21.3325 14.6129 20.7257L15.876 20.5029C16.0059 21.2399 16.1152 22.1145 15.8608 22.9639C15.6011 24.0377 14.837 24.7982 13.8787 24.9671Z" fill="#53CAF1"/>
</svg>
