<svg width="300" height="190" viewBox="0 0 300 190" fill="none" xmlns="http://www.w3.org/2000/svg">
<path d="M100.268 97.4914C99.4125 109.207 97.9274 121.103 96.5098 129.349C95.9922 132.323 95.4972 134.824 95.0472 136.694C94.3271 139.6 91.2669 143.813 86.8115 148.522C85.5514 149.851 84.2014 151.226 82.7387 152.623C69.6203 165.149 49.2563 179.546 36.9478 182.993C18.429 188.175 26.4396 141.335 26.4396 141.335C49.7513 128.155 53.149 133.157 60.7321 101.885C68.2927 70.5905 62.8473 50.6288 66.9201 47.3845C70.8354 44.2753 74.7507 48.8489 75.0657 49.2545C74.6832 48.7363 69.2377 41.2338 73.4456 37.291C77.8109 33.2131 81.3436 37.291 81.3436 37.291C81.3436 37.291 85.2364 33.6862 88.8817 39.0483C92.527 44.4105 99.6825 52.1834 100.808 71.7621C101.258 78.9492 100.943 88.164 100.268 97.4914Z" fill="#D2F1FC"/>
<path d="M88.1617 38.0796C86.1816 39.2061 84.8765 41.031 84.764 43.4417C84.719 44.4781 84.1114 45.1765 83.1664 45.537C79.8811 46.8212 78.6435 51.4174 77.901 54.4589C77.0459 57.906 76.6634 61.4658 76.4608 65.003C75.7633 76.6736 75.1333 88.6146 77.2259 100.173C77.4509 101.389 76.8884 102.448 75.6958 102.854C70.3854 104.633 68.1802 114.952 69.3503 119.143C72.9281 132.03 90.2769 113.443 93.8547 109.072C96.0373 106.391 98.1075 103.732 99.9526 100.961C100.83 90.4846 101.258 79.8504 100.785 71.7395C99.6376 52.1834 92.482 44.388 88.8593 39.0258C88.6568 38.6879 88.4092 38.3725 88.1617 38.0796Z" fill="#A8E4F4"/>
<path d="M80.2186 98.6179L79.6561 98.4827C83.5714 82.8694 82.0862 66.1971 75.4482 51.5525L75.9658 51.3272C82.6713 66.0845 84.1789 82.8919 80.2186 98.6179Z" fill="#53CAF1"/>
<path d="M76.4607 102.786L76.0557 102.38C81.2085 97.176 88.0041 93.6162 95.1821 92.332L95.2721 92.8953C88.2291 94.1795 81.5236 97.6942 76.4607 102.786Z" fill="#53CAF1"/>
<path d="M67.1901 61.6235L66.695 61.3306C68.4277 58.3566 68.3151 54.4139 66.4475 51.5075L66.9201 51.1921C68.9227 54.2787 69.0127 58.4693 67.1901 61.6235Z" fill="#53CAF1"/>
<path d="M91.4694 58.6495C89.5568 51.4174 85.889 44.6809 80.8486 39.161L81.2762 38.778C86.3615 44.3654 90.0968 51.1921 92.032 58.4918L91.4694 58.6495Z" fill="#53CAF1"/>
<path d="M93.5557 85.8604L92.9976 85.9307L93.5456 90.2898L94.1038 90.2195L93.5557 85.8604Z" fill="#53CAF1"/>
<path d="M69.3726 78.7689H66.1099V79.3315H69.3726V78.7689Z" fill="#53CAF1"/>
<path d="M76.2582 27.175L76.2807 27.4679L59.5394 31.2754L58.3018 31.5458V31.5683L54.7691 53.1296L54.1165 53.4676L53.419 53.8506L32.1324 65.386L31.5023 65.724L31.4123 65.7916L31.0748 76.2681L5.82794 63.9216L0 52.4087L0.562542 52.2735L1.48511 52.0482L28.8246 45.2892L29.8597 45.0188L30.1522 44.9512L25.2694 23.7955L25.1119 23.1871L25.0219 22.7816L45.6109 19.5823L46.3535 19.4697L46.2409 19.1543V19.1317L41.7181 4.62234L41.6731 4.50969L42.7532 4.12668L52.8564 0.657043L85.8214 3.90138L74.413 6.46981H74.3905L74.233 6.49234L74.278 7.03306L76.1907 26.5667L76.2582 27.175Z" fill="#53CAF1"/>
<path d="M59.9219 31.3656L59.7869 31.9063L58.3018 31.5683L25.2693 23.7954L25.1118 23.1871L59.5394 31.2754L59.9219 31.3656Z" fill="white"/>
<path d="M54.1166 53.4676L53.4191 53.8506C48.5362 52.2284 44.7559 50.8766 41.0882 49.5473C37.4204 48.2406 33.6626 46.8888 28.8022 45.2666L29.8373 45.0188C34.2927 46.5058 37.8254 47.7675 41.2682 49.0066C45.0935 50.381 48.9862 51.7778 54.1166 53.4676Z" fill="white"/>
<path d="M32.1324 65.386L31.5023 65.724C27.002 63.7639 22.8617 61.9615 18.6989 60.1591C12.9609 57.6582 7.2455 55.1799 0.5625 52.2735L1.46257 52.0482C7.85304 54.8194 13.3885 57.2301 18.9239 59.6409C23.1992 61.4883 27.4745 63.3583 32.1324 65.386Z" fill="white"/>
<path d="M45.6108 19.5823L46.3534 19.4697L46.2409 19.1543L76.1906 26.5667L76.2581 27.175L45.6108 19.5823Z" fill="white"/>
<path d="M74.233 6.49234L74.278 7.03306L41.7181 4.62234L41.6731 4.50969L42.7532 4.12668L74.3905 6.46981L74.233 6.49234Z" fill="white"/>
<path d="M138.678 134.215C143.178 134.283 147.679 134.058 152.179 133.81C152.561 131.016 154.857 114.096 154.564 112.609C154.407 111.798 150.964 112.226 147.769 112.181C144.506 112.136 142.008 112.001 141.468 114.321C140.748 117.476 139.668 124.82 138.588 134.215C138.655 134.215 138.655 134.215 138.678 134.215Z" fill="#A8E4F4"/>
<path d="M188.947 119.301C191.264 110.649 192.974 33.1455 196.372 32.0415C199.77 30.9375 210.661 27.9635 210.661 29.6308C210.661 31.298 204.203 118.467 204.203 118.467L188.947 119.301Z" fill="#A8E4F4"/>
<path d="M198.645 80.0306C197.362 82.3061 193.02 82.5089 191.602 84.8971C190.724 101.209 189.892 115.831 188.947 119.323L204.203 118.512C204.203 118.512 206.476 87.8711 208.321 62.5698C202.515 65.3635 201.818 74.3755 198.645 80.0306Z" fill="#53CAF1"/>
<path d="M164.982 72.483C163.317 72.7759 159.74 133.495 159.74 133.495L176.413 132.548C176.413 132.548 180.464 72.8435 180.599 70.1173C180.734 67.3912 168.56 71.8296 164.982 72.483Z" fill="#A8E4F4"/>
<path d="M139.375 127.862C139.128 129.845 138.858 131.962 138.61 134.215C138.633 134.215 138.655 134.215 138.678 134.215C143.178 134.283 147.679 134.058 152.179 133.81C152.359 132.548 152.921 128.335 153.461 124.009C143.381 129.124 141.198 127.411 139.375 127.862Z" fill="#53CAF1"/>
<path d="M160.55 120.585C160.055 128.132 159.74 133.494 159.74 133.494L176.413 132.548C176.413 132.548 177.133 121.846 177.988 109.32C176.391 109.838 163.52 121.396 160.55 120.585Z" fill="#53CAF1"/>
<path d="M264.642 3.76617C228.662 14.9862 216.466 23.3448 220.314 41.2563C224.229 59.4831 226.299 61.0152 230.732 57.9511C235.052 54.9546 229.202 36.4799 233.342 35.6688C237.483 34.8577 266.015 19.2669 264.642 3.76617Z" fill="#D2F1FC"/>
<path d="M246.168 10.1422C230.597 16.2478 222.452 22.2183 220.246 30.4418C224.117 29.4955 228.189 30.9375 231.092 34.6099C231.542 35.1731 231.947 35.8265 232.33 36.4799C232.577 36.0518 232.892 35.7589 233.32 35.6688C234.827 35.3759 239.62 33.1004 244.998 29.5631C245.336 23.0745 245.493 16.5858 246.168 10.1422Z" fill="#A8E4F4"/>
<path d="M228.752 55.6079L228.302 55.2475C229.292 54.0083 229.539 52.2059 228.932 50.764C228.302 49.2995 226.817 48.2406 225.242 48.1279L225.287 47.5647C227.064 47.6999 228.752 48.894 229.45 50.5387C230.17 52.1608 229.877 54.2111 228.752 55.6079Z" fill="#53CAF1"/>
<path d="M225.475 38.9962L222.528 39.0509L222.539 39.6134L225.486 39.5586L225.475 38.9962Z" fill="#53CAF1"/>
<path d="M239.823 7.91174C238.585 13.8822 237.055 23.9982 233.815 40.6254C230.237 58.9424 228.482 73.1589 227.919 82.5089C227.919 82.6891 233.86 84.6718 233.95 84.3564C234.332 83.0271 234.715 81.5852 235.142 80.0531C233.095 77.7551 234.692 70.9059 239.125 64.6876C240.183 60.0915 241.375 54.7068 242.568 49.1869C244.728 39.1159 246.933 28.5944 248.396 21.4749C248.598 20.461 248.801 19.5147 248.981 18.6586C249.904 14.2427 250.826 11.0434 251.456 8.67777C249.859 8.49752 248.238 8.31728 246.618 8.1821C244.346 8.00186 242.073 7.93427 239.823 7.91174Z" fill="#0000EF"/>
<path d="M251.096 9.91691C252.784 3.72113 253.211 2.36933 248.778 1.04005C242.77 -0.762358 241.645 -1.34814 239.598 8.94811C243.445 9.06076 247.271 9.55643 251.096 9.91691Z" fill="#53CAF1"/>
<path d="M251.816 7.1682C252.784 3.2705 252.446 2.16652 248.778 1.06254C243.401 -0.559622 241.938 -1.19047 240.228 6.06423C244.098 6.42471 247.946 6.78519 251.816 7.1682Z" fill="#A8E4F4"/>
<path d="M230.935 92.6249C232.127 90.3268 232.982 87.6007 233.905 84.3338C231.902 83.703 229.9 83.0721 227.874 82.4864C227.627 86.6094 227.604 89.7861 227.784 91.9715C228.864 92.1518 229.9 92.3771 230.935 92.6249Z" fill="#FFD833"/>
<path d="M227.739 91.2956C227.942 94.9004 228.572 96.2072 229.472 94.9906C230.192 94.0443 230.777 93.0079 231.295 91.8814C230.124 91.7012 228.932 91.4984 227.739 91.2956Z" fill="#FE673C"/>
<path d="M269.952 66.3774C266.802 73.8348 260.052 71.1988 260.052 71.1988C255.776 74.353 253.324 73.4969 248.913 72.1225C246.776 71.4692 243.198 80.0982 237.55 80.7741C236.492 80.9093 235.682 80.6164 235.142 80.0081C233.095 77.71 234.692 70.8609 239.125 64.6425C239.71 63.8089 240.34 62.9979 241.015 62.2093C245.088 57.5005 243.918 53.8056 242.545 49.1193C244.705 39.0483 246.911 28.5268 248.373 21.4073C252.964 15.955 259.917 8.63271 264.619 3.74368C271.64 -3.53354 301.072 22.0156 299.97 24.6967C298.844 27.4003 281.158 41.0761 276.23 45.3793C271.347 49.7276 273.08 58.9199 269.952 66.3774Z" fill="#D2F1FC"/>
<path d="M242.905 59.393C252.266 47.3619 258.679 10.5928 250.556 11.8545C248.553 18.929 243.761 40.3551 242.523 49.1418C243.626 52.8593 244.571 55.9459 242.905 59.393Z" fill="#A8E4F4"/>
<path d="M248.643 71.8296L248.261 71.4016C255.079 65.2508 258.004 55.1799 255.529 46.3256L256.069 46.1678C258.612 55.2249 255.619 65.5437 248.643 71.8296Z" fill="#53CAF1"/>
<path d="M258.139 73.0237L257.869 72.5281C263.877 69.2162 267.635 62.367 267.185 55.4953L267.747 55.4503C268.197 62.5472 264.35 69.5992 258.139 73.0237Z" fill="#53CAF1"/>
<path d="M238.225 80.0081C237.347 79.963 236.515 79.3322 236.177 78.431C235.885 77.6649 235.907 76.7637 236.245 75.8625C236.717 74.6684 237.73 73.6996 239.035 73.204C240.34 72.7083 241.758 72.7759 242.883 73.3617L242.613 73.8573C241.623 73.3392 240.385 73.2941 239.238 73.7222C238.067 74.1502 237.167 75.0064 236.785 76.0428C236.492 76.8088 236.47 77.5748 236.717 78.2057C236.987 78.8816 237.617 79.3998 238.27 79.4223L238.225 80.0081Z" fill="#53CAF1"/>
<path d="M255.604 41.3588L255.006 42.9388L255.532 43.1385L256.13 41.5586L255.604 41.3588Z" fill="#53CAF1"/>
<path d="M266.481 47.3432L266.285 49.5199L266.845 49.5705L267.041 47.3938L266.481 47.3432Z" fill="#53CAF1"/>
<path d="M236.56 188.761V170.061L209.063 169.407L216.264 141.425L188.271 143.475L241.735 134.261L235.007 160.553L259.759 161.837L253.954 180.222L236.56 188.761Z" fill="#FE673C"/>
<path d="M234.908 160.266L208.973 169.138L209.155 169.671L235.09 160.799L234.908 160.266Z" fill="white"/>
<path d="M241.657 133.961L216.182 141.128L216.334 141.671L241.809 134.504L241.657 133.961Z" fill="white"/>
<path d="M259.683 161.59L236.479 169.823L236.667 170.354L259.871 162.121L259.683 161.59Z" fill="white"/>
<path d="M175.761 177.721C173.151 177.721 170.518 177.225 168.065 176.189L168.29 175.671C175.558 178.712 184.784 176.797 190.229 171.097C190.994 170.286 192.052 169.002 192.682 167.47C190.634 168.281 188.272 167.988 186.787 166.636C185.819 165.758 185.301 164.361 185.414 162.941C185.504 161.702 186.112 160.643 187.034 160.035C188.069 159.359 189.352 159.291 190.634 159.855C192.232 160.553 193.447 162.04 193.74 163.662C193.897 164.564 193.852 165.465 193.672 166.298C195.292 165.149 196.485 163.212 197.025 160.801C197.542 158.503 197.43 156.115 197.34 153.794L197.902 153.772C197.992 156.115 198.105 158.548 197.565 160.914C196.957 163.595 195.607 165.735 193.717 166.929C193.627 166.997 193.515 167.042 193.425 167.109C192.795 168.979 191.534 170.534 190.634 171.48C186.787 175.536 181.274 177.721 175.761 177.721ZM188.947 160.058C188.384 160.058 187.844 160.215 187.372 160.531C186.584 161.049 186.089 161.95 186.022 163.009C185.932 164.248 186.382 165.465 187.214 166.231C188.654 167.537 191.062 167.718 192.997 166.726C193.29 165.803 193.402 164.811 193.222 163.775C192.975 162.356 191.849 161.004 190.454 160.395C189.914 160.17 189.419 160.058 188.947 160.058Z" fill="#FE673C"/>
<path d="M39.243 88.2315C37.7354 88.2315 36.2053 88.0288 34.7427 87.6232L34.9002 87.0825C42.6183 89.2003 51.5739 85.3026 55.2642 78.2056L55.7592 78.476C52.654 84.4465 45.926 88.2315 39.243 88.2315Z" fill="#53CAF1"/>
<path d="M47.276 94.7878L47.051 94.2696C51.3038 92.4221 54.7241 88.7046 56.2317 84.3113L56.7717 84.4915C55.2191 89.0201 51.6639 92.8727 47.276 94.7878Z" fill="#53CAF1"/>
<path d="M142.796 55.2925C141.446 57.9511 139.916 60.5195 138.071 62.8627C137.305 63.854 136.428 65.1833 135.415 65.9042C134.448 66.5576 134.358 66.2647 133.03 65.8141C127.63 64.0342 122.634 61.263 118.044 57.9511C116.109 56.5542 113.139 57.6132 112.014 59.5282C110.708 61.7587 111.654 64.1694 113.589 65.5663C116.694 67.8193 119.979 69.7794 123.467 71.4016C126.82 72.9562 130.6 74.8261 134.335 75.0965C138.498 75.4119 141.266 72.7534 143.763 69.7794C146.351 66.6703 150.806 59.5733 152.652 55.9685C155.194 50.9668 145.384 50.2233 142.796 55.2925Z" fill="#F3CF14"/>
<path d="M139.488 71.2439C137.441 71.4917 134.38 72.9111 133.458 75.0289C133.75 75.074 134.043 75.0965 134.335 75.1191C137.688 75.3669 140.141 73.6996 142.256 71.4917C141.378 71.2439 140.456 71.1312 139.488 71.2439Z" fill="#DD9903"/>
<path d="M156.117 42.6532C149.231 43.2164 148.781 42.2927 147.881 46.9114C146.981 51.53 143.538 57.2752 147.544 57.14C151.549 57.0048 154.227 59.9788 155.599 53.1747C156.994 46.3481 158.997 42.4279 156.117 42.6532Z" fill="#00007F"/>
<path d="M154.542 43.9374C149.659 44.3655 149.344 43.667 148.691 47.1367C148.061 50.6063 145.609 54.9321 148.466 54.842C151.301 54.7518 153.192 56.9823 154.182 51.8455C155.149 46.7086 156.589 43.7572 154.542 43.9374Z" fill="#53CAF1"/>
<path d="M154.542 43.9374C149.659 44.3654 149.344 43.667 148.691 47.1367C148.601 47.6098 148.489 48.0829 148.354 48.5786C150.334 46.8888 152.359 45.2892 154.542 43.9374Z" fill="#D2F1FC"/>
<path d="M141.806 57.1625C142.886 51.4174 144.731 52.3636 147.161 48.6011C149.636 44.7935 149.366 50.9217 148.016 51.913C146.666 52.9044 148.264 54.2336 146.306 57.1625C144.349 60.0915 141.806 57.1625 141.806 57.1625Z" fill="#F3CF14"/>
<path d="M156.522 47.8576C156.522 47.8576 152.404 51.4625 155.104 52.0708C155.104 52.0708 152.427 54.5491 154.182 55.4503C155.959 56.3515 157.017 52.8368 156.905 51.6427C156.905 51.6652 158.66 46.8212 156.522 47.8576Z" fill="#F3CF14"/>
<path d="M154.902 52.3636L154.812 51.8004C155.509 51.6877 156.162 51.2371 156.522 50.6288L157.017 50.9217C156.544 51.6877 155.757 52.2284 154.902 52.3636Z" fill="#00007F"/>
<path d="M147.145 55.1612L145.861 58.066L146.375 58.2939L147.659 55.3891L147.145 55.1612Z" fill="#00007F"/>
<path d="M146.824 49.8403L146.666 49.2995C147.071 49.1644 147.386 48.7813 147.386 48.3533L147.949 48.3758C147.926 49.0292 147.454 49.66 146.824 49.8403Z" fill="#00007F"/>
<path d="M104.183 60.1365C96.3974 62.5923 81.9963 57.7934 92.7296 79.7602C103.44 101.727 116.289 85.9109 116.289 85.9109L104.183 60.1365Z" fill="#1A5B45"/>
<path d="M93.5622 81.3824C95.6098 80.6389 97.6575 79.7602 97.68 77.3495C97.725 74.1277 95.5648 71.2889 95.2723 68.1572C94.7998 63.2682 99.9977 61.1504 104.498 60.7899L104.183 60.1365C96.3974 62.5923 81.9963 57.7934 92.7296 79.7602C92.9996 80.3235 93.2697 80.8642 93.5622 81.3824Z" fill="#2C8469"/>
<path d="M116.176 92.8052C117.639 95.9369 129.835 101.006 132.22 89.9889C133.817 82.599 128.732 70.613 124.817 64.1469C121.127 58.0187 116.716 54.3012 108.706 55.6981C98.1073 57.5456 105.465 70.0272 108.031 75.4795C110.753 81.2472 113.453 87.0375 116.176 92.8052Z" fill="#CC332F"/>
<path d="M114.601 72.1676C115.074 73.3842 115.231 74.6684 116.559 74.736C117.706 74.8036 119.417 73.587 120.407 73.1139C122.837 71.9648 125.357 70.951 127.9 70.0047C126.887 67.7968 125.807 65.7916 124.794 64.1244C124.277 63.2682 123.737 62.4571 123.174 61.6911C119.057 62.705 115.074 64.3046 111.046 65.6339C112.351 67.7742 113.679 69.847 114.601 72.1676Z" fill="#D2F1FC"/>
<path d="M113.926 88.0513C114.669 89.6284 115.411 91.228 116.154 92.8052C117.616 95.9368 129.812 101.006 132.197 89.9889C132.827 87.0825 132.422 83.4777 131.455 79.7602C125.649 82.5765 119.844 85.4378 113.926 88.0513Z" fill="#00007F"/>
<path d="M105.668 59.6408C109.291 60.7673 112.464 60.0013 115.029 58.0863C112.171 55.5629 105.848 49.6149 107.063 47.024C108.616 43.6895 95.7673 49.3221 95.7673 49.3221C98.8951 54.2787 102.293 57.5005 105.083 59.5282C105.286 59.5507 105.466 59.5733 105.668 59.6408Z" fill="#DD9903"/>
<path d="M115.029 58.0863C113.949 57.14 112.419 55.7206 110.956 54.1886C110.168 56.036 109.763 58.0863 109.628 60.1365C111.631 60.0013 113.454 59.2804 115.029 58.0863Z" fill="#F3CF14"/>
<path d="M130.015 148.77C132.445 147.621 131.95 144.016 129.07 145.458C126.122 146.922 118.291 147.981 118.741 145.458C119.191 142.935 112.328 145.458 112.328 145.458C110.326 148.387 108.863 149.896 112.328 149.716C113.498 149.649 115.614 149.671 117.976 149.649C121.982 149.108 125.987 148.86 130.015 148.77Z" fill="#0000EF"/>
<path d="M115.231 91.2281C118.966 100.51 122.679 110.086 122.994 120.202C123.107 123.807 122.207 129.912 121.509 133.495C121.014 135.995 118.201 135.072 117.796 138.248C117.256 142.394 111.451 140.344 110.033 145.796C112.351 146.584 119.461 145.007 121.802 145.796C127.427 140.006 129.497 130.701 129.79 123.649C130.33 111.325 125.964 99.7444 121.464 88.5244C119.461 89.6735 117.414 90.6873 115.231 91.2281Z" fill="#00007F"/>
<path d="M123.084 68.6304C120.587 66.5576 117.234 64.8002 112.801 63.2682C109.111 61.984 105.263 60.9476 102.068 61.9389L101.888 61.3982C105.24 60.3393 109.201 61.4207 112.981 62.7275C117.481 64.282 120.902 66.0619 123.444 68.2023L123.084 68.6304Z" fill="#1A5B45"/>
<path d="M184.627 107.675C186.787 110.491 187.777 112.339 188.677 108.982C189.577 105.647 193.447 94.8779 193.267 92.0391C193.087 89.2003 189.329 88.4568 189.802 91.7237C190.274 94.9906 188.879 102.763 186.607 101.569C184.357 100.375 184.627 107.675 184.627 107.675Z" fill="#0000EF"/>
<path d="M187.012 100.713C181.386 94.202 174.163 89.1553 166.018 86.1588C153.484 81.5401 139.511 82.5314 127.45 88.0513C123.804 89.7185 126.977 95.1032 130.6 93.436C144.304 87.1726 159.762 88.6596 171.936 96.072C174.298 97.6717 173.691 100.15 176.841 100.51C181.454 101.029 179.429 107.292 183.884 110.807C184.064 110.626 186.427 103.777 187.012 100.713Z" fill="#00007F"/>
<path d="M119.012 70.9735C117.842 70.2074 116.829 72.2126 115.681 71.4241C116.041 74.5558 115.434 74.8937 114.174 77.7776C113.229 79.9405 111.361 83.0045 109.088 84.7168C109.021 84.1986 108.998 83.6579 108.998 83.1397C108.953 81.3373 109.156 79.5349 109.448 77.7325C106.478 77.7776 103.508 77.9127 100.538 77.9353C100.223 80.2559 100.065 82.5765 100.29 84.9196C100.56 87.9161 101.168 91.2731 103.665 93.2332C106.411 95.3736 109.853 94.6075 112.576 92.8502C119.102 88.592 122.859 83.5678 123.872 76.0427C122.094 75.0965 120.699 72.0774 119.012 70.9735Z" fill="#F3CF14"/>
<path d="M100.538 77.9578C100.313 79.6476 100.155 81.3373 100.178 83.0271C100.65 82.7567 101.123 82.5089 101.663 82.3061C104.768 80.9768 107.378 80.0531 109.313 77.755C106.388 77.8001 103.463 77.9128 100.538 77.9578Z" fill="#DD9903"/>
<path d="M101.978 91.3181C102.405 92.0616 102.968 92.715 103.665 93.2783C106.411 95.4186 109.853 94.6526 112.576 92.8953C112.599 92.8727 112.621 92.8727 112.644 92.8502C109.831 90.2818 105.083 89.1327 101.978 91.3181Z" fill="#DD9903"/>
<path d="M108.796 78.6788C108.976 78.6788 109.133 78.7013 109.291 78.7464C109.358 78.3183 109.403 77.9128 109.493 77.4847C110.168 73.5644 111.023 69.6893 111.383 65.724C111.609 63.3358 109.291 62.367 107.086 62.367C104.52 62.367 102.788 63.3583 102.563 65.724C102.18 69.892 97.545 74.6008 96.9824 78.7464C99.7276 78.9041 106.028 78.6337 108.796 78.6788Z" fill="#E04136"/>
<path d="M115.704 71.4241C115.479 66.0845 116.131 60.9701 118.786 63.9216C118.786 63.9216 120.497 62.9528 121.532 65.6564C121.532 65.6564 123.152 64.7552 124.299 67.5264C125.942 71.4917 124.097 71.717 124.097 71.717C124.097 71.717 124.209 73.2716 123.872 76.0428C123.467 79.2871 117.684 72.1676 117.684 72.1676L115.704 71.4241Z" fill="#F3CF14"/>
<path d="M124.039 68.3352L123.481 68.4096L123.754 70.4641L124.312 70.3897L124.039 68.3352Z" fill="#00007F"/>
<path d="M121.03 65.687L120.616 67.5337L121.165 67.6569L121.579 65.8102L121.03 65.687Z" fill="#00007F"/>
<path d="M117.617 66.9631C117.504 65.8366 117.819 64.6651 118.494 63.7639L118.944 64.1018C118.359 64.9129 118.089 65.9267 118.179 66.9181L117.617 66.9631Z" fill="#00007F"/>
<path d="M98.7826 49.6375C100.38 49.7726 101.978 50.0205 103.53 50.381C112.374 46.4607 121.194 42.563 130.037 38.6428C129.07 39.0709 123.332 34.0692 111.023 40.0847C112.464 31.5909 109.246 27.8058 105.061 26.7469C101.618 25.8907 97.455 26.4765 94.3722 30.2165C92.7746 32.1541 92.1221 34.9253 91.9871 37.5839C92.8196 37.7416 93.5622 38.3724 93.6522 39.4313C93.9897 43.2389 95.8574 47.1366 98.7826 49.6375Z" fill="#F3CF14"/>
<path d="M97.6798 35.2408C97.9273 34.317 98.5798 33.8439 99.2999 33.7312C99.2099 33.5735 99.1424 33.3933 99.0749 33.2356C98.0173 30.6446 102.225 29.5181 103.283 32.0865C104.003 33.8439 107.175 33.8664 108.706 33.8214C109.516 33.7988 110.348 33.7087 111.181 33.551C110.438 29.5632 107.986 27.5129 105.105 26.792C101.663 25.9358 97.4998 26.5216 94.417 30.2616C92.3019 32.8526 91.8293 36.8629 92.0769 40.1974C92.3019 43.5318 93.7645 46.7086 95.8121 49.3671C96.5322 50.2909 97.3647 51.2146 98.4898 51.5525C99.9524 52.0031 101.483 51.3723 102.878 50.7415C103.8 50.3359 104.745 49.9079 105.668 49.5023C99.6599 51.6652 96.5097 39.6792 97.6798 35.2408Z" fill="#DD9903"/>
<path d="M92.6171 38.5301C90.8169 40.0622 89.2643 41.8871 88.0492 43.9374C87.5092 44.8386 87.0141 45.9651 87.4642 46.9339C87.8692 47.8576 89.0168 48.2631 89.9844 48.0604C90.9519 47.8576 91.762 47.1141 92.302 46.258C91.357 47.7224 92.257 49.9078 93.8546 50.5612C95.4523 51.2146 97.4324 50.4936 98.535 49.1418C99.6376 47.79 99.9976 45.9425 99.8851 44.2077C99.7726 42.4729 99.21 40.7832 98.6475 39.1385C98.9625 39.9721 99.9976 40.3776 100.853 40.1523C101.708 39.927 102.36 39.161 102.608 38.3274C102.855 37.4938 102.81 36.57 102.585 35.7139C102.27 34.4297 101.483 33.0553 100.178 32.8075C98.985 32.5822 97.8374 33.3708 96.9374 34.1818C95.4297 35.5111 94.0797 36.9756 92.8646 38.5752C93.4046 38.1021 93.9221 37.6064 94.4622 37.1333" fill="#FE7EB2"/>
<path d="M94.6196 50.7414C96.0597 50.9442 97.5899 50.2683 98.5349 49.1193C99.525 47.9026 99.9075 46.2805 99.885 44.7034C97.2973 45.1765 95.4297 48.0829 94.6196 50.7414Z" fill="#FFB0D8"/>
<path d="M109.133 30.0138C109.313 29.9237 109.493 29.8561 109.673 29.8335C108.526 28.1888 106.883 27.22 105.083 26.7694C101.64 25.9133 97.4774 26.4991 94.3946 30.2391C92.437 32.6047 91.8969 36.187 92.0095 39.3412C97.7249 36.2321 103.328 32.9427 109.133 30.0138Z" fill="#0000EF"/>
<path d="M109.673 29.8335C112.081 28.5043 114.421 25.6429 114.421 25.6429C114.421 25.6429 116.176 22.7366 107.873 28.6169C104.52 30.9826 109.156 30.0363 109.156 30.0363" fill="#0000EF"/>
<path d="M107.603 39.8819C106.726 39.8819 105.871 39.3637 105.331 38.7329C104.633 37.8993 104.295 36.8404 104.003 35.8941L104.543 35.7139C104.813 36.5925 105.128 37.6064 105.758 38.3499C106.298 38.9807 107.266 39.4989 108.143 39.1835C108.908 38.9131 109.336 38.1021 109.471 37.4262C109.628 36.6151 109.516 35.7815 109.381 34.9478L109.943 34.8577C110.056 35.6913 110.191 36.6151 110.011 37.5163C109.808 38.5527 109.156 39.3863 108.323 39.6792C108.098 39.8594 107.851 39.8819 107.603 39.8819Z" fill="#00007F"/>
<path d="M105.448 28.3973L103.517 30.5066L103.932 30.8872L105.863 28.7778L105.448 28.3973Z" fill="#00007F"/>
<path d="M111.406 31.8838C111.766 31.7261 112.081 31.343 112.059 30.9375C112.036 30.532 111.563 30.194 111.203 30.3742C111.811 30.4644 112.441 30.5545 113.071 30.4869C113.701 30.4193 114.309 30.1715 114.714 29.6758C115.119 29.1802 115.209 28.4367 114.849 27.941C114.399 27.2876 113.454 27.2426 112.666 27.3552C111.226 27.558 108.188 28.1888 107.671 29.811C107.063 31.6585 110.123 32.447 111.406 31.8838Z" fill="#FE7EB2"/>
<path d="M112.306 43.8247C111.068 43.8247 109.831 43.6219 108.638 43.2164L108.818 42.6757C111.833 43.7121 115.276 43.329 117.999 41.6393L118.291 42.1349C116.514 43.2615 114.421 43.8247 112.306 43.8247Z" fill="#00007F"/>
<path d="M108.672 41.8694L108.077 43.8075L108.615 43.973L109.21 42.035L108.672 41.8694Z" fill="#00007F"/>
<path d="M124.254 78.9942L123.872 78.5886C124.727 77.7776 125.514 74.691 125.199 72.0775C125.064 71.0185 124.727 69.6667 123.737 69.1035L124.029 68.6078C124.974 69.1485 125.559 70.3201 125.762 72.0099C126.054 74.6233 125.357 77.9578 124.254 78.9942Z" fill="#1A5B45"/>
<path d="M115.051 102.178C109.381 111.235 103.8 117.002 98.1747 126.398C97.6122 127.344 97.0496 128.335 96.5321 129.349C93.0668 135.928 90.2091 143.633 86.8114 148.522C85.5513 149.851 84.2012 151.226 82.7386 152.623C76.7306 156.002 74.3455 123.469 74.3455 123.469C80.3534 113.6 91.6042 104.408 100.267 97.4914C102.225 95.9143 104.048 94.4724 105.668 93.1656C115.118 85.4153 123.219 89.1102 115.051 102.178Z" fill="#D2F1FC"/>
<path d="M80.8862 113.657L72.8022 124.597L73.2545 124.932L81.3384 113.992L80.8862 113.657Z" fill="#53CAF1"/>
<path d="M108.503 100.42C106.501 100.42 104.565 99.3163 103.778 97.6491L104.295 97.4013C105.038 99.0009 107.018 100.015 108.976 99.812C110.708 99.6317 112.463 98.5954 113.791 96.9732C115.096 95.3736 115.839 93.436 116.424 91.7687L116.964 91.949C116.379 93.6838 115.591 95.6664 114.241 97.3337C112.824 99.091 110.933 100.195 109.043 100.375C108.841 100.42 108.661 100.42 108.503 100.42Z" fill="#53CAF1"/>
<path d="M97.7201 102.305L97.3479 102.727L100.756 105.739L101.128 105.316L97.7201 102.305Z" fill="#53CAF1"/>
<path d="M60.4395 190V180.92H60.7095C70.7902 180.537 85.9563 179.884 87.1939 179.636C87.4415 178.87 85.8438 173.44 84.1112 168.506L83.9762 168.123H109.223L105.24 149.784L137.508 148.184L135.483 133.99L185.616 131.534L182.579 119.639L209.176 117.273L206.858 97.0634L229.45 94.6977L229.517 95.2609L207.51 97.559L209.828 117.769L183.321 120.134L186.381 132.053L136.18 134.508L138.205 148.702L105.983 150.302L109.988 168.687H84.7863C85.6188 171.052 88.229 178.78 87.689 179.907C87.6215 180.064 87.509 180.132 87.419 180.154C86.4514 180.47 64.6473 181.326 61.002 181.461V189.414L227.739 183.106L227.762 183.669L60.4395 190Z" fill="#FE673C"/>
</svg>
