<svg id="e4e0t5EXRoh1" xmlns="http://www.w3.org/2000/svg" xmlns:xlink="http://www.w3.org/1999/xlink" viewBox="0 0 430 850" shape-rendering="geometricPrecision" text-rendering="geometricPrecision"><defs><linearGradient id="e4e0t5EXRoh2-fill" x1="0.5" y1="0" x2="0.5" y2="1" spreadMethod="pad" gradientUnits="objectBoundingBox" gradientTransform="translate(0 0)"><stop id="e4e0t5EXRoh2-fill-0" offset="0%" stop-color="#e90064"/><stop id="e4e0t5EXRoh2-fill-1" offset="24%" stop-color="#ff5f9e"/><stop id="e4e0t5EXRoh2-fill-2" offset="70%" stop-color="#ffabab"/></linearGradient></defs><rect width="430" height="525.153947" rx="0" ry="0" transform="matrix(1 0 0 1.618573-.000009-.000018)" fill="url(#e4e0t5EXRoh2-fill)" fill-opacity="0.6" stroke-width="0"/><g><ellipse rx="1.64022" ry="1.968264" transform="matrix(1 0 0 0.77838 32.363736 14.513166)" fill="#fcc8d1" stroke-width="0"/><ellipse rx="1.64022" ry="1.968264" transform="matrix(1 0 0 0.77838 394.662142 53.660734)" fill="#fcc8d1" stroke-width="0"/><ellipse rx="1.64022" ry="1.968264" transform="matrix(1 0 0 0.77838 316.722585 22.56072)" fill="#fcc8d1" stroke-width="0"/><ellipse rx="1.64022" ry="1.968264" transform="matrix(1 0 0 0.77838 120.338424 12.981109)" fill="#fcc8d1" stroke-width="0"/><ellipse rx="1.64022" ry="1.968264" transform="matrix(1 0 0 0.77838 180.3086 72.808117)" fill="#fcc8d1" stroke-width="0"/><ellipse rx="1.64022" ry="1.968264" transform="matrix(1 0 0 0.77838 161.571653 141.226981)" fill="#fcc8d1" stroke-width="0"/><ellipse rx="1.64022" ry="1.968264" transform="matrix(1 0 0 0.77838 112.234072 115.902273)" fill="#fcc8d1" stroke-width="0"/><ellipse rx="1.64022" ry="1.968264" transform="matrix(1 0 0 0.77838 20.209461 215.644748)" fill="#fcc8d1" stroke-width="0"/><ellipse rx="1.64022" ry="1.968264" transform="matrix(1 0 0 0.77838 267.538212 160.079944)" fill="#fcc8d1" stroke-width="0"/><ellipse rx="1.64022" ry="1.968264" transform="matrix(1 0 0 0.77838 276.883179 125.129018)" fill="#fcc8d1" stroke-width="0"/><ellipse rx="1.64022" ry="1.968264" transform="matrix(1 0 0 0.77838 336.793612 184.551068)" fill="#fcc8d1" stroke-width="0"/><ellipse rx="1.64022" ry="1.968264" transform="matrix(.663113 0 0 0.516155 50.572027 19.496606)" fill="#fcc8d1" stroke-width="0"/><ellipse rx="1.64022" ry="1.968264" transform="matrix(.663113 0 0 0.516155 220.889686 49.839636)" fill="#fcc8d1" stroke-width="0"/><ellipse rx="1.64022" ry="1.968264" transform="matrix(.663113 0 0 0.516155 288.906574 94.588141)" fill="#fcc8d1" stroke-width="0"/><ellipse rx="1.64022" ry="1.968264" transform="matrix(.663113 0 0 0.516155 286.731272 142.759038)" fill="#fcc8d1" stroke-width="0"/><ellipse rx="1.64022" ry="1.968264" transform="matrix(.663113 0 0 0.516155 366.406761 201.096719)" fill="#fcc8d1" stroke-width="0"/><ellipse rx="1.64022" ry="1.968264" transform="matrix(.663113 0 0 0.516155 366.95933 10.433123)" fill="#fcc8d1" stroke-width="0"/><ellipse rx="1.64022" ry="1.968264" transform="matrix(.663113 0 0 0.516155 214.057102 19.376178)" fill="#fcc8d1" stroke-width="0"/><ellipse rx="1.64022" ry="1.968264" transform="matrix(.663113 0 0 0.516155 220.33779 15.529095)" fill="#fcc8d1" stroke-width="0"/><ellipse rx="1.64022" ry="1.968264" transform="matrix(.663113 0 0 0.516155 309.319194 25.108706)" fill="#fcc8d1" stroke-width="0"/><ellipse rx="1.64022" ry="1.968264" transform="matrix(.663113 0 0 0.516155 139.203936 79.416912)" fill="#fcc8d1" stroke-width="0"/><ellipse rx="1.64022" ry="1.968264" transform="matrix(.663113 0 0 0.516155 118.698204 118.45026)" fill="#fcc8d1" stroke-width="0"/><ellipse rx="1.64022" ry="1.968264" transform="matrix(.663113 0 0 0.516155 99.48944 183.535139)" fill="#fcc8d1" stroke-width="0"/><ellipse rx="1.64022" ry="1.968264" transform="matrix(.663113 0 0 0.516155 106.346029 170.257935)" fill="#fcc8d1" stroke-width="0"/><ellipse rx="1.64022" ry="1.968264" transform="matrix(.663113 0 0 0.516155 137.028634 204.40169)" fill="#fcc8d1" stroke-width="0"/><ellipse rx="1.64022" ry="1.968264" transform="matrix(.663113 0 0 0.516155 35.091607 159.064015)" fill="#fcc8d1" stroke-width="0"/><ellipse rx="1.64022" ry="1.968264" transform="matrix(.663113 0 0 0.516155 51.659678 152.324857)" fill="#fcc8d1" stroke-width="0"/><ellipse rx="1.64022" ry="1.968264" transform="matrix(.663113 0 0 0.516155 8.337192 123.596962)" fill="#fcc8d1" stroke-width="0"/><ellipse rx="1.64022" ry="1.968264" transform="matrix(.663113 0 0 0.516155 172.336971 39.811621)" fill="#fcc8d1" stroke-width="0"/><ellipse rx="1.64022" ry="1.968264" transform="matrix(.663113 0 0 0.516155 31.811167 81.44877)" fill="#fcc8d1" stroke-width="0"/><ellipse rx="1.64022" ry="1.968264" transform="matrix(.663113 0 0 0.516155 91.267788 37.779762)" fill="#fcc8d1" stroke-width="0"/><ellipse rx="1.64022" ry="1.968264" transform="matrix(.663113 0 0 0.516155 22.937332 35.747904)" fill="#fcc8d1" stroke-width="0"/><ellipse rx="1.64022" ry="1.968264" transform="matrix(.415487 0 0 0.32341 53.17253 21.028663)" fill="#fcc8d1" stroke-width="0"/><ellipse rx="1.64022" ry="1.968264" transform="matrix(.415487 0 0 0.32341 55.198996 51.492121)" fill="#fcc8d1" stroke-width="0"/><ellipse rx="1.64022" ry="1.968264" transform="matrix(.415487 0 0 0.32341 93.036929 83.101255)" fill="#fcc8d1" stroke-width="0"/><ellipse rx="1.64022" ry="1.968264" transform="matrix(.415487 0 0 0.32341 48.802886 122.703223)" fill="#fcc8d1" stroke-width="0"/><ellipse rx="1.64022" ry="1.968264" transform="matrix(.415487 0 0 0.32341 42.925787 150.672371)" fill="#fcc8d1" stroke-width="0"/><ellipse rx="1.64022" ry="1.968264" transform="matrix(.415487 0 0 0.32341 28.795121 171.91042)" fill="#fcc8d1" stroke-width="0"/><ellipse rx="1.64022" ry="1.968264" transform="matrix(.415487 0 0 0.32341 69.18661 202.749204)" fill="#fcc8d1" stroke-width="0"/><ellipse rx="1.64022" ry="1.968264" transform="matrix(.415487 0 0 0.32341 201.752546 168.605449)" fill="#fcc8d1" stroke-width="0"/><ellipse rx="1.64022" ry="1.968264" transform="matrix(.415487 0 0 0.32341 215.826243 157.411529)" fill="#fcc8d1" stroke-width="0"/><ellipse rx="1.64022" ry="1.968264" transform="matrix(.415487 0 0 0.32341 43.607277 225.161642)" fill="#fcc8d1" stroke-width="0"/><ellipse rx="1.64022" ry="1.968264" transform="matrix(.415487 0 0 0.32341 313.421623 25.488079)" fill="#fcc8d1" stroke-width="0"/><ellipse rx="1.64022" ry="1.968264" transform="matrix(.415487 0 0 0.32341 411.622646 19.496606)" fill="#fcc8d1" stroke-width="0"/><ellipse rx="1.64022" ry="1.968264" transform="matrix(.415487 0 0 0.32341 313.421623 30.809031)" fill="#fcc8d1" stroke-width="0"/><ellipse rx="1.64022" ry="1.968264" transform="matrix(.415487 0 0 0.32341 249.833348 96.240626)" fill="#fcc8d1" stroke-width="0"/><ellipse rx="1.64022" ry="1.968264" transform="matrix(.415487 0 0 0.32341 269.859922 35.747904)" fill="#fcc8d1" stroke-width="0"/><ellipse rx="1.64022" ry="1.968264" transform="matrix(.415487 0 0 0.32341 286.325111 97.513738)" fill="#fcc8d1" stroke-width="0"/><ellipse rx="1.64022" ry="1.968264" transform="matrix(.415487 0 0 0.32341 279.204889 127.297631)" fill="#fcc8d1" stroke-width="0"/><ellipse rx="1.64022" ry="1.968264" transform="matrix(.415487 0 0 0.32341 337.752342 124.612891)" fill="#fcc8d1" stroke-width="0"/><ellipse rx="1.64022" ry="1.968264" transform="matrix(.415487 0 0 0.32341 339.115322 123.976335)" fill="#fcc8d1" stroke-width="0"/><ellipse rx="1.64022" ry="1.968264" transform="matrix(.415487 0 0 0.32341 339.115322 125.765574)" fill="#ffabab" stroke-width="0"/><ellipse rx="1.64022" ry="1.968264" transform="matrix(.415487 0 0 0.32341 81.347787 64.707709)" fill="#fcc8d1" stroke-width="0"/></g></svg>
