<svg id="eHL94wSRPqs1" xmlns="http://www.w3.org/2000/svg" xmlns:xlink="http://www.w3.org/1999/xlink" viewBox="0 0 430 850" shape-rendering="geometricPrecision" text-rendering="geometricPrecision"><defs><linearGradient id="eHL94wSRPqs5-fill" x1="0.5" y1="0" x2="0.5" y2="1" spreadMethod="pad" gradientUnits="objectBoundingBox" gradientTransform="translate(0 0)"><stop id="eHL94wSRPqs5-fill-0" offset="0%" stop-color="#e90064"/><stop id="eHL94wSRPqs5-fill-1" offset="32%" stop-color="#ff5f9e"/><stop id="eHL94wSRPqs5-fill-2" offset="100%" stop-color="#ff5f9e"/></linearGradient></defs><path d="M-4.482626,266.629297c-4.258473-19.501453.902822-100.176401,0-131.496958-.133844-4.643301,6.543805-3.99939,7.411404-2.433918c2.096455,3.782788,10.270467,1.476739,13.271084,1.476737c8.249974-.259594,8.450849-1.451838,15.998836.957181c5.06767,1.6174,2.334127,5.614917,13.53509,5.060491c3.53305-.174879,25.529653,2.093252,37.837101,2.093252c1.76632,0-3.076151-.000003-.000001,0c3.699663.000003,41.063369-21.718406,50.089216-21.718406c12.906148,0,17.140856,7.192036,28.953089,11.815567c6.130577,3.674735,37.521346.936845,47.852142,1.791915c8.847559.7323,4.712459,2.667921,15.986454.957181c6.129635-.930128,17.729389,5.060491,27.995104,5.060491c9.892692,0,20.413063-6.017672,26.040365-6.017672c17.282452,0,14.298164,0,19.700675-.000001c5.134622-.000001,12.779663,7.232228,19.962686,3.685086c4.21414-4.351059,5.674557-1.162167,15.937005-6.402641c10.34488-5.282568,13.169001.563781,26.144883-8.338734c7.273069-4.98992,6.320879-5.708566,14.332222-7.84574c1.084987-.079854,12.435923,7.043068,13.505762,6.970751c4.171977,1.348372,9.339532.874988,12.373706.874983c3.31861-.000005,11.179383-1.488634,15.360461-.874983c1.611884.236574.715684,1.100867,6.239257.874989c2.483956,0,4.938899-7.865832,4.9389-2.551186.000002,9.006896,0,152.758376,0,146.061611" transform="matrix(.988216 0 0 1.803173 4.576863 369.22124)" fill="url(#eHL94wSRPqs5-fill)" stroke="#060047" stroke-width="0.78"/></svg>
