<svg id="eC5rVxoyOjR1" xmlns="http://www.w3.org/2000/svg" xmlns:xlink="http://www.w3.org/1999/xlink" viewBox="0 0 390 850" shape-rendering="geometricPrecision" text-rendering="geometricPrecision"><path d="M-3.755817,233.851974c0-19.928235.513523-115.147945,0-146.987258-.070455-4.368341,9.759814,8.21129,27.441263,13.056395c8.756211,2.399394,15.189816,8.657901,18.278497,12.36999c9.175107,11.02698,15.993868-4.786823,27.960908-.000003c6.60995,2.64398,25.712728,14.396311,33.397752,16.965317c11.144272,3.725388,5.889644,20.644524,18.640604,20.644524c7.83352,0,28.177534,5.742674,37.583254,6.597744c8.0553.7323,23.842886-13.802214,34.107346-15.512954c5.580754-.930128,23.125272,4.695586,32.471738,4.695586c9.006846,0,23.571724-11.506157,28.695127-11.506157c15.734886,0,17.936573,4.91874,17.936568-.000001-.000011-4.921483,12.510925-4.918743,19.05074-8.465885c19.343695-7.728785,5.361292-7.753514,14.509919-13.418177c9.181308-5.684899-1.192868-3.467472,10.621082-12.369987c6.621799-4.98992-1.046266-10.919218,6.247697-13.056392.987832-.079854,6.835576-4.29659,7.809616-4.368907c4.097198-1.68079,9.115548-5.191987,11.245849-5.478409c17.184691.625545,5.965299,27.857407,12.495392,22.903702c10.35235-7.853255,12.776967,10.36381,17.805929,10.137932c5.898642.000014,18.35128-13.01866,18.351281-7.704014.000001,9.006896,0,138.193717,0,131.496952" transform="matrix(.988216 0 0 1.803173 3.711558 428.324416)" fill="#060047" stroke="#060047" stroke-width="0.78"/></svg>
