<svg id="eEfoP36Mxay1" xmlns="http://www.w3.org/2000/svg" xmlns:xlink="http://www.w3.org/1999/xlink" viewBox="0 0 390 850" shape-rendering="geometricPrecision" text-rendering="geometricPrecision"><defs><linearGradient id="eEfoP36Mxay5-fill" x1="0.5" y1="0" x2="0.5" y2="1" spreadMethod="pad" gradientUnits="objectBoundingBox" gradientTransform="translate(0 0)"><stop id="eEfoP36Mxay5-fill-0" offset="0%" stop-color="#b3005e"/><stop id="eEfoP36Mxay5-fill-1" offset="16%" stop-color="#e64089"/><stop id="eEfoP36Mxay5-fill-2" offset="42%" stop-color="#ff5f9e"/></linearGradient></defs><path d="M-4.631441,266.629297c-3.877146-19.501453.821978-100.176401,0-131.496958-.121859-4.643301,5.957837-3.99939,6.747746-2.433918c1.908727,3.782788,9.350793,1.476739,12.082718,1.476737c7.511226-.259594,7.694114-1.451838,14.566212.957181c4.613883,1.6174,2.125117,5.614917,12.323084,5.060491c3.216681-.174879,23.243587,2.093252,34.448959,2.093252c1.608154,0-2.800696-.000003-.000001,0c3.368375.000003,37.386329-21.718406,45.603952-21.718406c11.75046,0,15.605969,7.192036,26.36047,11.815567c5.581611,3.674735,34.161478.936845,43.567198,1.791915c8.0553.7323,4.290479,2.667921,14.554939.957181c5.580754-.930128,16.141802,5.060491,25.488268,5.060491c9.006846,0,18.585165-6.017672,23.708568-6.017672c15.734886,0,13.017827,0,17.936568-.000001c4.67484-.000001,11.635302,7.232228,18.175117,3.685086c3.836783-4.351059,5.166426-1.162167,14.509918-6.402641c9.418543-5.282568,11.989776.563781,23.803726-8.338734c6.621799-4.98992,5.754873-5.708566,13.048836-7.84574.987832-.079854,11.322342,7.043068,12.296382,6.970751c3.798395,1.348372,8.503219.874988,11.265696.874983c3.021444-.000005,10.17832-1.488634,13.985001-.874983c1.467547.236574.651598,1.100867,5.68056.874989c2.261529,0,4.496643-7.865832,4.496644-2.551186.000001,9.006896,0,152.758376,0,146.061611" transform="matrix(.988216 0 0 1.803173 4.576863 369.22124)" fill="url(#eEfoP36Mxay5-fill)" stroke="#060047" stroke-width="0.78"/></svg>
