<svg id="edC0agys2eF1" xmlns="http://www.w3.org/2000/svg" xmlns:xlink="http://www.w3.org/1999/xlink" viewBox="0 0 430 850" shape-rendering="geometricPrecision" text-rendering="geometricPrecision"><path d="M-3.755817,233.851974c0-19.928235.566192-115.147945,0-146.987258-.077681-4.368341,10.76082,8.21129,30.255751,13.056395c9.654284,2.399394,16.747745,8.657901,20.153214,12.36999c10.116144,11.02698,17.634264-4.786823,30.828693-.000003c7.287893,2.64398,28.34993,14.396311,36.823162,16.965317c12.287274,3.725388,6.49371,20.644524,20.55246,20.644524c8.636958,0,31.067537,5.742674,41.437946,6.597744c8.881484.7323,26.28831-13.802214,37.605535-15.512954c6.153138-.930128,25.497094,4.695586,35.802171,4.695586c9.930625,0,25.989337-11.506157,31.638217-11.506157c17.34872,0,19.776221,4.91874,19.776215-.000001-.000012-4.921483,13.794097-4.918743,21.004662-8.465885c21.327663-7.728785,5.911168-7.753514,15.998116-13.418177c10.12298-5.684899-1.315214-3.467472,11.710423-12.369987c7.300958-4.98992-1.153575-10.919218,6.888486-13.056392c1.089148-.079854,7.536661-4.29659,8.610602-4.368907c4.517424-1.68079,10.050476-5.191987,12.39927-5.478409c18.947223.625545,6.577124,27.857407,13.77697,22.903702c11.414129-7.853255,14.087425,10.36381,19.632178,10.137932c6.50363.000014,20.233462-13.01866,20.233463-7.704014.000001,9.006896,0,138.193717,0,131.496952" transform="matrix(.988216 0 0 1.803173 3.711558 428.324416)" fill="#060047" stroke="#060047" stroke-width="0.78"/></svg>
