<svg id="eSprlQyRzwi1" xmlns="http://www.w3.org/2000/svg" xmlns:xlink="http://www.w3.org/1999/xlink" viewBox="0 0 390 850" shape-rendering="geometricPrecision" text-rendering="geometricPrecision"><defs><linearGradient id="eSprlQyRzwi6-fill" x1="0.5" y1="0" x2="0.5" y2="1" spreadMethod="reflect" gradientUnits="objectBoundingBox" gradientTransform="translate(0 0)"><stop id="eSprlQyRzwi6-fill-0" offset="0%" stop-color="#b3005e"/><stop id="eSprlQyRzwi6-fill-1" offset="44%" stop-color="#ff5f9e"/></linearGradient></defs><path d="M-3.511484,215.42237c0-19.880156-.000009-89.375292,0-121.307941c0-1.953354.410327-7.937533.410327-13.863758c0-5.153385,1.460005-9.259903,6.33742-12.369993c5.224255-3.331254,13.646577-10.570632,20.69352-11.191297c5.914084-.520888,10.662114,5.155044,13.664606,6.728749c4.613888,2.41829,7.938184.750468,11.026865,4.462557c9.175107,11.02698,16.068942,2.959632,28.035982,7.746452c6.60995,2.64398,15.632031,2.054526,23.317055,4.623532c11.144272,3.725388,14.398767,8.735226,23.161566,10.828478c6.667702,2.782338,12.37661,13.304061,21.78233,14.159131c8.0553.7323,14.799163,1.71074,25.063623,0c5.580754-.930128,11.501258,1.632328,16.650285-5.266453c5.556759-5.735619,6.445212-8.203597,13.313178-10.985929c15.693711-7.809588,21.488469-7.246995,43.981257,8.230093c4.054388,2.789789,12.066792-.455531,21.95733-.455531c13.132108.455531,8.590464-3.785547,18.907702-7.774562c8.189068-3.166188,3.434193,1.65552,15.248143-7.246995c6.621799-4.98992,10.777963-11.721051,18.071926-13.858225.987832-.079854,24.329123-4.39023,25.303163-4.462547c1.080758,0,2.547066,0,4.174238,0c0,4.462547,13.363515,0,13.363515,0c6.89432-3.842356,5.244364,0,12.763566-.000001c8.137323-.000001,9.201434,4.475983,12.926321,4.462548c3.441841-.012414,4.496645-3.353792,4.496645,0c0,5.035532-.000003,24.249418-.000002,28.879782c0,8.47782.000002,125.5225.000002,118.661909" transform="matrix(.988216 0 0 1.803173 3.470103 461.556199)" fill="url(#eSprlQyRzwi6-fill)" stroke="#060047" stroke-width="0.78"/></svg>
