<svg id="eTpnMGhK7Hv1" xmlns="http://www.w3.org/2000/svg" xmlns:xlink="http://www.w3.org/1999/xlink" viewBox="0 0 430 850" shape-rendering="geometricPrecision" text-rendering="geometricPrecision"><defs><linearGradient id="eTpnMGhK7Hv6-fill" x1="0.5" y1="0" x2="0.5" y2="1" spreadMethod="reflect" gradientUnits="objectBoundingBox" gradientTransform="translate(0 0)"><stop id="eTpnMGhK7Hv6-fill-0" offset="0%" stop-color="#e90064"/><stop id="eTpnMGhK7Hv6-fill-1" offset="54%" stop-color="#ff5f9e"/></linearGradient></defs><path d="M-3.511484,215.42237c0-19.880156-.00001-89.375292,0-121.307941c0-1.953354.452412-7.937533.452412-13.863758c0-5.153385,1.609749-9.259903,6.987412-12.369993c5.760076-3.331254,15.046225-10.570632,22.815932-11.191297c6.520657-.520888,11.755664,5.155044,15.066104,6.728749c5.087107,2.41829,8.752357.750468,12.157825,4.462557c10.116144,11.02698,17.717039,2.959632,30.911468,7.746452c7.287893,2.64398,17.235316,2.054526,25.708547,4.623532c12.287275,3.725388,15.875564,8.735226,25.537112,10.828478c7.351568,2.782338,13.646005,13.304061,24.016415,14.159131c8.881484.7323,16.317026,1.71074,27.634251,0c6.153139-.930128,12.680874,1.632328,18.358006-5.266453c6.126683-5.735619,7.106259-8.203597,14.678632-10.985929c17.303323-7.809588,23.692415-7.246995,48.492155,8.230093c4.470223,2.789789,13.304412-.455531,24.209364-.455531c14.478991.455531,9.471537-3.785547,20.846954-7.774562c9.028972-3.166188,3.786417,1.65552,16.812055-7.246995c7.300957-4.98992,11.883395-11.721051,19.925456-13.858225c1.089149-.079854,26.824418-4.39023,27.89836-4.462547c1.191605,0,2.808303,0,4.602365,0c0,4.462547,14.734131,0,14.734131,0c7.60143-3.842356,5.782248,0,14.07265-.000001c8.97192-.000001,10.145171,4.475983,14.252098,4.462548c3.79485-.012414,4.957839-3.353792,4.957839,0c0,5.035532-.000003,24.249418-.000002,28.879782c0,8.47782.000002,125.5225.000002,118.661909" transform="matrix(.988216 0 0 1.803173 3.470103 461.556199)" fill="url(#eTpnMGhK7Hv6-fill)" stroke="#060047" stroke-width="0.78"/></svg>
