<svg id="eBp2lYSLcUa1" xmlns="http://www.w3.org/2000/svg" xmlns:xlink="http://www.w3.org/1999/xlink" viewBox="0 0 430 850" shape-rendering="geometricPrecision" text-rendering="geometricPrecision"><defs><linearGradient id="eBp2lYSLcUa3-fill" x1="0.5" y1="0" x2="0.5" y2="1" spreadMethod="pad" gradientUnits="objectBoundingBox" gradientTransform="translate(0 0)"><stop id="eBp2lYSLcUa3-fill-0" offset="0%" stop-color="#e64089"/><stop id="eBp2lYSLcUa3-fill-1" offset="0%" stop-color="#e90064"/><stop id="eBp2lYSLcUa3-fill-2" offset="23%" stop-color="#ff5f9e"/></linearGradient></defs><path d="M-7.539853,292.246792c-4.253777-19.501453.901828-124.087262.000002-155.407819-.036064-1.252466-.170768-2.466585.820852-2.663815c3.491906-.694527,8.633182.677117,14.185379-.69453c6.492828-1.604026,27.095417,2.857237,30.092725,2.857235c8.240878-.259594,18.424379-1.907909,25.964043.50111c5.062083,1.6174,5.704817-.872321,16.89343-1.426747c3.529154-.174879,13.288235,6.568342,25.582114,6.568342c1.764372,0,12.352702-3.36529,15.266734-2.476791c14.117708,4.304539,33.59735,9.232596,42.613246,9.232596c12.891917,0,23.370599.805429,30.975096-3.476833c6.220795-4.368905,10.507829-1.409493,20.827235-.554423c8.837804.7323,7.965001,3.190805,19.226566,1.480065c6.122877-.930128,12.292862,1.543719,22.547258,1.543719c9.881785,0,13.824297-13.553743,19.445395-13.553743c17.263397,0,14.282399,7.805412,19.678954,7.805411c5.128961-.000001,5.760183,1.762167,12.935285-1.784975c4.209494-4.351059,7.611207-4.797552,17.86234-10.038026c10.333475-5.282568,10.823959,12.225574,23.785535,3.323059c7.26505-4.98992,13.922528-1.185885,21.925038-3.323059c1.083791-.079854,18.172736-3.093596,19.241396-3.165913c4.495206-1.68079,16.953125-6.137557,19.290367-6.423979c18.854038.625545,15.821668,1.096525,15.821675,6.423979.000003,2.616097,0,2.107726-.000004,5.087972-.574911,3.285856-.000004,2.518935-.000003,7.833581.000001,9.006896-1.99314,159.030358-1.99314,152.333593" transform="matrix(.988216 0 0 1.803173 7.596137 323.028444)" opacity="0.74" fill="url(#eBp2lYSLcUa3-fill)" stroke="#060047" stroke-width="0.78"/></svg>
