<svg id="e9Bug7N8sIC1" xmlns="http://www.w3.org/2000/svg" xmlns:xlink="http://www.w3.org/1999/xlink" viewBox="0 0 390 850" shape-rendering="geometricPrecision" text-rendering="geometricPrecision"><defs><linearGradient id="e9Bug7N8sIC4-fill" x1="0.5" y1="0" x2="0.5" y2="1" spreadMethod="pad" gradientUnits="objectBoundingBox" gradientTransform="translate(0 0)"><stop id="e9Bug7N8sIC4-fill-0" offset="0%" stop-color="#e64089"/><stop id="e9Bug7N8sIC4-fill-1" offset="10%" stop-color="#ff5f9e"/><stop id="e9Bug7N8sIC4-fill-2" offset="27%" stop-color="#ff5f9e"/></linearGradient></defs><path d="M-6.773452,283.850247c-3.877146-19.501453-.2797-104.800791-1.101678-136.121348-.121859-4.643301,6.825348-7.313802,7.615257-5.74833c1.908727,3.782788,23.917006-1.784973,26.648931-1.784975c7.511226-.259594,18.374371-3.214448,25.246469-.805429c4.613883,1.6174,11.327607.554426,21.525574,0c3.216681-.174879,12.111683-4.031257,23.317055-4.031257c1.608154,0,11.258992-2.072249,13.915014-1.18375c12.867718,4.304539,15.892043,0,24.109666,0c11.75046,0,21.22834,4.30668,31.982841,8.930211c5.581611,3.674735,12.801323,3.768462,22.207043,4.623532c8.0553.7323,15.016193,3.198972,25.280653,1.488232c5.580754-.930128,5.416088,1.229322,14.762554,1.229322c9.006846,0,17.709542-7.341086,22.832945-7.341086c15.734886,0,13.017827-1.124799,17.936568-1.1248c4.67484-.000001,3.658321.774051,7.396357,1.124796c1.506661-.000004,2.310892,2.330703,11.654384-2.909771c9.418543-5.282568,19.564747-1.135511,31.378697-10.038026c6.621799-4.98992,12.68982,2.137174,19.983783,0c.987832-.079854,16.563712-4.019234,17.537752-4.091551c4.097198-1.68079,28.056231.286422,30.186532,0c.875622.34196.234165,2.395291.05365,3.498928.00001.487676-.05364,1.642669,0,2.592323-.053655,2.017882-.000002-.438021-.000001,4.876625.000001,9.006896-.053649,153.513122-.053649,146.816357" transform="matrix(.988216 0 0 1.803173 6.693633 338.168877)" fill="url(#e9Bug7N8sIC4-fill)" stroke="#060047" stroke-width="0.78"/></svg>
